<svg width="533" height="469" viewBox="0 0 533 469" fill="none" xmlns="http://www.w3.org/2000/svg">
<path d="M533 411.93H0V412.244H533V411.93Z" fill="#EBEBEB"/>
<path d="M122.942 423.907H96.4304V424.222H122.942V423.907Z" fill="#EBEBEB"/>
<path d="M191.699 420.498H162.384V420.812H191.699V420.498Z" fill="#EBEBEB"/>
<path d="M112.761 435.596H50.8162V435.91H112.761V435.596Z" fill="#EBEBEB"/>
<path d="M479.593 433.482H456.568V433.797H479.593V433.482Z" fill="#EBEBEB"/>
<path d="M258.74 422.926H228.966V423.241H258.74V422.926Z" fill="#EBEBEB"/>
<path d="M395.369 428.173H320.514V428.487H395.369V428.173Z" fill="#EBEBEB"/>
<path d="M252.642 355.814H46.8081C45.1956 355.811 43.6501 355.053 42.5109 353.706C41.3717 352.359 40.7319 350.533 40.7319 348.63V7.12132C40.7459 5.22904 41.3919 3.41972 42.5296 2.08634C43.6673 0.752971 45.2048 0.00324157 46.8081 0H252.642C254.256 0 255.805 0.756908 256.946 2.10421C258.088 3.45152 258.729 5.27885 258.729 7.18423V348.63C258.729 350.536 258.088 352.363 256.946 353.71C255.805 355.058 254.256 355.814 252.642 355.814ZM46.8081 0.251638C45.2663 0.254971 43.7886 0.980207 42.6993 2.26816C41.6101 3.55612 40.9984 5.30155 40.9984 7.12132V348.63C40.9984 350.45 41.6101 352.195 42.6993 353.483C43.7886 354.771 45.2663 355.497 46.8081 355.5H252.642C254.185 355.497 255.664 354.772 256.755 353.484C257.845 352.197 258.46 350.451 258.462 348.63V7.12132C258.46 5.30039 257.845 3.55499 256.755 2.26739C255.664 0.979799 254.185 0.254964 252.642 0.251638H46.8081Z" fill="#EBEBEB"/>
<path d="M483.228 355.814H277.384C275.77 355.811 274.224 355.053 273.083 353.707C271.942 352.36 271.3 350.535 271.297 348.63V7.12132C271.314 5.2279 271.962 3.41858 273.102 2.08556C274.241 0.752531 275.78 0.00320622 277.384 0H483.228C484.83 0.00654821 486.365 0.75774 487.5 2.09076C488.635 3.42378 489.28 5.23122 489.294 7.12132V348.63C489.294 350.531 488.656 352.355 487.519 353.701C486.382 355.048 484.839 355.808 483.228 355.814ZM277.384 0.251638C275.841 0.254964 274.362 0.979799 273.271 2.26739C272.18 3.55499 271.566 5.30039 271.563 7.12132V348.63C271.566 350.451 272.18 352.197 273.271 353.484C274.362 354.772 275.841 355.497 277.384 355.5H483.228C484.771 355.497 486.25 354.772 487.341 353.484C488.432 352.197 489.046 350.451 489.049 348.63V7.12132C489.046 5.30039 488.432 3.55499 487.341 2.26739C486.25 0.979799 484.771 0.254964 483.228 0.251638H277.384Z" fill="#EBEBEB"/>
<path d="M342.207 12.1037H33.9521C28.889 12.1037 24.7845 16.9482 24.7845 22.9241V246.994C24.7845 252.97 28.889 257.815 33.9521 257.815H342.207C347.27 257.815 351.375 252.97 351.375 246.994V22.9241C351.375 16.9482 347.27 12.1037 342.207 12.1037Z" fill="#EBEBEB"/>
<path d="M351.375 24.5346H24.7845V222.598H351.375V24.5346Z" fill="#FAFAFA"/>
<path d="M246.534 99.5727C246.539 97.1221 247.367 94.7738 248.835 93.0409C250.303 91.3081 252.293 90.3317 254.369 90.325H498.483C500.559 90.3317 502.549 91.3081 504.017 93.0409C505.485 94.7738 506.312 97.1221 506.318 99.5727V129.341H246.534V99.5727Z" fill="#E6E6E6"/>
<path d="M309.897 116.835C313.17 116.835 315.824 113.703 315.824 109.839C315.824 105.976 313.17 102.844 309.897 102.844C306.623 102.844 303.97 105.976 303.97 109.839C303.97 113.703 306.623 116.835 309.897 116.835Z" fill="white"/>
<path d="M288.897 116.835C292.17 116.835 294.824 113.703 294.824 109.839C294.824 105.976 292.17 102.844 288.897 102.844C285.623 102.844 282.97 105.976 282.97 109.839C282.97 113.703 285.623 116.835 288.897 116.835Z" fill="white"/>
<path d="M267.907 116.835C271.181 116.835 273.834 113.703 273.834 109.839C273.834 105.976 271.181 102.844 267.907 102.844C264.634 102.844 261.98 105.976 261.98 109.839C261.98 113.703 264.634 116.835 267.907 116.835Z" fill="white"/>
<path d="M498.451 289.634H254.337C252.261 289.627 250.271 288.651 248.803 286.918C247.335 285.185 246.507 282.837 246.502 280.386V129.404H506.286V280.386C506.28 282.837 505.453 285.185 503.985 286.918C502.517 288.651 500.527 289.627 498.451 289.634Z" fill="#F5F5F5"/>
<path d="M211.654 151.07C211.66 148.62 212.487 146.271 213.955 144.538C215.424 142.806 217.413 141.829 219.489 141.823H463.603C465.68 141.829 467.669 142.806 469.137 144.538C470.606 146.271 471.433 148.62 471.438 151.07V180.839H211.654V151.07Z" fill="#F0F0F0"/>
<path d="M275.007 168.332C278.28 168.332 280.934 165.2 280.934 161.337C280.934 157.473 278.28 154.341 275.007 154.341C271.733 154.341 269.08 157.473 269.08 161.337C269.08 165.2 271.733 168.332 275.007 168.332Z" fill="#E6E6E6"/>
<path d="M254.006 168.332C257.28 168.332 259.933 165.2 259.933 161.337C259.933 157.473 257.28 154.341 254.006 154.341C250.733 154.341 248.08 157.473 248.08 161.337C248.08 165.2 250.733 168.332 254.006 168.332Z" fill="#E6E6E6"/>
<path d="M233.017 168.332C236.29 168.332 238.944 165.2 238.944 161.337C238.944 157.473 236.29 154.341 233.017 154.341C229.744 154.341 227.09 157.473 227.09 161.337C227.09 165.2 229.744 168.332 233.017 168.332Z" fill="#E6E6E6"/>
<path d="M463.561 341.131H219.447C217.37 341.125 215.381 340.148 213.913 338.416C212.445 336.683 211.617 334.334 211.612 331.884V180.902H471.396V331.884C471.39 334.334 470.563 336.683 469.095 338.416C467.627 340.148 465.637 341.125 463.561 341.131Z" fill="#FAFAFA"/>
<path d="M176.764 202.568C176.77 200.117 177.597 197.769 179.065 196.036C180.533 194.303 182.523 193.327 184.599 193.32H428.713C430.79 193.327 432.779 194.303 434.247 196.036C435.715 197.769 436.543 200.117 436.548 202.568V232.336H176.764V202.568Z" fill="#FAFAFA"/>
<path d="M240.116 219.83C243.39 219.83 246.043 216.698 246.043 212.834C246.043 208.971 243.39 205.839 240.116 205.839C236.843 205.839 234.19 208.971 234.19 212.834C234.19 216.698 236.843 219.83 240.116 219.83Z" fill="#F0F0F0"/>
<path d="M219.116 219.83C222.39 219.83 225.043 216.698 225.043 212.834C225.043 208.971 222.39 205.839 219.116 205.839C215.843 205.839 213.189 208.971 213.189 212.834C213.189 216.698 215.843 219.83 219.116 219.83Z" fill="#F0F0F0"/>
<path d="M198.127 219.83C201.4 219.83 204.054 216.698 204.054 212.834C204.054 208.971 201.4 205.839 198.127 205.839C194.853 205.839 192.2 208.971 192.2 212.834C192.2 216.698 194.853 219.83 198.127 219.83Z" fill="#F0F0F0"/>
<path d="M428.671 392.629H184.557C182.48 392.622 180.491 391.646 179.023 389.913C177.554 388.18 176.727 385.832 176.721 383.381V232.399H436.506V383.381C436.5 385.832 435.673 388.18 434.205 389.913C432.736 391.646 430.747 392.622 428.671 392.629Z" fill="#E6E6E6"/>
<path d="M266.5 468.749C380.65 468.749 473.187 462.372 473.187 454.506C473.187 446.64 380.65 440.264 266.5 440.264C152.35 440.264 59.8133 446.64 59.8133 454.506C59.8133 462.372 152.35 468.749 266.5 468.749Z" fill="#F5F5F5"/>
<path d="M203.777 34.6H194.364V35.8582H203.777V34.6Z" fill="#3FCF4B"/>
<path d="M183.181 34.6H160.081V35.8582H183.181V34.6Z" fill="#3FCF4B"/>
<path d="M96.2918 39.0037H436.708C440.101 39.0037 443.355 40.5944 445.754 43.4258C448.152 46.2573 449.5 50.0976 449.5 54.1019V401.008H83.4998V54.1019C83.4998 50.0976 84.8475 46.2573 87.2464 43.4258C89.6454 40.5944 92.8991 39.0037 96.2918 39.0037Z" fill="#3FCF4B"/>
<path opacity="0.8" d="M449.49 61.651H83.4998V395.145H449.49V61.651Z" fill="white"/>
<path opacity="0.4" d="M449.49 61.651H83.4998V134.965H449.49V61.651Z" fill="#3FCF4B"/>
<path opacity="0.4" d="M441.942 68.6591H426.667V86.6888H441.942V68.6591Z" fill="#3FCF4B"/>
<path opacity="0.4" d="M419.279 68.6591H404.003V86.6888H419.279V68.6591Z" fill="#3FCF4B"/>
<path opacity="0.4" d="M396.616 68.6591H381.34V86.6888H396.616V68.6591Z" fill="#3FCF4B"/>
<path opacity="0.4" d="M152.747 383.117H137.471V384.929H152.747V383.117Z" fill="#3FCF4B"/>
<path opacity="0.4" d="M130.084 383.117H114.808V384.929H130.084V383.117Z" fill="#3FCF4B"/>
<path opacity="0.4" d="M107.421 383.117H92.145V384.929H107.421V383.117Z" fill="#3FCF4B"/>
<path d="M229.925 103.423H225.267L224.617 106.015H220.427L225.416 90.325H229.904L234.893 106.015H230.629L229.925 103.423ZM229.073 100.038L227.612 94.3638L226.152 100.013L229.073 100.038Z" fill="white"/>
<path d="M235.97 90.325H239.701V95.7604C240.049 95.3186 240.475 94.9709 240.948 94.7412C241.442 94.5053 241.971 94.3856 242.504 94.389C243.052 94.374 243.597 94.5002 244.099 94.7588C244.602 95.0174 245.051 95.4021 245.414 95.8862C246.243 97.094 246.654 98.6263 246.566 100.177C246.586 101.298 246.408 102.412 246.043 103.448C245.744 104.311 245.236 105.05 244.583 105.574C243.969 106.037 243.254 106.278 242.526 106.266C241.907 106.274 241.297 106.106 240.745 105.776C240.227 105.403 239.777 104.911 239.424 104.329V106.015H235.97V90.325ZM239.669 100.302C239.617 101.053 239.782 101.803 240.138 102.429C240.28 102.637 240.461 102.803 240.666 102.917C240.871 103.03 241.095 103.087 241.321 103.083C241.529 103.077 241.734 103.015 241.918 102.902C242.103 102.788 242.263 102.627 242.387 102.429C242.736 101.781 242.893 101.016 242.835 100.252C242.879 99.5546 242.725 98.8595 242.398 98.2767C242.272 98.0828 242.111 97.9253 241.927 97.8163C241.742 97.7072 241.538 97.6496 241.332 97.6476C241.098 97.6378 240.866 97.6917 240.654 97.8052C240.441 97.9187 240.254 98.0887 240.106 98.3019C239.765 98.8869 239.61 99.5956 239.669 100.302Z" fill="white"/>
<path d="M247.877 100.365C247.858 99.5668 247.981 98.7723 248.238 98.0333C248.495 97.2943 248.88 96.6271 249.369 96.0749C249.911 95.4913 250.544 95.0396 251.234 94.746C251.924 94.4523 252.656 94.3224 253.388 94.3638C254.194 94.2969 255.002 94.4404 255.756 94.784C256.509 95.1276 257.19 95.6628 257.748 96.3517C258.566 97.5215 258.991 99.0064 258.939 100.522C258.888 102.038 258.365 103.478 257.471 104.568C256.917 105.15 256.272 105.598 255.571 105.885C254.87 106.172 254.129 106.293 253.388 106.241C252.039 106.313 250.711 105.823 249.636 104.857C249.07 104.318 248.617 103.633 248.312 102.854C248.007 102.075 247.858 101.223 247.877 100.365ZM251.576 100.365C251.526 101.165 251.71 101.96 252.098 102.617C252.26 102.841 252.462 103.02 252.688 103.143C252.914 103.266 253.16 103.329 253.41 103.329C253.659 103.329 253.905 103.266 254.131 103.143C254.357 103.02 254.559 102.841 254.721 102.617C255.111 101.942 255.292 101.129 255.232 100.315C255.295 99.5489 255.134 98.7805 254.774 98.1383C254.62 97.913 254.425 97.7315 254.204 97.6073C253.982 97.4832 253.74 97.4195 253.495 97.4212C253.24 97.4133 252.987 97.4751 252.756 97.6017C252.525 97.7283 252.322 97.9162 252.162 98.1509C251.754 98.7811 251.547 99.5604 251.576 100.353V100.365Z" fill="white"/>
<path d="M270.86 106.015H267.417V104.178C266.999 104.837 266.469 105.386 265.86 105.788C265.26 106.132 264.598 106.296 263.931 106.266C263.492 106.296 263.052 106.216 262.64 106.032C262.229 105.847 261.855 105.563 261.543 105.197C260.906 104.265 260.597 103.081 260.68 101.888V94.6531H264.368V100.944C264.323 101.482 264.44 102.02 264.698 102.466C264.818 102.62 264.966 102.741 265.13 102.819C265.294 102.897 265.47 102.932 265.647 102.919C265.852 102.922 266.055 102.869 266.24 102.765C266.425 102.66 266.587 102.506 266.713 102.315C267.056 101.675 267.206 100.917 267.14 100.164V94.7035H270.828L270.86 106.015Z" fill="white"/>
<path d="M277.554 90.325V94.6532H279.58V97.8364H277.554V101.913C277.528 102.242 277.569 102.574 277.672 102.882C277.738 103.004 277.833 103.101 277.944 103.163C278.055 103.226 278.178 103.25 278.301 103.234C278.69 103.21 279.075 103.116 279.441 102.957L279.718 105.964C278.879 106.191 278.021 106.309 277.16 106.317C276.467 106.368 275.773 106.226 275.135 105.901C274.697 105.628 274.354 105.183 274.165 104.643C273.914 103.756 273.809 102.821 273.855 101.888V97.8867H272.491V94.7035H273.855V92.6149L277.554 90.325Z" fill="white"/>
<path d="M296.423 90.325H300.516V99.6733C300.522 100.568 300.4 101.457 300.154 102.303C299.912 103.114 299.519 103.849 299.002 104.454C298.536 105.005 297.977 105.433 297.361 105.713C296.433 106.078 295.46 106.252 294.482 106.228C293.77 106.227 293.058 106.172 292.35 106.065C291.687 105.994 291.041 105.781 290.442 105.436C289.898 105.099 289.416 104.637 289.025 104.077C288.629 103.557 288.331 102.944 288.15 102.278C287.918 101.419 287.792 100.525 287.777 99.623V90.2747H291.871V99.8495C291.853 100.213 291.897 100.577 292 100.92C292.102 101.264 292.261 101.58 292.468 101.85C292.691 102.097 292.954 102.288 293.242 102.411C293.53 102.535 293.836 102.588 294.141 102.567C294.445 102.591 294.749 102.541 295.035 102.42C295.321 102.299 295.583 102.109 295.804 101.863C296.016 101.593 296.178 101.275 296.283 100.929C296.387 100.583 296.431 100.216 296.412 99.8495L296.423 90.325Z" fill="white"/>
<path d="M302.339 102.857L306.006 102.454C306.11 102.89 306.33 103.274 306.635 103.549C306.953 103.785 307.325 103.904 307.701 103.888C308.11 103.921 308.516 103.788 308.852 103.511C308.95 103.436 309.03 103.333 309.086 103.212C309.142 103.092 309.171 102.956 309.172 102.819C309.17 102.663 309.13 102.511 309.056 102.381C308.982 102.251 308.878 102.15 308.756 102.089C308.242 101.873 307.709 101.721 307.168 101.636C306.264 101.482 305.372 101.238 304.503 100.906C304.001 100.677 303.565 100.285 303.245 99.774C302.899 99.2497 302.714 98.6017 302.723 97.937C302.713 97.239 302.909 96.5587 303.277 96.012C303.677 95.435 304.205 94.9996 304.801 94.7538C305.644 94.4552 306.523 94.3193 307.402 94.3512C308.26 94.3156 309.117 94.4215 309.95 94.6657C310.465 94.8535 310.933 95.186 311.315 95.6345C311.72 96.1405 312.032 96.7403 312.231 97.396L308.724 97.7986C308.661 97.4756 308.503 97.1899 308.276 96.9934C307.959 96.755 307.587 96.6366 307.21 96.6537C306.892 96.6233 306.574 96.7161 306.304 96.9179C306.217 96.99 306.145 97.0859 306.095 97.1975C306.045 97.3092 306.018 97.4333 306.017 97.5596C306.017 97.6951 306.052 97.8275 306.116 97.9396C306.181 98.0517 306.272 98.1384 306.379 98.1886C306.888 98.3963 307.419 98.5233 307.957 98.5661C308.892 98.6499 309.814 98.8827 310.696 99.2581C311.249 99.5097 311.727 99.9471 312.071 100.516C312.379 101.041 312.543 101.665 312.54 102.303C312.532 102.984 312.359 103.648 312.039 104.215C311.648 104.887 311.094 105.404 310.451 105.7C309.506 106.107 308.503 106.29 307.498 106.241C306.203 106.364 304.903 106.059 303.746 105.36C303.019 104.773 302.515 103.875 302.339 102.857Z" fill="white"/>
<path d="M159.026 276.951C188.463 276.951 212.326 248.786 212.326 214.042C212.326 179.298 188.463 151.133 159.026 151.133C129.589 151.133 105.726 179.298 105.726 214.042C105.726 248.786 129.589 276.951 159.026 276.951Z" fill="#3FCF4B"/>
<path d="M194.732 256.183C214.452 232.908 214.452 195.171 194.732 171.896C175.012 148.62 143.04 148.62 123.32 171.896C103.599 195.171 103.6 232.908 123.32 256.183C143.04 279.458 175.012 279.458 194.732 256.183Z" fill="white"/>
<mask id="mask0_87_153" style="mask-type:luminance" maskUnits="userSpaceOnUse" x="108" y="154" width="102" height="120">
<path d="M194.732 256.183C214.452 232.908 214.452 195.171 194.732 171.896C175.012 148.62 143.04 148.62 123.32 171.896C103.599 195.171 103.6 232.908 123.32 256.183C143.04 279.458 175.012 279.458 194.732 256.183Z" fill="white"/>
</mask>
<g mask="url(#mask0_87_153)">
<path d="M161.606 226.473L165.87 216.005C165.87 216.005 188.128 224.309 191.454 226.234C191.368 219.666 194.204 207.361 194.513 200.617C195.355 199.674 197.391 197.296 198.447 197.384C201.645 206.191 200.952 236.388 194.662 236.929C184.61 237.683 161.606 226.473 161.606 226.473Z" fill="#B55B52"/>
<path d="M158.834 224.837C161.403 231.946 182.499 238.275 182.499 238.275L186.763 222.975C186.763 222.975 178.726 215.778 170.379 213.451C161.84 211.048 155.998 217.037 158.834 224.837Z" fill="#3FCF4B"/>
<path opacity="0.2" d="M159.207 225.668C161.712 230.134 171.029 234.186 177.095 236.438C173.054 227.178 167.607 222.069 159.207 225.668Z" fill="black"/>
<path d="M194.492 201.951L191.091 196.805L197.381 192.666C198.619 194.875 199.255 197.478 199.203 200.127L194.492 201.951Z" fill="#B55B52"/>
<path d="M190.164 189.684L196.293 188.514L197.381 192.666L191.091 196.805L190.164 189.684Z" fill="#B55B52"/>
<path d="M170.89 213.967C170.89 213.967 179.482 238.375 172.745 283.859H139.166C138.772 277.216 141.639 244.855 135.563 213.552C139.6 212.623 143.685 212.01 147.79 211.715C152.977 211.362 158.177 211.362 163.365 211.715C168.801 212.306 170.89 213.967 170.89 213.967Z" fill="#3FCF4B"/>
<path opacity="0.2" d="M143.675 221.264C144.4 226.423 143.281 238.74 139.411 252.97C139.22 240.777 138.121 228.626 136.128 216.659C138.58 216.307 142.993 216.408 143.675 221.264Z" fill="black"/>
<path d="M149.464 194.528C150.53 200.441 151.212 207.776 147.79 211.715C147.79 211.715 149.922 217.716 159.239 217.716C167.767 217.716 163.364 211.715 163.364 211.715C157.747 210.142 157.864 201.989 158.749 197.384L149.464 194.528Z" fill="#B55B52"/>
<path d="M159.676 217.238L161.702 219.88C161.77 219.971 161.818 220.082 161.84 220.2C161.862 220.319 161.859 220.443 161.829 220.56L161.179 222.887C161.143 223.015 161.074 223.127 160.983 223.207C160.892 223.288 160.782 223.335 160.667 223.34L158.535 223.466C158.433 223.474 158.33 223.448 158.238 223.393C158.146 223.338 158.068 223.254 158.013 223.151L156.702 220.899C156.625 220.778 156.583 220.63 156.583 220.478C156.583 220.326 156.625 220.178 156.702 220.056L158.834 217.238C158.946 217.107 159.097 217.033 159.255 217.033C159.413 217.033 159.564 217.107 159.676 217.238Z" fill="white"/>
<path d="M159.239 216.659C158.205 218.702 157.633 221.024 157.576 223.403C157.576 223.403 145.85 218.547 146.202 211.425C146.202 211.425 147.833 210.268 148.867 209.324C148.867 209.324 149.357 213.816 159.239 216.659Z" fill="#263238"/>
<path d="M159.239 216.659C160.346 218.573 161.158 220.703 161.638 222.95C161.638 222.95 166.84 218.723 165.102 211.689C164.125 211.228 163.12 210.853 162.096 210.57C162.096 210.57 162.885 215.149 159.239 216.659Z" fill="#263238"/>
<path d="M160.188 222.975C160.188 222.975 163.524 251.914 163.599 256.946C163.554 261.71 162.918 266.441 161.712 270.988C161.712 270.988 159.42 265.867 159.026 256.732C158.631 247.598 159.111 228.096 158.941 222.963L160.188 222.975Z" fill="white"/>
<path opacity="0.2" d="M158.749 197.396C158.062 200.597 158.143 203.96 158.983 207.11C158.116 206.951 157.272 206.646 156.478 206.204C153.28 204.442 151.67 201.687 149.976 197.598C149.826 196.541 149.656 195.522 149.474 194.528L158.749 197.396Z" fill="black"/>
<path d="M167.586 193.244C167.207 194.127 166.681 194.91 166.04 195.548C165.399 196.186 164.656 196.665 163.855 196.956C161.723 197.698 160.561 195.396 161.094 192.942C161.584 190.728 163.226 187.683 165.464 187.998C165.945 188.084 166.401 188.307 166.791 188.648C167.181 188.99 167.495 189.439 167.704 189.957C167.914 190.475 168.012 191.045 167.992 191.618C167.971 192.191 167.832 192.75 167.586 193.244Z" fill="#B55B52"/>
<path opacity="0.2" d="M167.586 193.244C167.207 194.127 166.681 194.91 166.04 195.548C165.399 196.186 164.656 196.665 163.855 196.956C161.723 197.698 160.561 195.396 161.094 192.942C161.584 190.728 163.226 187.683 165.464 187.998C165.945 188.084 166.401 188.307 166.791 188.648C167.181 188.99 167.495 189.439 167.704 189.957C167.914 190.475 168.012 191.045 167.992 191.618C167.971 192.191 167.832 192.75 167.586 193.244Z" fill="black"/>
<path d="M161.403 188.124C163.535 190.426 167.426 177.794 163.066 174.284C158.706 170.773 157.182 175.542 157.256 178.448C157.331 181.355 158.184 184.714 161.403 188.124Z" fill="#263238"/>
<path d="M146.842 185.997C147.844 193.999 148.089 198.743 151.788 202.605C157.342 208.406 165.369 204.052 166.381 195.899C167.298 188.551 165.507 176.687 158.695 174.007C157.204 173.408 155.606 173.279 154.059 173.631C152.512 173.983 151.069 174.804 149.873 176.014C148.677 177.224 147.768 178.781 147.237 180.532C146.705 182.282 146.569 184.166 146.842 185.997Z" fill="#B55B52"/>
<path d="M146.415 192.791C147.588 193.685 149.197 196.1 151.617 191.823C151.617 190.715 149.24 188.853 149.059 186.236C148.846 183.192 148.281 179.945 146.191 178.876C141.426 176.36 140.552 181.191 141.021 184.085C141.49 186.979 142.78 189.986 146.415 192.791Z" fill="#263238"/>
<path d="M145.775 181.694C157.022 179.631 163.663 179.178 167.042 174.208C170.421 169.238 165.23 163.086 159.58 162.381C159.175 164.973 153.451 171.792 144.656 174.749C144.167 174.908 143.726 175.23 143.387 175.677C143.049 176.123 142.826 176.675 142.746 177.267C142.667 177.859 142.733 178.465 142.937 179.014C143.142 179.563 143.476 180.03 143.899 180.361C144.976 181.178 145.775 181.694 145.775 181.694Z" fill="#263238"/>
<path d="M144.464 195.107C145.489 196.749 147.021 197.848 148.728 198.164C150.956 198.567 151.756 196.113 150.86 193.773C150.061 191.659 147.939 188.916 145.829 189.583C143.718 190.25 143.217 193.081 144.464 195.107Z" fill="#B55B52"/>
<path d="M157.192 187.469C157.192 188.124 157.576 188.639 157.928 188.602C158.28 188.564 158.536 188.023 158.493 187.344C158.45 186.664 158.12 186.186 157.757 186.211C157.395 186.236 157.15 186.765 157.192 187.469Z" fill="#263238"/>
<path d="M163.375 186.928C163.428 187.583 163.759 188.086 164.111 188.061C164.462 188.036 164.718 187.482 164.676 186.803C164.633 186.123 164.292 185.632 163.94 185.67C163.588 185.708 163.332 186.274 163.375 186.928Z" fill="#263238"/>
<path d="M161.435 187.469C162.235 189.42 163.253 191.236 164.462 192.867C164.111 193.216 163.698 193.468 163.254 193.605C162.809 193.743 162.345 193.761 161.893 193.66L161.435 187.469Z" fill="#A02724"/>
<path d="M160.433 195.534C160.454 195.533 160.474 195.526 160.492 195.515C160.51 195.504 160.527 195.489 160.54 195.47C160.553 195.451 160.562 195.429 160.568 195.405C160.573 195.382 160.575 195.357 160.572 195.333C160.57 195.308 160.565 195.284 160.555 195.262C160.546 195.239 160.533 195.219 160.517 195.203C160.501 195.187 160.483 195.174 160.463 195.166C160.443 195.158 160.422 195.155 160.401 195.157C159.715 195.225 159.025 195.102 158.386 194.799C157.747 194.495 157.178 194.019 156.723 193.408C156.711 193.388 156.695 193.371 156.677 193.359C156.659 193.346 156.639 193.338 156.618 193.334C156.597 193.331 156.576 193.332 156.556 193.338C156.535 193.345 156.516 193.355 156.499 193.37C156.483 193.385 156.468 193.404 156.458 193.425C156.447 193.446 156.44 193.47 156.437 193.495C156.434 193.519 156.435 193.544 156.44 193.568C156.446 193.592 156.455 193.615 156.467 193.634C156.951 194.303 157.564 194.825 158.254 195.155C158.944 195.486 159.691 195.616 160.433 195.534Z" fill="#263238"/>
<path d="M155.156 185.179C155.205 185.178 155.253 185.163 155.296 185.134C155.339 185.105 155.375 185.065 155.401 185.016C155.605 184.604 155.889 184.256 156.231 184.002C156.572 183.748 156.961 183.595 157.363 183.556C157.405 183.558 157.448 183.55 157.487 183.531C157.527 183.513 157.562 183.485 157.592 183.45C157.622 183.414 157.646 183.372 157.661 183.325C157.677 183.279 157.684 183.229 157.683 183.179C157.683 183.076 157.648 182.976 157.586 182.903C157.524 182.83 157.44 182.789 157.352 182.789C156.843 182.824 156.349 183.006 155.914 183.32C155.479 183.634 155.116 184.069 154.858 184.588C154.835 184.631 154.819 184.679 154.812 184.729C154.805 184.779 154.806 184.83 154.816 184.879C154.826 184.928 154.844 184.975 154.87 185.016C154.895 185.056 154.927 185.091 154.964 185.117C154.991 185.142 155.022 185.16 155.055 185.171C155.088 185.182 155.122 185.185 155.156 185.179Z" fill="#263238"/>
<path d="M165.966 184.085L166.093 184.022C166.13 183.994 166.162 183.958 166.186 183.915C166.211 183.872 166.227 183.824 166.235 183.773C166.243 183.723 166.242 183.67 166.233 183.62C166.223 183.57 166.205 183.523 166.179 183.481C165.903 182.965 165.527 182.534 165.082 182.224C164.637 181.913 164.136 181.732 163.62 181.694C163.577 181.694 163.535 181.704 163.495 181.724C163.456 181.744 163.42 181.773 163.39 181.809C163.36 181.846 163.337 181.889 163.322 181.936C163.306 181.983 163.299 182.034 163.301 182.084C163.303 182.186 163.339 182.282 163.401 182.352C163.463 182.423 163.545 182.462 163.631 182.462C164.04 182.498 164.436 182.647 164.786 182.899C165.136 183.15 165.431 183.497 165.646 183.909C165.682 183.968 165.73 184.015 165.786 184.046C165.842 184.077 165.904 184.09 165.966 184.085Z" fill="#263238"/>
<path d="M131.704 224.284L140.339 230.273C140.339 230.273 129.444 255.436 130.628 259.362C132.237 264.646 134.678 276.259 137.535 282.009C137.258 283.268 135.659 286.325 134.721 286.891C127.856 281.456 120.341 263.652 120.362 258.569C120.458 247.032 131.704 224.284 131.704 224.284Z" fill="#B55B52"/>
<path d="M135.563 213.552C129.103 214.659 122.228 241.232 122.228 241.232L137.514 246.981C140.239 240.949 142.601 234.697 144.582 228.272C147.417 218.458 142.492 212.356 135.563 213.552Z" fill="#3FCF4B"/>
</g>
<path d="M373.974 383.042C403.411 383.042 427.274 354.876 427.274 320.132C427.274 285.389 403.411 257.223 373.974 257.223C344.537 257.223 320.674 285.389 320.674 320.132C320.674 354.876 344.537 383.042 373.974 383.042Z" fill="#3FCF4B"/>
<path d="M373.974 379.733C401.862 379.733 424.47 353.049 424.47 320.132C424.47 287.216 401.862 260.532 373.974 260.532C346.086 260.532 323.478 287.216 323.478 320.132C323.478 353.049 346.086 379.733 373.974 379.733Z" fill="white"/>
<mask id="mask1_87_153" style="mask-type:luminance" maskUnits="userSpaceOnUse" x="323" y="260" width="102" height="120">
<path d="M373.974 379.733C401.862 379.733 424.47 353.049 424.47 320.132C424.47 287.216 401.862 260.532 373.974 260.532C346.086 260.532 323.478 287.216 323.478 320.132C323.478 353.049 346.086 379.733 373.974 379.733Z" fill="white"/>
</mask>
<g mask="url(#mask1_87_153)">
<path d="M371.65 274.838C364.071 274.033 359.349 287.797 360.926 308.809C370.52 315.238 381.511 308.809 390.305 313.98C398.439 299.297 396.275 266.181 371.65 274.838Z" fill="#263238"/>
<path d="M359.818 335.658C358.728 340.432 357.195 345.048 355.244 349.423C354.194 351.817 352.883 354.038 351.343 356.028C350.892 356.601 350.403 357.131 349.882 357.614C349.065 358.446 348.088 359.029 347.036 359.312C346.226 359.508 345.388 359.465 344.595 359.186C343.89 358.933 343.239 358.504 342.687 357.928C341.992 357.189 341.427 356.296 341.024 355.299C340.497 353.961 340.107 352.555 339.862 351.109C339.632 349.863 339.461 348.603 339.35 347.334C339.116 344.818 339.009 342.478 338.977 340.087C338.918 335.36 339.1 330.634 339.521 325.933L343.444 326.021C343.785 330.55 344.179 335.13 344.68 339.584C344.947 341.811 345.245 344.025 345.629 346.139C345.821 347.183 346.045 348.215 346.279 349.159C346.471 349.975 346.747 350.761 347.1 351.499C347.217 351.725 347.367 351.851 347.185 351.612C347.002 351.425 346.788 351.284 346.557 351.197C346.236 351.08 345.896 351.054 345.565 351.121C345.085 351.222 345.053 351.386 345.245 351.121C345.47 350.852 345.68 350.566 345.874 350.266C346.846 348.698 347.672 347.011 348.337 345.233C349.114 343.294 349.804 341.307 350.405 339.282C351.044 337.256 351.641 335.08 352.164 333.117L359.818 335.658Z" fill="#FFB573"/>
<path d="M354.552 323.542C351.354 324.511 349.115 340.037 349.115 340.037L361.342 349.851C361.342 349.851 366.374 331.443 363.911 327.291C361.449 323.139 359.242 322.095 354.552 323.542Z" fill="#263238"/>
<path opacity="0.2" d="M354.839 327.015L352.377 342.666L357.334 346.63L354.839 327.015Z" fill="black"/>
<path d="M343.614 327.317L345.235 317.666L338.732 319.893C338.732 319.893 338.092 326.574 340.715 328.776L343.614 327.317Z" fill="#FFB573"/>
<path d="M344.584 313.426L339.212 316.056L338.732 319.893L345.235 317.666L344.584 313.426Z" fill="#FFB573"/>
<path d="M354.551 323.542C354.551 323.542 350.852 325.09 358.261 378.814H389.761C389.239 363.716 389.218 354.342 395.347 323.278C390.936 322.208 386.465 321.514 381.969 321.202C377.207 320.799 372.426 320.799 367.663 321.202C361.523 321.869 354.551 323.542 354.551 323.542Z" fill="#263238"/>
<path opacity="0.2" d="M392.757 335.583C389.9 336.413 387.256 340.1 387.576 346.907C387.754 349.986 388.667 352.944 390.209 355.437C390.71 350.228 391.552 344.176 392.896 336.451L392.757 335.583Z" fill="black"/>
<path d="M369.326 333.117C369.326 333.117 374.486 338.15 374.486 343.472C378.75 339.76 384.559 329.632 385.146 323.202C385.166 322.942 385.142 322.679 385.074 322.43C385.006 322.181 384.896 321.951 384.75 321.753C384.605 321.555 384.427 321.395 384.227 321.281C384.028 321.166 383.811 321.101 383.589 321.089C383.203 321.058 382.818 320.999 382.438 320.912C382.278 320.872 382.111 320.876 381.952 320.924C381.793 320.972 381.646 321.063 381.521 321.189L369.326 333.117Z" fill="#FAFAFA"/>
<path d="M369.326 333.117C367.92 334.346 366.738 335.896 365.85 337.674C364.962 339.453 364.386 341.425 364.156 343.472C359.807 339.697 361.608 328.084 364.028 322.598C364.218 322.17 364.495 321.804 364.833 321.532C365.171 321.26 365.561 321.09 365.968 321.038C366.597 320.95 367.088 320.85 367.408 320.774C367.465 320.76 367.525 320.759 367.582 320.773C367.64 320.787 367.695 320.815 367.743 320.856C367.791 320.896 367.831 320.947 367.862 321.007C367.892 321.067 367.912 321.133 367.919 321.202L369.326 333.117Z" fill="#FAFAFA"/>
<path d="M380.562 302.191C379.667 307.626 378.76 317.578 381.98 321.202C378.489 326.139 374.189 330.192 369.337 333.117C362.941 327.09 367.674 321.202 367.674 321.202C372.812 319.755 372.674 315.263 371.778 311.036L380.562 302.191Z" fill="#FFB573"/>
<path opacity="0.2" d="M376.969 305.802L371.778 311.036C371.995 312.018 372.141 313.019 372.215 314.03C374.177 313.703 377.257 311.728 377.684 309.211C377.69 308.022 377.445 306.85 376.969 305.802Z" fill="black"/>
<path d="M388.269 293.459C386.137 302.191 385.402 305.94 380.754 309.501C373.772 314.835 365.148 309.84 365.02 300.53C364.902 292.15 368.41 279.279 376.415 277.681C378.179 277.319 379.992 277.496 381.682 278.194C383.371 278.892 384.882 280.088 386.07 281.669C387.257 283.25 388.083 285.163 388.468 287.226C388.853 289.29 388.785 291.435 388.269 293.459Z" fill="#FFB573"/>
<path d="M382.587 285.318C383.888 294.038 384.389 297.41 387.001 299.662C389.612 301.914 392.043 291.572 390.113 287.596C388.184 283.62 382.587 285.318 382.587 285.318Z" fill="#263238"/>
<path d="M370.307 277.14C368.74 279.329 371.959 283.909 375.083 285.407C374.891 284.926 374.751 284.419 374.667 283.897C376.922 285.717 379.457 286.999 382.129 287.671C381.828 287.221 381.626 286.689 381.543 286.124C381.543 285.696 389.239 291.71 390.358 287.382C391.478 283.054 387.661 277.392 381.83 275.58C376.863 274.108 372.236 274.435 370.307 277.14Z" fill="#263238"/>
<path d="M375.861 292.679C375.733 293.396 375.296 293.937 374.891 293.786C374.486 293.635 374.283 293.019 374.422 292.289C374.56 291.559 374.987 291.031 375.392 291.182C375.797 291.333 375.999 291.899 375.861 292.679Z" fill="#263238"/>
<path d="M368.964 290.867C368.825 291.584 368.388 292.125 367.994 291.974C367.599 291.823 367.376 291.207 367.514 290.477C367.653 289.747 368.079 289.219 368.484 289.37C368.889 289.521 369.092 290.137 368.964 290.867Z" fill="#263238"/>
<path d="M368.655 289.458L367.28 288.565C367.28 288.565 367.77 290.112 368.655 289.458Z" fill="#263238"/>
<path d="M370.84 292.717C369.988 294.216 368.966 295.571 367.802 296.743C368.068 297.096 368.397 297.374 368.766 297.557C369.135 297.74 369.534 297.823 369.934 297.8L370.84 292.717Z" fill="#ED893E"/>
<path d="M372.684 301.499C372.376 301.471 372.07 301.42 371.767 301.348C371.72 301.333 371.68 301.297 371.654 301.248C371.628 301.199 371.619 301.14 371.629 301.084C371.634 301.055 371.644 301.028 371.658 301.004C371.672 300.98 371.69 300.96 371.711 300.945C371.732 300.93 371.755 300.919 371.78 300.915C371.804 300.911 371.829 300.913 371.853 300.92C372.608 301.137 373.396 301.142 374.153 300.935C374.911 300.727 375.616 300.313 376.213 299.725C376.248 299.684 376.296 299.661 376.346 299.661C376.396 299.661 376.443 299.684 376.479 299.725C376.511 299.766 376.528 299.82 376.528 299.876C376.528 299.931 376.511 299.985 376.479 300.027C375.96 300.556 375.358 300.958 374.706 301.211C374.055 301.463 373.368 301.561 372.684 301.499Z" fill="#263238"/>
<path d="M388.759 302.178C387.924 303.627 386.636 304.627 385.178 304.959C383.238 305.386 382.438 303.285 383.131 301.184C383.749 299.335 385.498 296.894 387.395 297.41C387.808 297.529 388.189 297.77 388.502 298.109C388.815 298.449 389.051 298.876 389.187 299.352C389.323 299.827 389.355 300.335 389.28 300.83C389.206 301.324 389.027 301.788 388.759 302.178Z" fill="#FFB573"/>
<path d="M379.251 291.094C379.174 291.083 379.101 291.043 379.045 290.98C378.989 290.916 378.953 290.832 378.942 290.741C378.759 290.066 378.46 289.443 378.063 288.911C377.667 288.378 377.182 287.948 376.639 287.646C376.588 287.628 376.541 287.597 376.501 287.555C376.461 287.514 376.429 287.463 376.407 287.405C376.386 287.348 376.374 287.286 376.375 287.223C376.375 287.16 376.387 287.098 376.409 287.041C376.431 286.984 376.463 286.933 376.504 286.892C376.544 286.851 376.591 286.82 376.642 286.802C376.694 286.785 376.747 286.78 376.8 286.789C376.853 286.798 376.903 286.82 376.948 286.853C377.602 287.217 378.182 287.743 378.649 288.394C379.116 289.045 379.46 289.807 379.656 290.628C379.672 290.739 379.651 290.854 379.597 290.948C379.544 291.041 379.462 291.107 379.368 291.131L379.251 291.094Z" fill="#263238"/>
<path d="M367.599 285.092C367.534 285.094 367.47 285.077 367.412 285.042C367.354 285.006 367.305 284.955 367.269 284.891C367.216 284.794 367.198 284.676 367.218 284.563C367.238 284.45 367.294 284.351 367.376 284.287C367.856 283.896 368.408 283.646 368.987 283.559C369.565 283.471 370.153 283.548 370.701 283.783C370.747 283.805 370.789 283.838 370.823 283.879C370.858 283.921 370.885 283.97 370.903 284.024C370.921 284.078 370.929 284.136 370.928 284.194C370.926 284.252 370.914 284.31 370.893 284.362C370.874 284.413 370.846 284.46 370.811 284.498C370.776 284.537 370.736 284.567 370.691 284.587C370.647 284.606 370.599 284.616 370.551 284.614C370.504 284.612 370.457 284.599 370.414 284.576C369.976 284.402 369.51 284.352 369.053 284.428C368.596 284.505 368.16 284.706 367.781 285.016C367.727 285.06 367.664 285.086 367.599 285.092Z" fill="#263238"/>
<path d="M375.552 291.27L374.187 290.376C374.187 290.376 374.678 291.899 375.552 291.27Z" fill="#263238"/>
<path d="M390.241 376.638L391.041 379.959C391.158 380.223 390.891 380.488 390.529 380.488H358.101C357.814 380.488 357.579 380.311 357.568 380.11L357.281 376.776C357.281 376.549 357.504 376.348 357.814 376.348H389.73C389.829 376.339 389.929 376.361 390.018 376.412C390.108 376.462 390.185 376.54 390.241 376.638Z" fill="#3FCF4B"/>
<path opacity="0.2" d="M390.241 376.638L391.041 379.959C391.158 380.223 390.891 380.488 390.529 380.488H358.101C357.814 380.488 357.579 380.311 357.568 380.11L357.281 376.776C357.281 376.549 357.504 376.348 357.814 376.348H389.73C389.829 376.339 389.929 376.361 390.018 376.412C390.108 376.462 390.185 376.54 390.241 376.638Z" fill="black"/>
<path d="M385.892 380.84H386.745C386.915 380.84 387.043 380.739 387.033 380.613L386.627 376.285C386.627 376.159 386.468 376.059 386.297 376.059H385.444C385.274 376.059 385.146 376.159 385.156 376.285L385.561 380.613C385.529 380.739 385.679 380.84 385.892 380.84Z" fill="#3FCF4B"/>
<path opacity="0.4" d="M385.892 380.84H386.745C386.915 380.84 387.043 380.739 387.033 380.613L386.627 376.285C386.627 376.159 386.468 376.059 386.297 376.059H385.444C385.274 376.059 385.146 376.159 385.156 376.285L385.561 380.613C385.529 380.739 385.679 380.84 385.892 380.84Z" fill="black"/>
<path d="M360.5 380.84H361.353C361.523 380.84 361.662 380.739 361.651 380.613L361.246 376.285C361.246 376.159 361.086 376.059 360.916 376.059H360.063C359.892 376.059 359.764 376.159 359.775 376.285L360.169 380.613C360.18 380.739 360.308 380.84 360.5 380.84Z" fill="#3FCF4B"/>
<path opacity="0.4" d="M360.5 380.84H361.353C361.523 380.84 361.662 380.739 361.651 380.613L361.246 376.285C361.246 376.159 361.086 376.059 360.916 376.059H360.063C359.892 376.059 359.764 376.159 359.775 376.285L360.169 380.613C360.18 380.739 360.308 380.84 360.5 380.84Z" fill="black"/>
<path d="M373.1 380.84H373.953C374.123 380.84 374.251 380.739 374.241 380.613L373.846 376.285C373.846 376.159 373.686 376.059 373.516 376.059H372.663C372.492 376.059 372.354 376.159 372.364 376.285L372.769 380.613C372.801 380.739 372.951 380.84 373.1 380.84Z" fill="#3FCF4B"/>
<path opacity="0.4" d="M373.1 380.84H373.953C374.123 380.84 374.251 380.739 374.241 380.613L373.846 376.285C373.846 376.159 373.686 376.059 373.516 376.059H372.663C372.492 376.059 372.354 376.159 372.364 376.285L372.769 380.613C372.801 380.739 372.951 380.84 373.1 380.84Z" fill="black"/>
<path d="M399.025 334.312C399.377 337.458 399.654 340.603 399.974 343.749L400.784 353.197C401.072 356.343 401.274 359.488 401.509 362.646L401.882 367.39L401.967 368.573C401.967 368.698 401.967 369.189 402.021 369.529C402.037 369.893 402.037 370.259 402.021 370.623C401.892 371.975 401.529 373.281 400.955 374.461C400.029 376.281 398.804 377.864 397.351 379.116C396.133 380.198 394.842 381.161 393.493 381.997C390.969 383.528 388.35 384.828 385.657 385.885C380.444 387.949 375.096 389.506 369.667 390.54L368.793 386.024C371.277 385.055 373.814 384.061 376.255 382.954C378.696 381.846 381.17 380.752 383.525 379.481C385.847 378.281 388.098 376.898 390.263 375.342C391.255 374.622 392.199 373.814 393.087 372.926C393.78 372.263 394.355 371.446 394.782 370.523C394.875 370.321 394.93 370.098 394.942 369.868L394.761 368.371L394.196 363.666C393.823 360.533 393.407 357.375 393.13 354.254L392.117 344.831C391.83 341.673 391.488 338.54 391.243 335.382L399.025 334.312Z" fill="#FFB573"/>
<path d="M395.347 323.278C398.545 324.41 402.298 337.244 402.298 337.244L391.222 350.669C391.222 350.669 385.551 336.829 386.883 332.06C388.29 327.04 391.744 321.995 395.347 323.278Z" fill="#263238"/>
</g>
<path d="M369.358 208.028H229.392C228.165 208.028 226.989 207.453 226.121 206.429C225.253 205.405 224.766 204.016 224.766 202.568C224.766 201.851 224.886 201.142 225.118 200.48C225.351 199.818 225.692 199.217 226.122 198.711C226.551 198.205 227.062 197.804 227.623 197.531C228.184 197.258 228.785 197.118 229.392 197.12H369.358C370.582 197.12 371.756 197.694 372.622 198.715C373.488 199.737 373.974 201.123 373.974 202.568C373.975 203.284 373.857 203.994 373.626 204.656C373.394 205.319 373.055 205.921 372.626 206.428C372.197 206.935 371.688 207.338 371.127 207.612C370.566 207.887 369.965 208.028 369.358 208.028Z" fill="white"/>
<path d="M336.856 230.965H229.392C228.785 230.967 228.184 230.827 227.623 230.554C227.062 230.281 226.551 229.88 226.122 229.374C225.692 228.868 225.351 228.266 225.118 227.605C224.886 226.943 224.766 226.233 224.766 225.517C224.766 224.069 225.253 222.68 226.121 221.656C226.989 220.632 228.165 220.056 229.392 220.056H336.856C338.083 220.056 339.26 220.632 340.127 221.656C340.995 222.68 341.482 224.069 341.482 225.517C341.482 226.233 341.363 226.943 341.13 227.605C340.897 228.266 340.556 228.868 340.127 229.374C339.697 229.88 339.187 230.281 338.626 230.554C338.064 230.827 337.463 230.967 336.856 230.965Z" fill="white"/>
<path d="M250.211 314.118H303.607C304.834 314.118 306.011 313.543 306.879 312.519C307.746 311.495 308.234 310.106 308.234 308.658C308.234 307.941 308.114 307.232 307.882 306.57C307.649 305.908 307.308 305.307 306.878 304.801C306.448 304.295 305.938 303.894 305.377 303.621C304.816 303.348 304.214 303.208 303.607 303.21H250.211C248.987 303.21 247.813 303.784 246.948 304.805C246.082 305.827 245.596 307.213 245.596 308.658C245.594 309.374 245.713 310.084 245.944 310.746C246.175 311.409 246.515 312.011 246.944 312.518C247.373 313.025 247.882 313.428 248.443 313.702C249.003 313.977 249.604 314.118 250.211 314.118Z" fill="white"/>
<path d="M190.878 314.118H227.719C228.326 314.118 228.927 313.977 229.488 313.702C230.048 313.428 230.558 313.025 230.987 312.518C231.415 312.011 231.755 311.409 231.986 310.746C232.218 310.084 232.336 309.374 232.335 308.658C232.335 307.213 231.848 305.827 230.983 304.805C230.117 303.784 228.943 303.21 227.719 303.21H190.878C189.654 303.21 188.48 303.784 187.614 304.805C186.748 305.827 186.262 307.213 186.262 308.658C186.261 309.374 186.379 310.084 186.61 310.746C186.842 311.409 187.182 312.011 187.61 312.518C188.039 313.025 188.548 313.428 189.109 313.702C189.67 313.977 190.271 314.118 190.878 314.118Z" fill="white"/>
<path d="M163.642 337.055H303.607C304.214 337.057 304.816 336.917 305.377 336.644C305.938 336.371 306.448 335.97 306.878 335.464C307.308 334.958 307.649 334.357 307.882 333.695C308.114 333.033 308.234 332.323 308.234 331.607C308.234 330.159 307.746 328.77 306.879 327.746C306.011 326.722 304.834 326.146 303.607 326.146H163.642C163.035 326.146 162.433 326.288 161.873 326.562C161.312 326.837 160.803 327.239 160.374 327.747C159.945 328.254 159.605 328.856 159.374 329.518C159.143 330.181 159.024 330.891 159.026 331.607C159.026 333.052 159.512 334.438 160.378 335.459C161.243 336.481 162.417 337.055 163.642 337.055Z" fill="white"/>
<path d="M106.419 50.3273C106.419 51.3655 106.158 52.3804 105.669 53.2435C105.18 54.1066 104.485 54.779 103.672 55.1758C102.859 55.5725 101.965 55.6757 101.102 55.4722C100.24 55.2687 99.4478 54.7678 98.8265 54.0328C98.2053 53.2978 97.7828 52.3617 97.6124 51.3432C97.4421 50.3246 97.5317 49.2693 97.8698 48.3108C98.2078 47.3523 98.7793 46.5338 99.5117 45.9588C100.244 45.3838 101.105 45.0782 101.984 45.0807C103.161 45.084 104.289 45.6383 105.121 46.6218C105.952 47.6054 106.419 48.938 106.419 50.3273Z" fill="white"/>
<path d="M117.089 55.5739C119.544 55.5739 121.535 53.2249 121.535 50.3273C121.535 47.4297 119.544 45.0807 117.089 45.0807C114.634 45.0807 112.644 47.4297 112.644 50.3273C112.644 53.2249 114.634 55.5739 117.089 55.5739Z" fill="white"/>
<path d="M132.195 55.5739C134.65 55.5739 136.64 53.2249 136.64 50.3273C136.64 47.4297 134.65 45.0807 132.195 45.0807C129.74 45.0807 127.749 47.4297 127.749 50.3273C127.749 53.2249 129.74 55.5739 132.195 55.5739Z" fill="white"/>
</svg>
