<svg width="231" height="260" viewBox="0 0 231 260" fill="none" xmlns="http://www.w3.org/2000/svg">
<path d="M111.216 260C161.225 260 201.764 251.893 201.764 241.892C201.764 231.891 161.225 223.783 111.216 223.783C61.2082 223.783 20.6686 231.891 20.6686 241.892C20.6686 251.893 61.2082 260 111.216 260Z" fill="#3FCF4B"/>
<path opacity="0.5" d="M111.216 260C161.225 260 201.764 251.893 201.764 241.892C201.764 231.891 161.225 223.783 111.216 223.783C61.2082 223.783 20.6686 231.891 20.6686 241.892C20.6686 251.893 61.2082 260 111.216 260Z" fill="#3FCF4B"/>
<path d="M207.343 1H142.056C139.825 1 138.017 2.80796 138.017 5.03819V77.009C138.017 79.2393 139.825 81.0472 142.056 81.0472H207.343C209.573 81.0472 211.381 79.2393 211.381 77.009V5.03819C211.381 2.80796 209.573 1 207.343 1Z" fill="white" stroke="#263238" stroke-width="0.462767" stroke-linecap="round" stroke-linejoin="round"/>
<path d="M142.055 1.00005H207.336C208.402 1.00005 209.424 1.42338 210.177 2.17692C210.931 2.93046 211.354 3.95248 211.354 5.01815V9.21036H138.017V5.03824C138.015 4.50719 138.117 3.98088 138.319 3.48975C138.521 2.99861 138.819 2.55238 139.194 2.17687C139.57 1.80136 140.016 1.50401 140.507 1.30202C140.998 1.10002 141.524 0.997389 142.055 1.00005Z" fill="#263238" stroke="#263238" stroke-width="0.462767" stroke-linecap="round" stroke-linejoin="round"/>
<path d="M142.015 43.7395H171.535" stroke="#263238" stroke-width="0.462767" stroke-linecap="round" stroke-linejoin="round"/>
<path d="M142.015 47.5498H171.535" stroke="#263238" stroke-width="0.462767" stroke-linecap="round" stroke-linejoin="round"/>
<path d="M142.015 51.3601H171.535" stroke="#263238" stroke-width="0.462767" stroke-linecap="round" stroke-linejoin="round"/>
<path d="M142.015 55.1707H171.535" stroke="#263238" stroke-width="0.462767" stroke-linecap="round" stroke-linejoin="round"/>
<path d="M142.015 58.981H171.535" stroke="#263238" stroke-width="0.462767" stroke-linecap="round" stroke-linejoin="round"/>
<path d="M142.015 62.7986H171.535" stroke="#263238" stroke-width="0.462767" stroke-linecap="round" stroke-linejoin="round"/>
<path d="M142.015 66.6089H171.535" stroke="#263238" stroke-width="0.462767" stroke-linecap="round" stroke-linejoin="round"/>
<path d="M142.015 70.4194H171.535" stroke="#263238" stroke-width="0.462767" stroke-linecap="round" stroke-linejoin="round"/>
<path d="M142.015 74.2295H171.535" stroke="#263238" stroke-width="0.462767" stroke-linecap="round" stroke-linejoin="round"/>
<path d="M176.725 43.7395H206.245" stroke="#263238" stroke-width="0.462767" stroke-linecap="round" stroke-linejoin="round"/>
<path d="M176.725 47.5498H206.245" stroke="#263238" stroke-width="0.462767" stroke-linecap="round" stroke-linejoin="round"/>
<path d="M176.725 51.3601H206.245" stroke="#263238" stroke-width="0.462767" stroke-linecap="round" stroke-linejoin="round"/>
<path d="M176.725 55.1707H206.245" stroke="#263238" stroke-width="0.462767" stroke-linecap="round" stroke-linejoin="round"/>
<path d="M176.725 58.981H206.245" stroke="#263238" stroke-width="0.462767" stroke-linecap="round" stroke-linejoin="round"/>
<path d="M176.725 62.7986H206.245" stroke="#263238" stroke-width="0.462767" stroke-linecap="round" stroke-linejoin="round"/>
<path d="M176.725 66.6089H206.245" stroke="#263238" stroke-width="0.462767" stroke-linecap="round" stroke-linejoin="round"/>
<path d="M176.725 70.4194H206.245" stroke="#263238" stroke-width="0.462767" stroke-linecap="round" stroke-linejoin="round"/>
<path d="M176.725 74.2295H206.245" stroke="#263238" stroke-width="0.462767" stroke-linecap="round" stroke-linejoin="round"/>
<path d="M161.757 19.6106C161.903 19.1581 161.98 18.6863 161.985 18.211C161.985 16.4765 160.224 16.376 158.496 16.376H158.061V15.9675H165.601V16.376C163.639 16.376 162.923 17.6283 162.313 19.4834L158.295 31.4774C157.994 32.3681 157.739 33.031 156.795 33.031H156.715L153.179 21.5728L149.891 31.5042C149.582 32.3949 149.328 33.0578 148.384 33.0578H148.31L143.167 16.376H141.359V15.9675H147.975V16.376H146.093L149.911 29.5152H150.065L152.944 20.7892L151.605 16.4095H149.797V15.9675H156.42V16.376H154.538L158.355 29.5152H158.503L161.757 19.6106Z" fill="#3FCF4B"/>
<path d="M206.452 12.1704H176.075V39.6274H206.452V12.1704Z" fill="#3FCF4B" stroke="#263238" stroke-width="0.925533" stroke-linecap="round" stroke-linejoin="round"/>
<path d="M206.452 23.6484C205.433 23.7065 204.421 23.8476 203.425 24.0703C198.811 25.0749 197.606 31.698 192.389 31.698C187.768 31.698 187.373 25.4767 180.75 24.6731C179.138 24.4192 177.488 24.7115 176.062 25.5035V39.6271H206.452V23.6484Z" fill="#263238" stroke="#263238" stroke-width="0.462767" stroke-linecap="round" stroke-linejoin="round"/>
<path d="M186.168 18.4519C186.169 19.128 185.97 19.7892 185.595 20.3519C185.22 20.9146 184.687 21.3534 184.062 21.6127C183.438 21.872 182.751 21.9403 182.088 21.8087C181.424 21.6771 180.815 21.3517 180.337 20.8736C179.859 20.3956 179.534 19.7864 179.402 19.1233C179.271 18.4601 179.339 17.7728 179.598 17.1485C179.857 16.5241 180.296 15.9908 180.859 15.616C181.422 15.2412 182.083 15.0419 182.759 15.0432C183.663 15.0432 184.53 15.4023 185.169 16.0416C185.808 16.6809 186.168 17.5479 186.168 18.4519Z" fill="white" stroke="#263238" stroke-width="0.462767" stroke-linecap="round" stroke-linejoin="round"/>
<path d="M207.838 3.4043H140.221V6.00936H207.838V3.4043Z" fill="white" stroke="#263238" stroke-width="0.462767" stroke-linecap="round" stroke-linejoin="round"/>
<path d="M203.619 97.019H174.347C173.196 97.019 172.093 97.4762 171.279 98.2901C170.465 99.1039 170.008 100.208 170.008 101.359V117.016C170.008 118.167 170.465 119.27 171.279 120.084C172.093 120.898 173.196 121.355 174.347 121.355H175.245C174.334 123.364 172.566 126.445 169.773 128.273C169.773 128.273 175.714 127.858 181.901 121.355H203.606C204.757 121.355 205.861 120.898 206.674 120.084C207.488 119.27 207.945 118.167 207.945 117.016V101.359C207.945 100.21 207.49 99.1082 206.679 98.2948C205.868 97.4813 204.768 97.0226 203.619 97.019Z" fill="#263238" stroke="#263238" stroke-width="0.462767" stroke-linecap="round" stroke-linejoin="round"/>
<path d="M183.951 108.631C183.952 108.188 183.822 107.755 183.577 107.386C183.331 107.017 182.982 106.73 182.573 106.559C182.164 106.389 181.714 106.345 181.279 106.431C180.845 106.517 180.446 106.73 180.132 107.043C179.819 107.356 179.606 107.755 179.52 108.19C179.434 108.624 179.479 109.075 179.649 109.484C179.819 109.893 180.107 110.242 180.476 110.487C180.844 110.733 181.278 110.863 181.721 110.861C182.312 110.86 182.878 110.624 183.296 110.206C183.713 109.788 183.949 109.222 183.951 108.631Z" fill="#3FCF4B" stroke="#263238" stroke-width="0.462767" stroke-linecap="round" stroke-linejoin="round"/>
<path d="M191.538 108.632C191.538 108.191 191.408 107.759 191.163 107.393C190.917 107.026 190.569 106.74 190.162 106.571C189.754 106.403 189.306 106.358 188.873 106.444C188.441 106.531 188.043 106.743 187.731 107.055C187.42 107.367 187.207 107.764 187.121 108.197C187.035 108.629 187.079 109.078 187.248 109.485C187.417 109.893 187.703 110.241 188.069 110.486C188.436 110.731 188.867 110.862 189.308 110.862C189.899 110.86 190.465 110.624 190.883 110.207C191.301 109.789 191.537 109.223 191.538 108.632Z" fill="#3FCF4B" stroke="#263238" stroke-width="0.462767" stroke-linecap="round" stroke-linejoin="round"/>
<path d="M199.133 108.631C199.134 108.189 199.004 107.756 198.759 107.387C198.514 107.018 198.165 106.73 197.756 106.56C197.348 106.39 196.898 106.345 196.464 106.43C196.029 106.516 195.63 106.728 195.317 107.041C195.003 107.353 194.789 107.752 194.703 108.186C194.616 108.62 194.66 109.07 194.829 109.479C194.998 109.888 195.284 110.238 195.652 110.484C196.02 110.73 196.453 110.861 196.896 110.861C197.487 110.86 198.054 110.624 198.473 110.207C198.892 109.789 199.129 109.223 199.133 108.631Z" fill="#3FCF4B" stroke="#263238" stroke-width="0.462767" stroke-linecap="round" stroke-linejoin="round"/>
<path d="M42.6477 10.4961H90.8649C92.0123 10.4961 93.1127 10.9519 93.924 11.7632C94.7353 12.5745 95.1911 13.6749 95.1911 14.8222V48.2461H38.3417V14.8222C38.3417 13.6784 38.7947 12.581 39.6017 11.7703C40.4086 10.9595 41.5038 10.5014 42.6477 10.4961Z" fill="#3FCF4B" stroke="#263238" stroke-width="0.462767" stroke-linecap="round" stroke-linejoin="round"/>
<path d="M95.1643 42.8552H38.3417V48.2261H95.1643V42.8552Z" fill="#263238" stroke="#263238" stroke-width="0.462767" stroke-linecap="round" stroke-linejoin="round"/>
<path d="M92.5661 44.6899H40.9469V46.3909H92.5661V44.6899Z" fill="white" stroke="#263238" stroke-width="0.462767" stroke-linecap="round" stroke-linejoin="round"/>
<path d="M66.7564 35.4754C71.0911 35.4754 74.6051 31.9615 74.6051 27.6268C74.6051 23.2921 71.0911 19.7781 66.7564 19.7781C62.4217 19.7781 58.9077 23.2921 58.9077 27.6268C58.9077 31.9615 62.4217 35.4754 66.7564 35.4754Z" fill="#263238" stroke="#263238" stroke-width="0.462767" stroke-linecap="round" stroke-linejoin="round"/>
<path d="M63.2137 22.7449L71.6852 27.6336L63.2137 32.5222V22.7449Z" fill="white" stroke="#263238" stroke-width="0.462767" stroke-linecap="round" stroke-linejoin="round"/>
<path d="M70.587 61.9746H16.6574C15.6144 61.9746 14.7689 62.8201 14.7689 63.8631V84.4157C14.7689 85.4587 15.6144 86.3042 16.6574 86.3042H70.587C71.63 86.3042 72.4755 85.4587 72.4755 84.4157V63.8631C72.4755 62.8201 71.63 61.9746 70.587 61.9746Z" fill="#263238" stroke="#263238" stroke-width="0.462767" stroke-linecap="round" stroke-linejoin="round"/>
<path d="M21.6398 65.2898L21.9211 65.7586C20.6487 66.4684 19.4634 67.714 19.4634 69.174C19.4471 69.4247 19.481 69.6763 19.5632 69.9138C19.6453 70.1513 19.7741 70.37 19.9418 70.5571C20.1096 70.7442 20.3131 70.8959 20.5402 71.0034C20.7674 71.1109 21.0137 71.172 21.2648 71.183C21.4523 71.183 21.5796 71.0893 21.5796 70.9017C21.5796 70.7142 21.4858 70.654 21.2983 70.6205C21.0454 70.552 20.8251 70.3958 20.6767 70.1799C20.5283 69.9641 20.4614 69.7025 20.488 69.4418C20.4928 69.2339 20.54 69.0291 20.6265 68.84C20.713 68.6508 20.837 68.4812 20.9911 68.3415C21.1452 68.2018 21.3261 68.095 21.5229 68.0274C21.7196 67.9598 21.928 67.9329 22.1354 67.9484C22.361 67.9492 22.5842 67.9952 22.7918 68.0838C22.9993 68.1723 23.187 68.3016 23.3437 68.4639C23.5004 68.6262 23.623 68.8184 23.7041 69.0289C23.7853 69.2394 23.8235 69.4641 23.8163 69.6896C23.813 69.973 23.7527 70.2529 23.6388 70.5125C23.525 70.772 23.36 71.006 23.1537 71.2004C22.9475 71.3948 22.7041 71.5456 22.4383 71.6439C22.1724 71.7422 21.8895 71.7858 21.6063 71.7723C21.2544 71.7951 20.9015 71.7437 20.5707 71.6214C20.2398 71.4991 19.9384 71.3087 19.6858 71.0625C19.4333 70.8163 19.2353 70.5197 19.1047 70.1921C18.9741 69.8644 18.9137 69.513 18.9276 69.1606C18.9075 67.4663 20.2134 66.1001 21.6398 65.2898ZM27.3924 65.2898L27.6737 65.7586C26.3946 66.4684 25.2159 67.714 25.2159 69.174C25.1987 69.4249 25.232 69.6768 25.3138 69.9147C25.3956 70.1526 25.5243 70.3717 25.6923 70.559C25.8602 70.7463 26.064 70.898 26.2916 71.0052C26.5192 71.1124 26.766 71.1729 27.0174 71.183C27.2049 71.183 27.3321 71.0893 27.3321 70.9017C27.3321 70.7142 27.2384 70.654 27.0509 70.6205C26.798 70.552 26.5777 70.3958 26.4293 70.1799C26.2808 69.9641 26.214 69.7025 26.2405 69.4418C26.2445 69.2336 26.2909 69.0284 26.3771 68.8387C26.4633 68.6491 26.5874 68.4792 26.7417 68.3393C26.896 68.1994 27.0773 68.0926 27.2744 68.0253C27.4715 67.9581 27.6803 67.932 27.888 67.9484C28.1136 67.9492 28.3368 67.9952 28.5443 68.0838C28.7519 68.1723 28.9395 68.3016 29.0963 68.4639C29.253 68.6262 29.3755 68.8184 29.4567 69.0289C29.5379 69.2394 29.576 69.4641 29.5689 69.6896C29.5647 69.9728 29.5037 70.2522 29.3895 70.5113C29.2754 70.7705 29.1104 71.0041 28.9043 71.1983C28.6982 71.3925 28.4553 71.5434 28.1898 71.642C27.9243 71.7406 27.6418 71.7849 27.3589 71.7723C27.0072 71.7941 26.6548 71.7419 26.3244 71.6193C25.9941 71.4966 25.693 71.3061 25.4407 71.0601C25.1884 70.8141 24.9904 70.518 24.8594 70.1908C24.7284 69.8637 24.6674 69.5127 24.6802 69.1606C24.6534 67.4663 25.9593 66.1001 27.3924 65.2898Z" fill="#3FCF4B"/>
<path d="M32.8971 70.2454H65.7383" stroke="white" stroke-width="0.462767" stroke-linecap="round" stroke-linejoin="round"/>
<path d="M32.8971 73.0645H65.7383" stroke="white" stroke-width="0.462767" stroke-linecap="round" stroke-linejoin="round"/>
<path d="M32.8971 75.884H65.7383" stroke="white" stroke-width="0.462767" stroke-linecap="round" stroke-linejoin="round"/>
<path d="M32.8971 78.7104H65.7383" stroke="white" stroke-width="0.462767" stroke-linecap="round" stroke-linejoin="round"/>
<path d="M59.9278 124.027C66.7063 122.921 71.3045 116.529 70.1981 109.75C69.0917 102.972 62.6997 98.3735 55.9212 99.4799C49.1427 100.586 44.5445 106.978 45.6509 113.757C46.7572 120.535 53.1492 125.133 59.9278 124.027Z" fill="#263238" stroke="#263238" stroke-width="0.462767" stroke-linecap="round" stroke-linejoin="round"/>
<path d="M65.8124 118.692C69.6368 114.338 69.2069 107.707 64.8521 103.883C60.4974 100.058 53.8669 100.488 50.0426 104.843C46.2182 109.198 46.6481 115.828 51.0028 119.653C55.3576 123.477 61.988 123.047 65.8124 118.692Z" fill="white" stroke="#263238" stroke-width="0.462767" stroke-linecap="round" stroke-linejoin="round"/>
<path d="M57.9299 104.165V111.752H63.0597" stroke="#263238" stroke-width="0.925533" stroke-linecap="round" stroke-linejoin="round"/>
<path d="M135.734 111.779C135.734 111.779 142.866 127.001 142.866 127.804C142.866 128.608 136.537 132.05 135.332 132.773C134.397 133.306 133.433 133.787 132.445 134.213L133.169 141.265C133.169 141.265 144.064 138.781 148.632 136.296C153.199 133.811 153.038 131.005 151.98 126.84C150.922 122.675 143.884 106.575 143.884 106.575L135.734 111.779Z" fill="white"/>
<mask id="mask0_142_2957" style="mask-type:luminance" maskUnits="userSpaceOnUse" x="132" y="106" width="21" height="36">
<path d="M135.734 111.779C135.734 111.779 142.866 127.001 142.866 127.804C142.866 128.608 136.537 132.05 135.332 132.773C134.397 133.306 133.433 133.787 132.445 134.213L133.169 141.265C133.169 141.265 144.064 138.781 148.632 136.296C153.199 133.811 153.038 131.005 151.98 126.84C150.922 122.675 143.884 106.575 143.884 106.575L135.734 111.779Z" fill="white"/>
</mask>
<g mask="url(#mask0_142_2957)">
<g style="mix-blend-mode:multiply" opacity="0.5">
<path d="M148.612 136.296C153.179 133.811 153.018 131.005 151.96 126.84C150.902 122.675 143.864 106.575 143.864 106.575L142.725 107.299L142.364 107.968C142.364 107.968 148.933 124.094 149.328 129.465C149.596 133.075 142.33 137.575 137.529 140.147C141.091 139.202 145.94 137.749 148.612 136.296Z" fill="#3FCF4B"/>
</g>
</g>
<path d="M135.734 111.779C135.734 111.779 142.866 127.001 142.866 127.804C142.866 128.608 136.537 132.05 135.332 132.773C134.397 133.306 133.433 133.787 132.445 134.213L133.169 141.265C133.169 141.265 144.064 138.781 148.632 136.296C153.199 133.811 153.038 131.005 151.98 126.84C150.922 122.675 143.884 106.575 143.884 106.575L135.734 111.779Z" stroke="#263238" stroke-width="0.462767" stroke-linecap="round" stroke-linejoin="round"/>
<path d="M84.2752 108.417C84.2752 108.417 79.0717 127.483 78.9177 130.851C78.7637 134.22 89.2509 140.863 89.6326 141.265C90.0143 141.667 89.0366 129.679 89.0366 129.679L92.5926 112.268L84.2752 108.417Z" fill="white"/>
<mask id="mask1_142_2957" style="mask-type:luminance" maskUnits="userSpaceOnUse" x="78" y="108" width="15" height="34">
<path d="M84.2752 108.417C84.2752 108.417 79.0717 127.483 78.9177 130.851C78.7637 134.22 89.2509 140.863 89.6326 141.265C90.0143 141.667 89.0366 129.679 89.0366 129.679L92.5926 112.268L84.2752 108.417Z" fill="white"/>
</mask>
<g mask="url(#mask1_142_2957)">
<g style="mix-blend-mode:multiply" opacity="0.5">
<path d="M86.6592 109.977L86.5454 109.462L84.2752 108.417C84.2752 108.417 79.0717 127.483 78.9177 130.851C78.7637 134.22 89.2509 140.863 89.6326 141.265C89.7867 141.426 89.7264 139.631 89.5991 137.414C86.4784 134.769 81.9982 131.046 81.4759 129.479" fill="#3FCF4B"/>
</g>
</g>
<path d="M84.2752 108.417C84.2752 108.417 79.0717 127.483 78.9177 130.851C78.7637 134.22 89.2509 140.863 89.6326 141.265C90.0143 141.667 89.0366 129.679 89.0366 129.679L92.5926 112.268L84.2752 108.417Z" stroke="#263238" stroke-width="0.462767" stroke-linecap="round" stroke-linejoin="round"/>
<path d="M108.712 89.2645C108.712 89.2645 106.703 90.711 102.785 90.8717C98.8675 91.0324 98.68 88.193 93.8114 88.193C87.9115 88.193 80.5115 106.857 80.5115 106.857C80.5115 106.857 84.1947 110.467 87.8043 111.987C89.8011 112.862 91.9005 113.48 94.0525 113.828L94.615 126.09H134.354L134.829 113.828L147.252 105.772C147.252 105.772 141.158 94.8764 138.198 90.7914C135.238 86.7063 130.262 88.2265 128.742 89.2645C127.222 90.3025 122.715 90.5503 121.054 90.3092C118.887 89.8297 116.746 89.2419 114.639 88.5479C114.639 88.5479 112.08 86.4183 108.712 89.2645Z" fill="#3FCF4B" stroke="#263238" stroke-width="0.462767" stroke-linecap="round" stroke-linejoin="round"/>
<path d="M94.4543 93.5903L94.2936 113.942" stroke="#263238" stroke-width="0.231383" stroke-linecap="round" stroke-linejoin="round"/>
<path d="M95.8942 95.4387C95.8942 95.4387 96.4567 105.37 98.5729 110.902" stroke="#263238" stroke-width="0.231383" stroke-linecap="round" stroke-linejoin="round"/>
<path d="M98.9413 111.698C99.3984 113.048 99.9604 114.361 100.622 115.623" stroke="#263238" stroke-width="0.231383" stroke-linecap="round" stroke-linejoin="round"/>
<path d="M97.1732 94.3137C97.9335 97.9249 99.0068 101.463 100.381 104.888" stroke="#263238" stroke-width="0.231383" stroke-linecap="round" stroke-linejoin="round"/>
<path d="M131.715 96.075C131.715 96.075 129.793 103.93 128.106 107.46" stroke="#263238" stroke-width="0.231383" stroke-linecap="round" stroke-linejoin="round"/>
<path d="M134.83 113.862L134.749 97.9968" stroke="#263238" stroke-width="0.231383" stroke-linecap="round" stroke-linejoin="round"/>
<path d="M133.952 98.3184C133.952 98.3184 132.506 108.364 128.983 113.621" stroke="#263238" stroke-width="0.231383" stroke-linecap="round" stroke-linejoin="round"/>
<path d="M132.191 111.618C132.191 111.618 130.584 114.665 129.465 116.266" stroke="#263238" stroke-width="0.231383" stroke-linecap="round" stroke-linejoin="round"/>
<path d="M106.469 90.4695C106.469 90.4695 107.594 97.3605 109.194 100.883C110.795 104.406 113.601 105.129 116.005 104.091C118.409 103.053 120.17 97.9164 120.023 91.3669" stroke="#263238" stroke-width="0.231383" stroke-linecap="round" stroke-linejoin="round"/>
<path d="M100.783 76.0447C100.783 76.0447 99.2561 73.4062 98.0573 74.7657C96.8586 76.1251 99.0217 79.2525 100.22 80.2905C101.419 81.3286 102.303 80.6923 102.229 79.574C102.156 78.4556 100.783 76.0447 100.783 76.0447Z" fill="#3FCF4B" stroke="#263238" stroke-width="0.462767" stroke-linecap="round" stroke-linejoin="round"/>
<path opacity="0.5" d="M100.783 76.0447C100.783 76.0447 99.2561 73.4062 98.0573 74.7657C96.8586 76.1251 99.0217 79.2525 100.22 80.2905C101.419 81.3286 102.303 80.6923 102.229 79.574C102.156 78.4556 100.783 76.0447 100.783 76.0447Z" fill="white"/>
<path d="M100.783 76.0447C100.783 76.0447 99.2561 73.4062 98.0573 74.7657C96.8586 76.1251 99.0217 79.2525 100.22 80.2905C101.419 81.3286 102.303 80.6923 102.229 79.574C102.156 78.4556 100.783 76.0447 100.783 76.0447Z" stroke="#263238" stroke-width="0.462767" stroke-linecap="round" stroke-linejoin="round"/>
<path d="M125.019 76.0447C125.019 76.0447 126.539 73.4062 127.744 74.7657C128.95 76.1251 126.78 79.2525 125.581 80.2905C124.383 81.3286 123.492 80.6923 123.572 79.574C123.653 78.4556 125.019 76.0447 125.019 76.0447Z" fill="#3FCF4B" stroke="#263238" stroke-width="0.462767" stroke-linecap="round" stroke-linejoin="round"/>
<path opacity="0.5" d="M125.019 76.0447C125.019 76.0447 126.539 73.4062 127.744 74.7657C128.95 76.1251 126.78 79.2525 125.581 80.2905C124.383 81.3286 123.492 80.6923 123.572 79.574C123.653 78.4556 125.019 76.0447 125.019 76.0447Z" fill="white"/>
<path d="M125.019 76.0447C125.019 76.0447 126.539 73.4062 127.744 74.7657C128.95 76.1251 126.78 79.2525 125.581 80.2905C124.383 81.3286 123.492 80.6923 123.572 79.574C123.653 78.4556 125.019 76.0447 125.019 76.0447Z" stroke="#263238" stroke-width="0.462767" stroke-linecap="round" stroke-linejoin="round"/>
<path d="M107.989 88.7085C108.745 92.128 109.709 95.4983 110.875 98.8006C112.321 102.404 115.04 102.404 116.165 100.08C117.291 97.7559 118.007 89.0969 118.007 89.0969C118.007 89.0969 110.473 90.1483 107.989 88.7085Z" fill="white" stroke="#263238" stroke-width="0.462767" stroke-linecap="round" stroke-linejoin="round"/>
<path d="M100.944 76.9287C100.944 76.9287 103.026 84.2952 106.971 88.6281C110.915 92.9609 112.328 93.9855 114.424 93.6708C116.52 93.356 118.751 90.6304 121.871 84.9649C124.992 79.2994 125.22 74.9531 125.481 74.5513C125.742 74.1495 124.811 66.1401 120.351 62.6912C115.891 59.2424 110.895 57.7289 106.569 61.4925C102.243 65.2561 99.4971 71.3971 100.944 76.9287Z" fill="white"/>
<mask id="mask2_142_2957" style="mask-type:luminance" maskUnits="userSpaceOnUse" x="100" y="59" width="26" height="35">
<path d="M100.944 76.9287C100.944 76.9287 103.026 84.2952 106.971 88.6281C110.915 92.9609 112.328 93.9855 114.424 93.6708C116.52 93.356 118.751 90.6304 121.871 84.9649C124.992 79.2994 125.22 74.9531 125.481 74.5513C125.742 74.1495 124.811 66.1401 120.351 62.6912C115.891 59.2424 110.895 57.7289 106.569 61.4925C102.243 65.2561 99.4971 71.3971 100.944 76.9287Z" fill="white"/>
</mask>
<g mask="url(#mask2_142_2957)">
<g style="mix-blend-mode:multiply" opacity="0.5">
<path d="M120.331 62.6644C115.844 59.2222 110.875 57.702 106.549 61.4656C102.223 65.2292 99.4971 71.397 100.944 76.9286C100.944 76.9286 101.339 78.3483 102.122 80.277C102.12 80.0301 102.154 79.7842 102.223 79.5471C103.18 76.5134 106.006 70.6403 115.516 73.3324C123.07 75.462 122.146 82.1053 121.443 85.6479L121.851 84.9112C124.979 79.2256 125.2 74.8995 125.461 74.4976C125.722 74.0958 124.818 66.1132 120.331 62.6644Z" fill="#3FCF4B"/>
</g>
</g>
<path d="M100.944 76.9287C100.944 76.9287 103.026 84.2952 106.971 88.6281C110.915 92.9609 112.328 93.9855 114.424 93.6708C116.52 93.356 118.751 90.6304 121.871 84.9649C124.992 79.2994 125.22 74.9531 125.481 74.5513C125.742 74.1495 124.811 66.1401 120.351 62.6912C115.891 59.2424 110.895 57.7289 106.569 61.4925C102.243 65.2561 99.4971 71.3971 100.944 76.9287Z" stroke="#263238" stroke-width="0.462767" stroke-linecap="round" stroke-linejoin="round"/>
<path d="M114.404 80.7727C114.156 82.3369 114.021 83.917 114.002 85.5007C114.083 87.1012 114.565 87.5834 113.841 87.7441C113.118 87.9048 112.321 86.7798 112.321 86.7798" stroke="#263238" stroke-width="0.462767" stroke-linecap="round" stroke-linejoin="round"/>
<path d="M106.388 82.0583C106.852 82.3936 107.407 82.5807 107.98 82.5951C108.552 82.6094 109.116 82.4503 109.596 82.1387" stroke="#263238" stroke-width="0.462767" stroke-linecap="round" stroke-linejoin="round"/>
<path d="M116.567 82.0583C117.031 82.3931 117.584 82.5799 118.155 82.5942C118.727 82.6086 119.289 82.4498 119.768 82.1387" stroke="#263238" stroke-width="0.462767" stroke-linecap="round" stroke-linejoin="round"/>
<path d="M111.505 79.3598C111.505 79.3598 109.978 75.5895 104.935 77.3507" stroke="#263238" stroke-width="0.462767" stroke-linecap="round" stroke-linejoin="round"/>
<path d="M115.703 78.8977C115.703 78.8977 116.983 75.2077 121.55 77.3708" stroke="#263238" stroke-width="0.462767" stroke-linecap="round" stroke-linejoin="round"/>
<path d="M112.476 82.3331C112.476 84.3958 110.112 86.0633 107.192 86.0633C104.272 86.0633 101.901 84.3958 101.901 82.3331C101.901 80.2705 104.111 79.4133 107.031 79.4133C109.951 79.4133 112.476 80.2772 112.476 82.3331Z" stroke="#263238" stroke-width="0.462767" stroke-linecap="round" stroke-linejoin="round"/>
<path d="M124.657 82.3331C124.657 84.3958 122.286 86.0633 119.367 86.0633C116.447 86.0633 114.083 84.3958 114.083 82.3331C114.083 80.2705 116.286 79.4133 119.206 79.4133C122.126 79.4133 124.657 80.2772 124.657 82.3331Z" stroke="#263238" stroke-width="0.462767" stroke-linecap="round" stroke-linejoin="round"/>
<path d="M57.133 146.576L56.8048 227.762C56.8048 228.017 56.9064 228.263 57.0873 228.444C57.2681 228.624 57.5134 228.726 57.7692 228.726C58.0186 228.726 58.2582 228.629 58.437 228.455C58.6159 228.281 58.7198 228.044 58.7268 227.795L61.0439 146.69L57.133 146.576Z" fill="white" stroke="#263238" stroke-width="0.462767" stroke-linecap="round" stroke-linejoin="round"/>
<path d="M51.6682 165.555L51.3534 249.486C51.3525 249.613 51.3769 249.739 51.425 249.856C51.4732 249.974 51.5442 250.08 51.6339 250.17C51.7236 250.26 51.8303 250.331 51.9477 250.379C52.0651 250.427 52.1909 250.451 52.3178 250.45C52.5667 250.451 52.8061 250.355 52.9858 250.182C53.1656 250.01 53.2717 249.775 53.2821 249.526L55.5925 165.662L51.6682 165.555Z" fill="white" stroke="#263238" stroke-width="0.462767" stroke-linecap="round" stroke-linejoin="round"/>
<path d="M169.372 146.576L169.7 227.762C169.701 227.888 169.677 228.013 169.629 228.13C169.581 228.247 169.511 228.353 169.422 228.443C169.333 228.533 169.227 228.604 169.11 228.652C168.994 228.701 168.869 228.726 168.742 228.726C168.492 228.726 168.252 228.629 168.072 228.455C167.892 228.282 167.787 228.045 167.778 227.795L165.468 146.69L169.372 146.576Z" fill="white" stroke="#263238" stroke-width="0.462767" stroke-linecap="round" stroke-linejoin="round"/>
<path d="M174.843 165.555L175.171 249.486C175.172 249.613 175.148 249.739 175.1 249.856C175.052 249.974 174.981 250.08 174.891 250.17C174.801 250.26 174.694 250.331 174.577 250.379C174.46 250.427 174.334 250.451 174.207 250.45C173.959 250.451 173.72 250.354 173.541 250.182C173.363 250.009 173.258 249.774 173.249 249.526L170.932 165.662L174.843 165.555Z" fill="white" stroke="#263238" stroke-width="0.462767" stroke-linecap="round" stroke-linejoin="round"/>
<path d="M89.7196 169.043L89.5254 243.539C89.5042 243.725 89.5559 243.912 89.6695 244.06C89.7831 244.209 89.9499 244.308 90.1348 244.336C90.3154 244.311 90.4795 244.218 90.594 244.076C90.7085 243.934 90.7646 243.754 90.7509 243.572L92.2041 169.131L89.7196 169.043Z" fill="white" stroke="#263238" stroke-width="0.462767" stroke-linecap="round" stroke-linejoin="round"/>
<path d="M136.872 166.646L137.053 231.659C137.069 231.816 137.023 231.973 136.926 232.098C136.828 232.223 136.687 232.305 136.531 232.329C136.375 232.305 136.234 232.222 136.138 232.098C136.042 231.973 135.998 231.815 136.015 231.659L134.776 166.7L136.872 166.646Z" fill="white" stroke="#263238" stroke-width="0.462767" stroke-linecap="round" stroke-linejoin="round"/>
<path d="M88.9898 166.646L89.1706 231.659C89.1861 231.816 89.1405 231.973 89.0433 232.098C88.946 232.223 88.8046 232.305 88.6482 232.329C88.4924 232.305 88.3516 232.222 88.2555 232.098C88.1593 231.973 88.1153 231.815 88.1326 231.659L86.8937 166.7L88.9898 166.646Z" fill="white" stroke="#263238" stroke-width="0.462767" stroke-linecap="round" stroke-linejoin="round"/>
<path d="M135.526 169.043L135.734 243.539C135.755 243.725 135.703 243.912 135.59 244.06C135.476 244.209 135.309 244.308 135.124 244.336C134.944 244.309 134.781 244.216 134.667 244.075C134.553 243.933 134.496 243.754 134.508 243.572L133.055 169.131L135.526 169.043Z" fill="white" stroke="#263238" stroke-width="0.462767" stroke-linecap="round" stroke-linejoin="round"/>
<path d="M112.295 174.26C128.753 174.26 142.096 171.211 142.096 167.45C142.096 163.688 128.753 160.639 112.295 160.639C95.8362 160.639 82.4939 163.688 82.4939 167.45C82.4939 171.211 95.8362 174.26 112.295 174.26Z" fill="white" stroke="#263238" stroke-width="0.462767" stroke-linecap="round" stroke-linejoin="round"/>
<path d="M97.7827 225.263C97.7827 225.263 96.2224 227.5 97.3407 228.612C98.4591 229.723 99.5708 229.281 99.4569 230.4C99.3431 231.518 97.5617 235.309 96.0014 239.327C94.441 243.345 97.6756 247.363 100.689 246.251C103.703 245.14 103.368 233.969 103.81 231.96C104.252 229.951 104.593 229.616 104.48 227.721C104.366 225.826 104.259 223.817 102.805 223.589C101.352 223.361 98.4524 224.487 97.7827 225.263Z" fill="white" stroke="#263238" stroke-width="0.462767" stroke-linecap="round" stroke-linejoin="round"/>
<path d="M102.571 243.171C100.562 242.407 97.4813 242.561 95.7468 242.736C96.3295 245.26 98.5595 247.035 100.689 246.251C101.58 245.923 102.162 244.731 102.571 243.171Z" fill="#3FCF4B" stroke="#263238" stroke-width="0.462767" stroke-linecap="round" stroke-linejoin="round"/>
<path d="M94.3271 220.354C94.3271 220.354 97.5617 225.826 98.4524 227.272C99.3431 228.719 102.363 228.277 102.698 226.268C103.033 224.259 101.466 218.68 101.466 218.68L94.7691 220.354H94.3271Z" fill="white" stroke="#263238" stroke-width="0.462767" stroke-linecap="round" stroke-linejoin="round"/>
<path d="M86.6257 211.649C86.6257 211.649 85.7283 213.102 86.177 214.106C86.6257 215.111 87.8512 218.011 88.6348 219.464C89.4183 220.917 92.9877 221.808 97.113 221.138C101.238 220.468 103.589 218.566 103.703 216.892C103.816 215.218 103.033 212.988 102.47 210.309C101.908 207.63 100.461 207.744 98.4523 207.744C96.4433 207.744 88.2999 210.088 86.6257 211.649Z" fill="#3FCF4B" stroke="#263238" stroke-width="0.462767" stroke-linecap="round" stroke-linejoin="round"/>
<path d="M98.6801 178.834C98.7404 176.089 100.328 174.736 100.448 172.854C100.637 170.366 100.431 167.864 99.8386 165.441L96.7849 161.269C87.9986 161.382 81.7036 161.53 81.6032 161.563C81.2683 161.67 81.0406 163.572 80.8196 165.133C80.8196 165.133 77.0895 165.608 77.7592 175.988C77.8529 177.435 81.6166 194.17 81.8911 196.079C83.5653 207.738 87.2955 213.578 87.2955 213.578C87.2955 213.578 87.6303 215.031 91.9833 214.696C96.3362 214.361 100.689 211.461 100.689 211.461C100.689 211.461 98.4524 188.766 98.6801 178.834Z" fill="#263238" stroke="#263238" stroke-width="0.462767" stroke-linecap="round" stroke-linejoin="round"/>
<path d="M80.2169 163.432C80.2169 163.432 75.6027 164.101 72.7767 167.329C69.9506 170.557 72.3481 172.687 77.8395 172.111C83.3309 171.535 89.6661 165.916 89.934 165.615C90.2018 165.313 84.2082 161.496 80.2169 163.432Z" fill="white" stroke="#263238" stroke-width="0.462767" stroke-linecap="round" stroke-linejoin="round"/>
<path d="M88.407 165.44C91.3468 165.592 94.2636 166.04 97.1129 166.78C100.91 167.898 107.607 170.128 109.167 170.128C110.728 170.128 110.286 164.322 110.286 163.21C110.286 162.099 90.1951 161.422 87.7373 161.422C85.2796 161.422 88.407 165.44 88.407 165.44Z" fill="white" stroke="#263238" stroke-width="0.462767" stroke-linecap="round" stroke-linejoin="round"/>
<path d="M110.286 163.211C110.286 163.211 108.498 164.101 107.828 167.45C107.158 170.798 106.268 172.586 107.607 173.477C108.946 174.368 114.752 175.037 115.643 174.147C116.534 173.256 118.992 168.789 119.44 165.889C119.889 162.99 110.286 163.211 110.286 163.211Z" fill="#3FCF4B" stroke="#263238" stroke-width="0.462767" stroke-linecap="round" stroke-linejoin="round"/>
<path d="M117.873 164.322C116.835 165.514 116.006 166.872 115.422 168.34C114.949 169.877 114.575 171.443 114.304 173.028C116.44 173.614 118.529 174.362 120.552 175.265C124.128 176.825 130.155 177.944 135.955 179.283C141.754 180.622 143.321 181.962 145.33 181.962C147.339 181.962 149.797 180.395 152.924 176.604C156.052 172.814 153.366 164.771 150.246 162.313C147.125 159.856 130.376 157.853 128.146 158.523C125.916 159.193 117.873 164.322 117.873 164.322Z" fill="#263238" stroke="#263238" stroke-width="0.462767" stroke-linecap="round" stroke-linejoin="round"/>
<path d="M75.9912 172.171C75.5501 170.168 74.6568 168.291 73.3794 166.686C73.1718 166.88 72.9709 167.081 72.7767 167.302C70.2922 170.128 71.8459 172.138 75.9912 172.171Z" fill="#3FCF4B" stroke="#263238" stroke-width="0.462767" stroke-linecap="round" stroke-linejoin="round"/>
<path d="M98.3384 173.939C98.3384 173.939 96.0347 198.59 91.3335 202.427" stroke="white" stroke-width="0.231383" stroke-linecap="round" stroke-linejoin="round"/>
<path d="M96.7112 197.337C96.7112 197.337 94.8829 205.374 90.088 208.568" stroke="white" stroke-width="0.231383" stroke-linecap="round" stroke-linejoin="round"/>
<path d="M126.358 169.459C126.358 169.459 119.213 169.907 123.9 173.028C128.588 176.149 137.073 178.165 137.073 178.165" stroke="white" stroke-width="0.231383" stroke-linecap="round" stroke-linejoin="round"/>
<path d="M178.232 161.014L175.821 158.844L170.249 146.79C169.985 146.242 169.57 145.78 169.053 145.459C168.536 145.137 167.938 144.97 167.329 144.975H59.1086C58.4987 144.968 57.8995 145.135 57.3811 145.457C56.8628 145.778 56.4469 146.241 56.1821 146.79L49.2374 161.804L48.0923 161.383V164.818L48.1459 164.778C48.2141 165.236 48.4467 165.654 48.8004 165.953C49.154 166.253 49.6045 166.413 50.0678 166.405H176.363C176.851 166.416 177.325 166.238 177.683 165.906C178.042 165.575 178.258 165.118 178.285 164.631L178.232 161.014Z" fill="#263238" stroke="#263238" stroke-width="0.462767" stroke-linecap="round" stroke-linejoin="round"/>
<path d="M176.363 163.264H50.0676C49.7549 163.277 49.4441 163.21 49.1644 163.069C48.8847 162.929 48.6453 162.719 48.4686 162.461C48.2919 162.203 48.1837 161.904 48.1541 161.592C48.1246 161.28 48.1747 160.966 48.2996 160.679L56.1818 143.649C56.4453 143.099 56.861 142.635 57.3796 142.314C57.8982 141.992 58.4981 141.826 59.1083 141.835H167.329C167.938 141.827 168.537 141.994 169.054 142.316C169.571 142.637 169.986 143.1 170.249 143.649L178.131 160.679C178.256 160.966 178.306 161.28 178.277 161.592C178.247 161.904 178.139 162.203 177.962 162.461C177.785 162.719 177.546 162.929 177.266 163.069C176.987 163.21 176.676 163.277 176.363 163.264Z" fill="white" stroke="#263238" stroke-width="0.462767" stroke-linecap="round" stroke-linejoin="round"/>
<g style="mix-blend-mode:multiply" opacity="0.5">
<path d="M56.4633 151.826C56.4633 151.826 53.6038 153.788 55.3918 154.504C57.1799 155.221 77.7324 154.685 80.2371 153.969C82.7417 153.252 85.5945 146.642 85.5945 145.571C85.5945 144.499 81.9916 143.729 80.6657 143.669C79.3397 143.609 61.8208 144.673 61.8208 144.673L56.4633 151.826Z" fill="#3FCF4B"/>
</g>
<g style="mix-blend-mode:multiply" opacity="0.5">
<path d="M158.697 155.221C162.743 155.221 166.023 153.86 166.023 152.181C166.023 150.502 162.743 149.14 158.697 149.14C154.651 149.14 151.371 150.502 151.371 152.181C151.371 153.86 154.651 155.221 158.697 155.221Z" fill="#3FCF4B"/>
</g>
<g style="mix-blend-mode:multiply" opacity="0.5">
<path d="M112.054 158.978C126.563 158.978 138.325 156.778 138.325 154.063C138.325 151.348 126.563 149.147 112.054 149.147C97.5442 149.147 85.782 151.348 85.782 154.063C85.782 156.778 97.5442 158.978 112.054 158.978Z" fill="#3FCF4B"/>
</g>
<path d="M153.34 140.22C153.34 140.22 152.857 138.298 151.257 138.941C149.656 139.584 149.817 143.83 150.132 146.234C150.447 148.638 152.616 147.513 152.616 147.513V146.074C152.616 146.074 151.819 146.71 151.418 145.832C151.016 144.955 151.096 140.542 151.498 140.622C151.9 140.703 152.697 142.062 152.697 142.062C152.697 142.062 152.938 141.908 153.34 140.22Z" fill="#3FCF4B" stroke="#263238" stroke-width="0.462767" stroke-linecap="round" stroke-linejoin="round"/>
<path d="M152.188 140.542V151.069C152.188 152.308 155.034 153.313 158.55 153.313C162.066 153.313 164.905 152.308 164.905 151.069V140.542H152.188Z" fill="#3FCF4B" stroke="#263238" stroke-width="0.462767" stroke-linecap="round" stroke-linejoin="round"/>
<path d="M164.905 140.542C164.905 141.613 162.059 142.477 158.55 142.477C155.041 142.477 152.188 141.613 152.188 140.542C152.188 139.47 155.034 138.606 158.55 138.606C162.066 138.606 164.905 139.477 164.905 140.542Z" fill="white" stroke="#263238" stroke-width="0.462767" stroke-linecap="round" stroke-linejoin="round"/>
<path d="M164.075 140.542C164.075 141.473 161.597 142.223 158.55 142.223C155.503 142.223 153.018 141.473 153.018 140.542C153.018 139.611 155.496 138.861 158.55 138.861C161.604 138.861 164.075 139.611 164.075 140.542Z" fill="white" stroke="#263238" stroke-width="0.462767" stroke-linecap="round" stroke-linejoin="round"/>
<path d="M154.284 141.613C157.067 142.426 160.025 142.426 162.809 141.613C160.025 140.801 157.067 140.801 154.284 141.613Z" fill="#263238" stroke="#263238" stroke-width="0.462767" stroke-linecap="round" stroke-linejoin="round"/>
<path d="M55.673 145.35L55.7533 148.953L80.0294 149.194V145.029L55.673 145.35Z" fill="white" stroke="#263238" stroke-width="0.462767" stroke-linecap="round" stroke-linejoin="round"/>
<path d="M80.0295 149.194L83.5587 141.587V139.343L79.8688 145.752L80.0295 149.194Z" fill="white" stroke="#263238" stroke-width="0.462767" stroke-linecap="round" stroke-linejoin="round"/>
<path d="M55.673 148.631L55.7533 152.241L80.0294 152.482V148.317L55.673 148.631Z" fill="white" stroke="#263238" stroke-width="0.462767" stroke-linecap="round" stroke-linejoin="round"/>
<path d="M80.0295 152.482L83.5587 144.868V142.625L79.8688 149.033L80.0295 152.482Z" fill="white" stroke="#263238" stroke-width="0.462767" stroke-linecap="round" stroke-linejoin="round"/>
<path d="M65.0486 136.216C65.0486 136.216 65.6111 135.097 64.8075 134.615C64.0039 134.133 63.1266 135.285 62.6444 135.653C62.1623 136.021 52.0701 142.705 51.7487 143.75C51.4272 144.794 51.7487 147.098 53.9118 147.353C56.0749 147.607 57.9968 146.154 58.9612 145.913C59.9255 145.672 60.3005 145.591 60.3005 145.591L66.9505 136.617L65.0486 136.216Z" fill="white" stroke="#263238" stroke-width="0.462767" stroke-linecap="round" stroke-linejoin="round"/>
<path d="M53.9117 147.359C56.0748 147.6 57.9968 146.161 58.9611 145.92C59.9255 145.678 60.3005 145.598 60.3005 145.598L60.5416 145.27L54.2934 143.998C53.9537 143.678 53.517 143.48 53.0524 143.436C52.5878 143.393 52.1219 143.505 51.7285 143.756C51.4272 144.788 51.7486 147.112 53.9117 147.359Z" fill="white" stroke="#263238" stroke-width="0.462767" stroke-linecap="round" stroke-linejoin="round"/>
<path d="M54.3135 144.011H73.0646C78.9176 144.011 80.6789 143.69 80.6789 143.69L84.2818 136.236C84.2818 136.236 72.8972 136.959 69.3813 136.718C67.9285 136.676 66.4816 136.515 65.0552 136.236L54.3135 144.011Z" fill="white" stroke="#263238" stroke-width="0.462767" stroke-linecap="round" stroke-linejoin="round"/>
<path d="M54.3135 144.011L54.6349 145.451C54.6349 145.451 69.8568 145.531 73.8615 145.531C77.8662 145.531 80.9133 145.692 80.9133 145.692L80.6722 143.683L54.3135 144.011Z" fill="white" stroke="#263238" stroke-width="0.462767" stroke-linecap="round" stroke-linejoin="round"/>
<path d="M80.9133 145.672L84.2751 137.977V136.216L80.6722 143.669L80.9133 145.672Z" fill="white" stroke="#263238" stroke-width="0.462767" stroke-linecap="round" stroke-linejoin="round"/>
<path d="M134.997 154.672H89.0903C88.9886 154.673 88.8877 154.654 88.7935 154.615C88.6993 154.577 88.6136 154.521 88.5414 154.449C88.4692 154.377 88.4119 154.292 88.3727 154.198C88.3336 154.104 88.3135 154.004 88.3135 153.902C88.3135 153.8 88.3336 153.7 88.3727 153.606C88.4119 153.512 88.4692 153.427 88.5414 153.355C88.6136 153.283 88.6993 153.227 88.7935 153.189C88.8877 153.15 88.9886 153.131 89.0903 153.132H134.997C135.098 153.131 135.199 153.15 135.293 153.189C135.387 153.227 135.472 153.284 135.544 153.355C135.615 153.427 135.672 153.512 135.71 153.606C135.749 153.7 135.768 153.801 135.767 153.902C135.768 154.003 135.749 154.104 135.71 154.198C135.672 154.292 135.615 154.377 135.544 154.449C135.472 154.52 135.387 154.577 135.293 154.615C135.199 154.654 135.098 154.673 134.997 154.672Z" fill="white" stroke="#263238" stroke-width="0.462767" stroke-linecap="round" stroke-linejoin="round"/>
<path d="M135.385 153.118H88.6952C88.5243 153.119 88.3598 153.054 88.2353 152.937C88.1108 152.82 88.0357 152.66 88.0255 152.489L85.4874 121.985C85.476 121.89 85.4848 121.795 85.5133 121.704C85.5418 121.613 85.5893 121.529 85.6527 121.459C85.716 121.388 85.7938 121.331 85.8808 121.292C85.9677 121.254 86.0619 121.234 86.1571 121.235H137.93C138.025 121.234 138.12 121.254 138.207 121.292C138.294 121.331 138.371 121.388 138.435 121.459C138.498 121.529 138.546 121.613 138.574 121.704C138.603 121.795 138.611 121.89 138.6 121.985L136.062 152.489C136.052 152.661 135.976 152.822 135.85 152.939C135.724 153.056 135.557 153.121 135.385 153.118Z" fill="white" stroke="#263238" stroke-width="0.462767" stroke-linecap="round" stroke-linejoin="round"/>
<path d="M116.447 137.703C116.447 139.524 114.471 140.998 112.04 140.998C109.609 140.998 107.627 139.524 107.627 137.703C107.627 135.881 109.603 134.415 112.04 134.415C114.478 134.415 116.447 135.888 116.447 137.703Z" fill="white" stroke="#263238" stroke-width="0.462767" stroke-linecap="round" stroke-linejoin="round"/>
<path d="M162.072 113.875C162.788 113.316 163.292 112.529 163.499 111.645C163.649 110.982 163.633 110.291 163.452 109.636" stroke="#263238" stroke-width="0.462767" stroke-linecap="round" stroke-linejoin="round"/>
<path d="M156.728 137.756C156.728 137.756 161.182 135.078 159.728 132.017C158.275 128.957 153.36 126.927 153.36 122.159C153.36 118.047 157.733 116.527 160.586 114.88" stroke="#263238" stroke-width="0.462767" stroke-linecap="round" stroke-linejoin="round"/>
<path d="M160.84 137.669C160.84 137.669 163.325 136.015 163.325 133.39C163.325 131.628 161.443 130.477 158.958 127.644" stroke="#263238" stroke-width="0.462767" stroke-linecap="round" stroke-linejoin="round"/>
<path d="M157.585 125.929C157.585 125.929 155.958 124.65 157.157 122.246" stroke="#263238" stroke-width="0.462767" stroke-linecap="round" stroke-linejoin="round"/>
<path d="M119.882 55.7801C120.679 55.6126 122.387 54.9564 123.539 52.2843C123.557 52.2439 123.566 52.2003 123.567 52.1562C123.568 52.1121 123.56 52.0682 123.544 52.0271C123.528 51.986 123.503 51.9485 123.473 51.9168C123.442 51.8851 123.405 51.8598 123.365 51.8423C123.283 51.8083 123.191 51.8075 123.108 51.84C123.026 51.8724 122.959 51.9357 122.923 52.0164C121.865 54.4675 120.351 55.0099 119.722 55.1305C120.848 53.7672 121.47 52.0571 121.483 50.2887C121.483 45.6411 117.177 41.8774 111.866 41.8774C106.556 41.8774 102.25 45.6411 102.25 50.2887C102.253 51.9858 102.818 53.6341 103.857 54.9764C102.846 54.9229 101.138 55.3515 98.9749 57.8762C98.9131 57.9399 98.8785 58.0252 98.8785 58.1139C98.8785 58.2027 98.9131 58.2879 98.9749 58.3516C99.037 58.4032 99.1151 58.4317 99.1959 58.432C99.2446 58.4321 99.2927 58.4213 99.3367 58.4004C99.3807 58.3796 99.4195 58.3492 99.4503 58.3115C102.216 55.0903 104.044 55.6327 104.413 55.7801C103.787 56.124 103.201 56.5349 102.665 57.0056C99.5776 59.7848 97.6958 65.0418 97.9368 69.4215C98.2078 72.3263 99.2608 75.1035 100.984 77.4577C103.226 75.853 105.085 73.7718 106.428 71.3636C107.429 69.5946 108.324 67.7676 109.107 65.8923C109.107 67.8545 109.362 70.2251 110.393 71.9194C111.137 73.2577 112.227 74.3715 113.549 75.1443C114.87 75.9172 116.376 76.3206 117.907 76.3125C118.435 76.3201 118.963 76.2685 119.481 76.1585C119.526 76.1472 119.569 76.1264 119.605 76.0975C119.642 76.0687 119.673 76.0324 119.695 75.9911C122.28 76.5402 124.851 76.4934 125.247 75.9442C125.883 75.0669 126.787 72.3279 127.088 68.9795C127.637 63.3006 124.061 58.3717 119.882 55.7801ZM111.016 71.5109C109.717 69.388 109.757 65.9258 109.911 63.9368L109.998 63.7091C110.06 65.7547 110.581 67.7602 111.524 69.5769C112.466 71.3935 113.805 72.9746 115.442 74.203C116.347 74.8281 117.349 75.2967 118.409 75.5893C116.768 75.7031 113.393 75.3884 111.016 71.5109Z" fill="#263238"/>
<path d="M111.129 60.97C111.129 60.97 110.58 65.0283 115.737 69.0062C120.893 72.9841 125.782 71.417 125.782 71.417" stroke="white" stroke-width="0.231383" stroke-linecap="round" stroke-linejoin="round"/>
<path d="M111.886 59.6306C111.886 59.6306 117.317 67.5396 124.818 65.4769" stroke="white" stroke-width="0.231383" stroke-linecap="round" stroke-linejoin="round"/>
<path d="M109.201 56.9989C108.345 56.564 107.385 56.3727 106.427 56.4459C105.47 56.5191 104.55 56.854 103.77 57.4141C100.884 59.336 99.437 63.8765 99.437 63.8765" stroke="white" stroke-width="0.231383" stroke-linecap="round" stroke-linejoin="round"/>
<path d="M109.341 59.2022C109.341 59.2022 107.004 58.5794 105.558 60.0259C104.853 60.6648 104.25 61.4078 103.77 62.2291" stroke="white" stroke-width="0.231383" stroke-linecap="round" stroke-linejoin="round"/>
</svg>
