<svg width="72" height="72" viewBox="0 0 72 72" fill="none" xmlns="http://www.w3.org/2000/svg">
<rect width="72" height="72" rx="36" fill="#4ECB71" fill-opacity="0.3"/>
<path d="M18.8571 44.5714V42.8571H15.4286V44.5714C15.4286 47.754 16.6929 50.8063 18.9433 53.0567C21.1937 55.3071 24.246 56.5714 27.4286 56.5714H32.5714V53.1429H27.4286C25.1553 53.1429 22.9751 52.2398 21.3677 50.6323C19.7602 49.0249 18.8571 46.8447 18.8571 44.5714ZM49.7143 27.4286V29.1429H53.1429V27.4286C53.1429 24.246 51.8786 21.1937 49.6281 18.9433C47.3777 16.6929 44.3255 15.4286 41.1429 15.4286H36V18.8571H41.1429C42.2685 18.8571 43.3831 19.0789 44.423 19.5096C45.4629 19.9404 46.4078 20.5717 47.2038 21.3677C47.9997 22.1636 48.6311 23.1085 49.0618 24.1484C49.4926 25.1884 49.7143 26.303 49.7143 27.4286ZM27.4286 27.4286H17.1429C15.7789 27.4286 14.4708 27.9704 13.5063 28.9349C12.5418 29.8994 12 31.2075 12 32.5714V36H15.4286V32.5714C15.4286 32.1168 15.6092 31.6807 15.9307 31.3592C16.2522 31.0378 16.6882 30.8571 17.1429 30.8571H27.4286C27.8832 30.8571 28.3193 31.0378 28.6408 31.3592C28.9622 31.6807 29.1429 32.1168 29.1429 32.5714V36H32.5714V32.5714C32.5714 31.2075 32.0296 29.8994 31.0651 28.9349C30.1006 27.9704 28.7925 27.4286 27.4286 27.4286ZM22.2857 25.7143C23.6419 25.7143 24.9677 25.3121 26.0953 24.5587C27.223 23.8052 28.1019 22.7342 28.6209 21.4813C29.1399 20.2283 29.2757 18.8495 29.0111 17.5194C28.7465 16.1892 28.0934 14.9674 27.1344 14.0084C26.1755 13.0494 24.9536 12.3963 23.6235 12.1318C22.2933 11.8672 20.9146 12.003 19.6616 12.522C18.4086 13.041 17.3377 13.9199 16.5842 15.0475C15.8307 16.1752 15.4286 17.5009 15.4286 18.8571C15.4286 20.6758 16.151 22.4199 17.437 23.7059C18.7229 24.9918 20.4671 25.7143 22.2857 25.7143ZM22.2857 15.4286C22.9638 15.4286 23.6267 15.6297 24.1905 16.0064C24.7544 16.3831 25.1938 16.9186 25.4533 17.5451C25.7128 18.1716 25.7807 18.8609 25.6484 19.526C25.5161 20.1911 25.1896 20.802 24.7101 21.2815C24.2306 21.761 23.6197 22.0875 22.9546 22.2198C22.2895 22.3521 21.6001 22.2842 20.9737 22.0247C20.3472 21.7652 19.8117 21.3258 19.435 20.762C19.0582 20.1981 18.8571 19.5353 18.8571 18.8571C18.8571 17.9478 19.2184 17.0758 19.8613 16.4328C20.5043 15.7898 21.3764 15.4286 22.2857 15.4286ZM54.8571 51.4286H44.5714C43.2075 51.4286 41.8993 51.9704 40.9349 52.9349C39.9704 53.8994 39.4286 55.2075 39.4286 56.5714V60H42.8571V56.5714C42.8571 56.1168 43.0378 55.6807 43.3592 55.3592C43.6807 55.0378 44.1168 54.8571 44.5714 54.8571H54.8571C55.3118 54.8571 55.7478 55.0378 56.0693 55.3592C56.3908 55.6807 56.5714 56.1168 56.5714 56.5714V60H60V56.5714C60 55.2075 59.4582 53.8994 58.4937 52.9349C57.5292 51.9704 56.2211 51.4286 54.8571 51.4286ZM42.8571 42.8571C42.8571 44.2134 43.2593 45.5391 44.0128 46.6668C44.7663 47.7944 45.8372 48.6733 47.0902 49.1923C48.3431 49.7113 49.7219 49.8471 51.052 49.5825C52.3822 49.3179 53.604 48.6649 54.563 47.7059C55.522 46.7469 56.1751 45.5251 56.4397 44.1949C56.7043 42.8647 56.5685 41.486 56.0495 40.233C55.5305 38.9801 54.6516 37.9091 53.5239 37.1556C52.3963 36.4022 51.0705 36 49.7143 36C47.8957 36 46.1515 36.7225 44.8656 38.0084C43.5796 39.2944 42.8571 41.0385 42.8571 42.8571ZM53.1429 42.8571C53.1429 43.5353 52.9418 44.1981 52.565 44.762C52.1883 45.3258 51.6528 45.7652 51.0263 46.0247C50.3999 46.2842 49.7105 46.3521 49.0454 46.2198C48.3803 46.0875 47.7694 45.761 47.2899 45.2815C46.8104 44.802 46.4839 44.1911 46.3516 43.526C46.2193 42.8609 46.2872 42.1716 46.5467 41.5451C46.8062 40.9186 47.2456 40.3831 47.8095 40.0064C48.3733 39.6297 49.0362 39.4286 49.7143 39.4286C50.6236 39.4286 51.4957 39.7898 52.1386 40.4328C52.7816 41.0758 53.1429 41.9478 53.1429 42.8571Z" fill="#4ECB71"/>
</svg>
