<svg width="72" height="72" viewBox="0 0 72 72" fill="none" xmlns="http://www.w3.org/2000/svg">
<rect width="72" height="72" rx="36" fill="#85B6FF" fill-opacity="0.3"/>
<path d="M54.9731 32.3301L53.1665 31.2987C55.2753 28.6957 56.5033 25.6624 56.72 22.5213C56.9366 19.3802 56.1339 16.2486 54.3971 13.4592L54.0305 12.8997L55.9331 12L56.3258 12.6107C58.2476 15.6933 59.1366 19.1547 58.8984 22.6269C58.6602 26.0992 57.3037 29.4524 54.9731 32.3301ZM60 58.4091V60H12V58.4091H22.8567L29.616 32.2057C29.7217 31.7974 29.9911 31.4317 30.3793 31.1695C30.7676 30.9073 31.2512 30.7645 31.7498 30.7648H34.9135V25.6229C33.8265 25.4112 32.8561 24.8995 32.158 24.1699C31.46 23.4403 31.0749 22.5352 31.0647 21.6C31.0449 21.0341 31.1607 20.4706 31.4054 19.9429C31.6501 19.4153 32.0186 18.9341 32.4892 18.5279C32.9598 18.1218 33.5228 17.7989 34.145 17.5784C34.7671 17.3579 35.4358 17.2443 36.1113 17.2443C36.7868 17.2443 37.4554 17.3579 38.0776 17.5784C38.6997 17.7989 39.2628 18.1218 39.7334 18.5279C40.2039 18.9341 40.5725 19.4153 40.8172 19.9429C41.0618 20.4706 41.1777 21.0341 41.1578 21.6C41.1482 22.5665 40.7382 23.5002 39.998 24.2414C39.2577 24.9825 38.2332 25.4851 37.0996 25.6631V30.7648H40.2458C40.7451 30.7637 41.2298 30.9061 41.619 31.1683C42.0081 31.4306 42.2781 31.7967 42.384 32.2057L49.1345 58.4091H60ZM40.1324 40.8037H31.8676L30.4582 46.2638H41.5462L40.1324 40.8037ZM29.9825 48.0923L28.5731 53.5598H43.4225L42.0131 48.0923H29.9825ZM33.5084 34.4219L32.3302 38.9751H39.6611L38.4873 34.4219H33.5084ZM27.3207 58.4128H44.6749L43.8938 55.3883H28.0975L27.3207 58.4128ZM25.9767 27.1333C24.6729 25.4746 23.9839 23.5298 23.9963 21.5436C24.0087 19.5574 24.7221 17.6187 26.0465 15.9717L24.24 14.9477C22.6733 16.8938 21.8293 19.1852 21.8146 21.5328C21.7998 23.8804 22.6149 26.1791 24.1571 28.139L25.9767 27.1333ZM50.1818 21.6C50.1846 19.2786 49.3743 17.0075 47.8516 15.0683L46.0276 16.0741C47.3283 17.7326 48.0148 19.6765 48.0008 21.6612C47.9868 23.6458 47.273 25.5828 45.9491 27.2283L47.7556 28.245C49.3401 26.2836 50.1853 23.9686 50.1818 21.6ZM18.6633 31.1744C16.5504 28.4828 15.3694 25.353 15.2515 22.1326C15.1336 18.9123 16.0835 15.7276 17.9956 12.9326L16.1062 12.0183C13.9918 15.1081 12.9418 18.6288 13.0727 22.189C13.2037 25.7491 14.5106 29.209 16.848 32.1838L18.6633 31.1744Z" fill="#85B6FF"/>
</svg>
