<svg width="72" height="72" viewBox="0 0 72 72" fill="none" xmlns="http://www.w3.org/2000/svg">
<rect width="72" height="72" rx="36" fill="#9747FF" fill-opacity="0.3"/>
<path d="M46.7351 12H58.2393L58.4919 12.0336L58.742 12.1008L58.8935 12.1632C59.0956 12.2464 59.28 12.3664 59.4468 12.5232L59.5478 12.6288L59.659 12.7656L59.7954 12.9816L59.8939 13.1976L59.9419 13.3512L59.9773 13.5048L60 13.7328V24.6096C59.9999 25.0657 59.8175 25.5047 59.4898 25.8379C59.1621 26.1711 58.7134 26.3738 58.2345 26.4049C57.7556 26.4359 57.2821 26.2932 56.9097 26.0054C56.5374 25.7176 56.2939 25.3062 56.2284 24.8544L56.2107 24.6096V18.1416L39.9422 33.5976C39.6214 33.9024 39.1961 34.0878 38.7436 34.1199C38.2912 34.1521 37.8416 34.0289 37.4766 33.7728L37.2644 33.6L29.6101 26.616L15.2362 40.2696C14.8981 40.5917 14.4442 40.7802 13.9658 40.7973C13.4874 40.8144 13.0199 40.6588 12.6574 40.3617C12.2948 40.0647 12.064 39.6483 12.0115 39.1962C11.9589 38.7441 12.0884 38.2899 12.374 37.9248L12.5584 37.7232L28.2712 22.7952C28.5924 22.4907 29.0178 22.3058 29.4703 22.2741C29.9227 22.2424 30.3721 22.366 30.7368 22.6224L30.949 22.7952L38.6033 29.7792L53.5279 15.6H46.7325C46.2751 15.5994 45.8334 15.4416 45.4889 15.1558C45.1444 14.8699 44.9203 14.4753 44.8581 14.0448L44.8404 13.8C44.8404 13.365 45.0062 12.9448 45.3072 12.617C45.6081 12.2892 46.0238 12.076 46.4774 12.0168L46.7351 12ZM13.8973 48C14.3998 48 14.8817 48.1896 15.237 48.5272C15.5923 48.8648 15.7919 49.3226 15.7919 49.8V58.2C15.7919 58.6774 15.5923 59.1352 15.237 59.4728C14.8817 59.8104 14.3998 60 13.8973 60C13.3948 60 12.9129 59.8104 12.5576 59.4728C12.2023 59.1352 12.0027 58.6774 12.0027 58.2V49.8C12.0027 49.3226 12.2023 48.8648 12.5576 48.5272C12.9129 48.1896 13.3948 48 13.8973 48ZM28.4228 40.2C28.4228 39.7226 28.2232 39.2648 27.8679 38.9272C27.5126 38.5896 27.0307 38.4 26.5282 38.4C26.0257 38.4 25.5438 38.5896 25.1885 38.9272C24.8332 39.2648 24.6336 39.7226 24.6336 40.2V58.2C24.6336 58.6774 24.8332 59.1352 25.1885 59.4728C25.5438 59.8104 26.0257 60 26.5282 60C27.0307 60 27.5126 59.8104 27.8679 59.4728C28.2232 59.1352 28.4228 58.6774 28.4228 58.2V40.2ZM39.1591 43.2C39.6615 43.2 40.1434 43.3896 40.4988 43.7272C40.8541 44.0648 41.0537 44.5226 41.0537 45V58.2C41.0537 58.6774 40.8541 59.1352 40.4988 59.4728C40.1434 59.8104 39.6615 60 39.1591 60C38.6566 60 38.1747 59.8104 37.8193 59.4728C37.464 59.1352 37.2644 58.6774 37.2644 58.2V45C37.2644 44.5226 37.464 44.0648 37.8193 43.7272C38.1747 43.3896 38.6566 43.2 39.1591 43.2ZM53.6846 33C53.6846 32.5226 53.485 32.0648 53.1296 31.7272C52.7743 31.3896 52.2924 31.2 51.7899 31.2C51.2874 31.2 50.8055 31.3896 50.4502 31.7272C50.0949 32.0648 49.8953 32.5226 49.8953 33V58.2C49.8953 58.6774 50.0949 59.1352 50.4502 59.4728C50.8055 59.8104 51.2874 60 51.7899 60C52.2924 60 52.7743 59.8104 53.1296 59.4728C53.485 59.1352 53.6846 58.6774 53.6846 58.2V33Z" fill="#9747FF"/>
</svg>
