<svg width="72" height="72" viewBox="0 0 72 72" fill="none" xmlns="http://www.w3.org/2000/svg">
<rect width="72" height="72" rx="36" fill="#FFD233" fill-opacity="0.3"/>
<path d="M20.2509 12L17.8371 14.5378L21.4286 18.3175L23.8389 15.7796L20.2509 12ZM51.7509 12L48.1594 15.7796L50.5714 18.3175L54.1611 14.5396L51.7509 12ZM36 13.1263C35.4343 13.1335 34.8617 13.1678 34.2857 13.2418C34.2686 13.2418 34.2514 13.2382 34.2343 13.2418C27.2811 14.0811 21.7474 19.9961 20.7857 27.2846C20.0177 33.1508 22.3149 38.4701 26.1429 41.896C27.7087 43.3031 28.7678 45.2339 29.1429 47.3651V58.195H33.0514C33.648 59.2726 34.7366 60 36 60C37.2634 60 38.352 59.2726 38.9486 58.195H42.8571V50.9751H43.0183V48.8307C43.0183 46.1846 44.3246 43.5169 46.4469 41.4429C49.2857 38.4503 51.4286 34.1995 51.4286 29.317C51.4286 20.4004 44.4583 13.0433 36 13.1263ZM36 16.7363C42.6257 16.6388 48 22.3498 48 29.317C48 33.0967 46.3371 36.4251 44.0349 38.8474L44.0897 38.9051C41.8018 41.1265 40.3224 44.1194 39.9069 47.3669H32.4086C32.0314 44.2732 30.7714 41.2787 28.3903 39.1307C25.3611 36.4233 23.556 32.344 24.1594 27.7377C24.9086 22.052 29.2903 17.4799 34.6594 16.8536C35.1027 16.7885 35.5491 16.75 35.9966 16.7381L36 16.7363ZM12 29.317V32.927H17.1429V29.317H12ZM54.8571 29.317V32.927H60V29.317H54.8571ZM21.4286 43.9266L17.8389 47.7044L20.2509 50.244L23.8371 46.4644L21.4286 43.9266ZM50.5714 43.9266L48.1611 46.4644L51.7491 50.244L54.1611 47.7044L50.5714 43.9266ZM32.5714 50.9769H39.4286V54.5868H32.5714V50.9769Z" fill="#FFD233"/>
</svg>
