<svg width="261" height="260" viewBox="0 0 261 260" fill="none" xmlns="http://www.w3.org/2000/svg">
<path d="M11.9886 215.741C9.95259 214.466 7.65161 213.674 5.26203 213.425C4.16081 213.317 2.99147 213.346 2.07757 213.993C1.9769 214.049 1.89351 214.131 1.83647 214.232C1.77942 214.332 1.7509 214.445 1.75401 214.561C1.8039 214.726 1.91302 214.868 2.06054 214.958C3.49098 215.973 5.17118 216.58 6.92046 216.712C8.66974 216.844 10.4219 216.496 11.9886 215.707" fill="#E0E0E0"/>
<path d="M11.8183 215.554C10.259 214.409 8.80399 213.129 7.47015 211.728C6.13371 210.319 5.19368 208.582 4.74548 206.693C4.65578 206.41 4.62861 206.112 4.66586 205.818C4.7031 205.524 4.80388 205.241 4.96118 204.99C8.42379 207.692 11.1485 211.194 11.8183 215.537" fill="#E0E0E0"/>
<path d="M11.9545 215.718C11.6314 213.828 11.6584 211.894 12.0339 210.013C12.4228 208.119 13.506 206.438 15.0708 205.302C15.6725 206.704 15.4114 208.316 14.9913 209.775C14.3361 212.039 13.3182 214.183 11.9772 216.121" fill="#E0E0E0"/>
<path d="M15.349 221.803C13.311 222.13 11.4258 223.084 9.95637 224.534C8.40661 225.939 7.32825 227.789 6.86841 229.83C8.88921 229.705 10.6035 228.28 11.8466 226.679C13.0897 225.079 13.9526 223.325 15.3206 221.832" fill="#E0E0E0"/>
<path d="M16.0869 222.774C15.2751 220.715 14.9906 218.486 15.2592 216.289C15.5279 214.093 16.3412 211.998 17.6252 210.195C18.7946 214.367 18.3632 219.09 16.0869 222.78" fill="#E0E0E0"/>
<path d="M20.5713 228.116C18.6878 228.002 16.8123 228.443 15.1768 229.385C13.5414 230.326 12.2178 231.726 11.3699 233.412C11.2967 233.516 11.2528 233.638 11.2428 233.764C11.2328 233.891 11.2571 234.018 11.3131 234.133C11.3923 234.209 11.4889 234.266 11.5946 234.298C11.7003 234.329 11.8121 234.335 11.9205 234.314C13.7313 234.195 15.3264 233.105 16.666 231.862C18.0056 230.619 19.1466 229.183 20.6395 228.11" fill="#E0E0E0"/>
<path d="M20.4294 227.826C19.4628 224.717 19.4038 221.397 20.2591 218.256C20.594 217.024 21.1616 215.724 22.3026 215.145C22.3486 215.116 22.3999 215.097 22.4535 215.088C22.5071 215.079 22.5619 215.081 22.6148 215.094C22.7083 215.141 22.7796 215.222 22.8134 215.321C23.1958 216.184 23.3596 217.127 23.2903 218.068C23.2252 219.004 23.0828 219.932 22.8645 220.844C22.5012 222.547 22.2969 224.369 21.383 225.834C21.1719 226.189 20.9823 226.557 20.8153 226.935C20.6394 227.304 20.6394 227.435 20.4748 227.73" fill="#E0E0E0"/>
<path d="M32.3045 229.592C31.9061 227.845 31.8932 226.033 32.2667 224.281C32.6403 222.529 33.3912 220.88 34.4672 219.448C34.6205 219.243 34.8305 219.028 35.0803 219.05C35.4719 219.09 35.5684 219.618 35.5514 219.993C35.3972 223.435 34.2715 226.763 32.3045 229.592Z" fill="#E0E0E0"/>
<path d="M33.3772 230.324C35.4533 230.815 37.6115 230.849 39.7021 230.424C41.7928 229.999 43.7659 229.124 45.485 227.86C43.4586 226.841 41.1408 226.558 38.9287 227.06C36.7376 227.559 34.7395 228.541 33.3772 230.324Z" fill="#E0E0E0"/>
<path d="M34.2798 228.099C35.4809 226.248 37.1025 224.707 39.0123 223.602C40.9221 222.498 43.0661 221.86 45.2693 221.741C44.9733 222.614 44.5018 223.416 43.8838 224.1C43.2659 224.783 42.5146 225.333 41.6761 225.715C39.9965 226.472 38.2198 226.991 36.3971 227.259C35.6932 227.395 34.7339 227.548 34.2798 228.099Z" fill="#E0E0E0"/>
<path d="M32.5315 217.285C33.2199 215.194 33.6898 213.037 33.9336 210.848C34.1758 208.644 33.7297 206.419 32.6564 204.479C31.5723 206.473 30.9888 208.701 30.9562 210.97C30.9235 213.239 31.4427 215.482 32.4691 217.507" fill="#E0E0E0"/>
<path d="M39.6895 213.664C42.1814 209.122 47.2561 205.535 52.3876 205.03C50.4065 209.963 45.0082 213.771 39.6895 213.664Z" fill="#E0E0E0"/>
<path d="M38.1284 214.549C41.8351 215.117 44.9969 217.484 48.4651 218.92C49.1892 219.274 49.9945 219.428 50.7981 219.368C51.1995 219.334 51.5814 219.181 51.895 218.928C52.2085 218.675 52.4394 218.334 52.5578 217.949C52.6115 217.619 52.5837 217.281 52.4768 216.965C52.37 216.648 52.1873 216.363 51.9448 216.133C51.4528 215.678 50.8734 215.329 50.2419 215.105C46.4671 213.533 42.4198 213.493 38.4406 214.447" fill="#E0E0E0"/>
<path d="M35.9828 217.155C36.8172 217.393 37.1181 217.83 37.7709 218.398C40.0402 220.323 42.7225 221.7 45.61 222.422C45.9108 222.496 46.3025 222.524 46.4501 222.258C46.5977 221.991 46.416 221.735 46.2514 221.52C44.9882 220.046 43.3537 218.936 41.5173 218.307C39.7065 217.637 38.1114 216.825 35.9828 216.996" fill="#E0E0E0"/>
<path d="M33.5589 201.437C35.0774 202.837 36.8716 203.904 38.8265 204.571C40.7815 205.238 42.8541 205.489 44.9117 205.308C45.1029 205.312 45.2888 205.245 45.4339 205.121C45.7178 204.814 45.3772 204.332 45.0423 204.07C41.6989 201.465 37.6629 200.381 33.5419 201.437" fill="#E0E0E0"/>
<path d="M36.4312 200.386C38.445 198.906 40.7801 197.922 43.2463 197.516C45.7125 197.11 48.2398 197.292 50.6222 198.048C48.765 199.767 46.3841 200.813 43.8616 201.017C41.367 201.245 38.8517 201.031 36.4312 200.386Z" fill="#E0E0E0"/>
<path d="M35.2902 193.166C34.9609 189.828 35.1709 187.194 34.9439 183.84C34.9439 183.573 34.8644 183.272 34.6147 183.153C34.2684 183.022 33.9732 183.448 33.8597 183.806C33.3742 185.36 33.2501 187.004 33.497 188.614C33.744 190.223 34.3553 191.755 35.2845 193.092" fill="#E0E0E0"/>
<path d="M35.0461 193.535C37.2392 192.132 39.1288 190.305 40.6033 188.159C41.6989 186.666 42.6185 184.878 42.3687 183.051C41.602 183.071 40.8489 183.259 40.1625 183.601C39.4761 183.943 38.8729 184.431 38.3952 185.032C37.4404 186.238 36.7464 187.63 36.3574 189.119C35.9146 190.589 35.6081 192.099 35.0859 193.541" fill="#E0E0E0"/>
<path d="M40.4785 192.031C45.4623 190.193 50.0764 187.476 54.1018 184.01C52.4784 183.357 50.6165 183.749 48.9931 184.402C45.304 185.799 42.256 188.501 40.4274 191.997" fill="#E0E0E0"/>
<path d="M36.5731 195.363C39.0781 195.72 41.6203 195.732 44.1284 195.397C46.5637 194.893 48.9317 194.106 51.1842 193.052C51.3831 192.996 51.5534 192.866 51.661 192.689C51.6946 192.583 51.6964 192.47 51.6662 192.363C51.6359 192.256 51.5749 192.16 51.4907 192.087C51.3137 191.949 51.1082 191.852 50.889 191.804C48.3588 191.194 45.7041 191.354 43.2656 192.263C40.9325 193.06 38.6894 194.098 36.5731 195.363Z" fill="#E0E0E0"/>
<path d="M22.2345 201.556C21.4263 199.827 20.997 197.946 20.9755 196.038C20.9539 194.129 21.3406 192.239 22.1096 190.492C23.1541 192.082 23.279 194.103 23.0916 195.993C22.9043 197.883 22.3253 199.824 22.2856 201.726" fill="#E0E0E0"/>
<path d="M15.3887 198.099C13.2427 198.072 11.1145 198.492 9.14021 199.334C7.16589 200.175 5.38877 201.419 3.92236 202.986C6.08469 203.245 8.2746 202.839 10.2005 201.823C12.1103 200.804 13.913 199.597 15.5817 198.218" fill="#E0E0E0"/>
<path d="M10.7852 196.572C8.69057 196.402 6.68113 196.146 4.666 196.759C3.64898 197.049 2.70602 197.553 1.90099 198.239C1.09596 198.924 0.447661 199.775 0 200.733C1.97551 200.892 3.95745 200.517 5.73884 199.649C7.50978 198.776 9.19869 197.747 10.7852 196.572Z" fill="#E0E0E0"/>
<path d="M17.6025 196.634C15.718 195.397 13.7823 194.143 11.5912 193.632C9.40012 193.121 6.85709 193.495 5.34717 195.147C7.12388 196.192 9.27524 196.317 11.3301 196.311C13.385 196.305 15.911 196.311 17.8523 196.975" fill="#E0E0E0"/>
<path d="M17.6139 196.731C14.3897 193.569 13.1693 187.893 14.4692 183.573C17.0076 187.463 18.1189 192.113 17.6139 196.731Z" fill="#E0E0E0"/>
<path d="M26.4634 187.774C27.0708 186.366 27.4965 184.884 28.0414 183.448C28.5455 181.994 29.3154 180.647 30.312 179.475C31.3152 178.293 32.7417 177.551 34.2855 177.408C33.7906 179.586 32.8469 181.635 31.5147 183.427C30.1824 185.219 28.491 186.713 26.5485 187.813" fill="#E0E0E0"/>
<path d="M24.8627 189.641C23.858 188.256 22.6943 186.383 21.332 185.35C20.6728 184.802 19.902 184.405 19.0735 184.187C18.2451 183.968 17.3789 183.933 16.5354 184.084C17.3968 185.592 18.5979 186.88 20.0433 187.843C21.4888 188.807 23.1388 189.42 24.8627 189.635" fill="#E0E0E0"/>
<path d="M25.1806 187.893C24.4593 186.243 23.9261 184.518 23.5912 182.75C23.261 180.964 23.5451 179.12 24.3972 177.516C26.1626 180.86 26.7359 184.441 25.2714 187.927" fill="#E0E0E0"/>
<path d="M26.4805 177.516C27.4795 174.207 30.5107 171.772 33.786 170.653C34.1897 170.486 34.6281 170.42 35.0632 170.46C35.2797 170.486 35.4843 170.574 35.6524 170.713C35.8205 170.851 35.9451 171.036 36.0111 171.244C36.1304 171.811 35.6649 172.317 35.2278 172.691C32.6691 174.876 29.6931 176.517 26.4805 177.516Z" fill="#E0E0E0"/>
<path d="M26.5145 174.809C26.5455 172.667 26.8662 170.54 27.4682 168.485C28.1664 166.464 29.5003 164.568 31.4416 163.683C31.7766 165.84 30.8229 167.986 29.6763 169.836C28.5296 171.687 27.1446 173.446 26.4578 175.512" fill="#E0E0E0"/>
<path d="M26.4633 176.279C25.6346 173.866 25.5494 170.801 24.102 168.701C23.0972 167.23 21.4795 166.231 20.6053 164.67C20.0816 166.165 20.1548 167.804 20.8096 169.246C21.4688 170.668 22.3738 171.963 23.4832 173.071C24.5504 174.207 25.47 175.07 26.4633 176.279Z" fill="#E0E0E0"/>
<path d="M26.4804 247.347C26.4123 247.347 26.3612 231.249 26.3555 211.393C26.3499 191.537 26.4009 175.438 26.4634 175.438C26.5258 175.438 26.5826 191.531 26.5883 211.393C26.5939 231.255 26.5429 247.347 26.4804 247.347Z" fill="#E0E0E0"/>
<path d="M40.5466 199.126C40.35 199.217 40.147 199.293 39.9392 199.354L38.2761 199.921C36.8683 200.398 34.944 201.091 32.8494 201.948C30.7548 202.805 28.8192 203.56 27.7066 204.525C27.2627 204.896 26.9094 205.364 26.6735 205.893C26.5145 206.267 26.4862 206.5 26.4635 206.494C26.4408 206.489 26.4635 206.438 26.4635 206.33C26.4868 206.169 26.5268 206.011 26.5827 205.859C26.7947 205.297 27.1417 204.796 27.5931 204.4C28.2625 203.83 29.0123 203.361 29.8182 203.009C30.7094 202.595 31.6971 202.158 32.7472 201.726C34.8475 200.869 36.7945 200.194 38.2136 199.757C38.9232 199.535 39.5022 199.371 39.9165 199.263C40.1216 199.197 40.3326 199.151 40.5466 199.126Z" fill="#E0E0E0"/>
<path d="M45.1445 187.796C45.0963 187.864 45.039 187.925 44.9742 187.978L44.4576 188.466L42.5333 190.214L36.1247 195.93C33.6214 198.161 31.453 200.29 29.9544 201.896C29.1994 202.697 28.6091 203.361 28.2061 203.826L27.7406 204.36C27.6833 204.421 27.6184 204.474 27.5476 204.519C27.5831 204.443 27.629 204.372 27.6838 204.309C27.786 204.184 27.9279 203.991 28.1209 203.741C28.5012 203.259 29.0746 202.572 29.8238 201.754C31.7642 199.639 33.8143 197.627 35.9657 195.726C38.4804 193.501 40.7679 191.503 42.4311 190.05C43.2429 189.346 43.9127 188.772 44.4065 188.347L44.9742 187.893C45.0277 187.855 45.0847 187.823 45.1445 187.796Z" fill="#E0E0E0"/>
<path d="M33.417 198.201C33.3545 198.167 33.8767 196.958 34.399 195.431C34.9212 193.904 35.171 192.593 35.2391 192.627C35.1872 193.613 34.9783 194.584 34.6204 195.505C34.3981 196.164 34.1385 196.811 33.8427 197.44C33.7361 197.712 33.5928 197.968 33.417 198.201Z" fill="#E0E0E0"/>
<path d="M26.4917 207.925C26.3478 207.789 26.2184 207.639 26.1057 207.476L25.118 206.222C24.2893 205.143 23.137 203.662 21.8541 202.044C20.5712 200.426 19.3792 198.962 18.5221 197.911L17.5117 196.657C17.3781 196.512 17.2619 196.352 17.1654 196.18C17.3169 196.306 17.4556 196.447 17.5798 196.6C17.8409 196.878 18.2042 197.293 18.6469 197.804C19.5381 198.831 20.7415 200.273 22.0528 201.896C23.364 203.52 24.4709 205.018 25.2656 206.12C25.6687 206.687 25.9809 207.119 26.1966 207.436C26.3144 207.587 26.4135 207.751 26.4917 207.925Z" fill="#E0E0E0"/>
<path d="M23.4095 203.98C22.7831 203.294 22.3381 202.463 22.1153 201.562C21.8733 200.774 21.7752 199.949 21.8258 199.126H21.928C21.8826 199.314 21.8485 199.41 21.8258 199.41C21.8031 199.41 21.8258 199.302 21.8258 199.109H21.928C21.9771 199.913 22.1161 200.709 22.3424 201.482C22.6327 202.341 22.9895 203.176 23.4095 203.98Z" fill="#E0E0E0"/>
<path d="M19.4247 198.973C19.1466 198.762 18.8435 198.587 18.5221 198.451C17.7108 198.21 16.858 198.142 16.0188 198.252C15.169 198.316 14.3259 198.451 13.4985 198.655C13.1589 198.764 12.8117 198.848 12.4597 198.905C12.7688 198.72 13.1036 198.583 13.4531 198.496C14.2819 198.242 15.1369 198.082 16.0018 198.019C16.8725 197.9 17.7592 197.996 18.5846 198.298C18.9362 198.415 19.2341 198.655 19.4247 198.973Z" fill="#E0E0E0"/>
<path d="M18.4653 197.758C18.4653 197.792 17.9431 197.548 17.0859 197.253C15.9727 196.889 14.8197 196.66 13.6517 196.572C12.4756 196.488 11.2936 196.549 10.1324 196.754C9.24116 196.913 8.7019 197.077 8.69055 197.043C8.80311 196.969 8.92806 196.915 9.05952 196.884C9.40089 196.763 9.74978 196.665 10.104 196.589C12.4565 196.08 14.9064 196.267 17.1541 197.128C17.4926 197.256 17.8225 197.406 18.1418 197.577C18.2562 197.625 18.3648 197.686 18.4653 197.758Z" fill="#E0E0E0"/>
<path d="M26.4634 192.627C26.0518 191.482 25.7143 190.312 25.453 189.125C25.1172 187.956 24.8556 186.767 24.6697 185.565C25.0823 186.71 25.4198 187.88 25.6801 189.068C26.0165 190.236 26.2781 191.425 26.4634 192.627Z" fill="#E0E0E0"/>
<path d="M26.5259 192.627C26.1991 191.9 25.8197 191.198 25.3906 190.527C24.9164 189.893 24.3653 189.321 23.7501 188.824C23.9826 188.884 24.1982 188.996 24.3802 189.153C24.8486 189.494 25.2556 189.913 25.5836 190.39C26.0899 191.039 26.4151 191.811 26.5259 192.627Z" fill="#E0E0E0"/>
<path d="M26.4804 238.765C26.4521 238.765 26.4067 238.379 26.225 237.692C25.9572 236.73 25.5959 235.796 25.1465 234.905C23.5987 231.991 21.6813 229.29 19.4417 226.867C18.1702 225.408 16.9327 224.029 15.8826 222.723C14.9509 221.563 14.1066 220.335 13.3566 219.051C12.8522 218.18 12.423 217.269 12.0737 216.326C11.9545 215.991 11.8694 215.724 11.824 215.548C11.7935 215.458 11.7707 215.364 11.7559 215.27C11.7559 215.27 11.8921 215.633 12.1589 216.292C12.5391 217.215 12.9869 218.108 13.4985 218.965C14.2679 220.233 15.1272 221.443 16.0699 222.587C17.1257 223.887 18.3405 225.255 19.6404 226.714C21.8926 229.151 23.8022 231.884 25.3168 234.837C25.756 235.743 26.0948 236.695 26.3272 237.675C26.4067 238.027 26.4521 238.299 26.4748 238.486C26.4853 238.579 26.4872 238.672 26.4804 238.765Z" fill="#E0E0E0"/>
<path d="M39.1899 224.386C38.9774 224.526 38.7555 224.651 38.5258 224.761C37.9335 225.101 37.3646 225.48 36.8229 225.896C36.0138 226.527 35.2546 227.22 34.5523 227.968C33.7519 228.808 32.9345 229.784 32.0944 230.806C30.3915 232.907 28.8532 234.78 27.9166 236.25C27.4398 236.988 27.0935 237.607 26.8665 238.044C26.759 238.274 26.6377 238.498 26.5032 238.713C26.5032 238.713 26.5032 238.645 26.5656 238.52C26.6281 238.396 26.6791 238.225 26.787 238.004C27.0786 237.368 27.4104 236.752 27.7804 236.159C29.053 234.249 30.4326 232.413 31.9128 230.659C32.7529 229.609 33.5816 228.632 34.3934 227.792C35.1111 227.044 35.8895 226.357 36.7207 225.737C37.2819 225.323 37.8783 224.958 38.5031 224.647C38.7245 224.539 38.9061 224.471 39.0253 224.42C39.0788 224.403 39.134 224.392 39.1899 224.386Z" fill="#E0E0E0"/>
<path d="M39.4681 229.064C39.0041 229.164 38.5337 229.232 38.0604 229.268C36.9298 229.384 35.8125 229.604 34.7226 229.926C33.6438 230.275 32.6322 230.805 31.7312 231.493C31.0386 232.027 30.7151 232.469 30.681 232.441C30.7321 232.322 30.8031 232.213 30.8911 232.117C31.1104 231.845 31.3556 231.594 31.6233 231.368C32.5162 230.625 33.5433 230.061 34.6488 229.705C35.7578 229.377 36.9003 229.175 38.0547 229.103C38.5237 229.049 38.9967 229.035 39.4681 229.064Z" fill="#E0E0E0"/>
<path d="M31.067 231.93C30.9932 231.89 31.6346 230.92 32.1171 229.614C32.5996 228.309 32.6848 227.145 32.7699 227.162C32.8187 227.411 32.8187 227.668 32.7699 227.917C32.703 228.523 32.5658 229.119 32.3612 229.694C32.142 230.268 31.8603 230.816 31.5211 231.329C31.4036 231.553 31.2502 231.756 31.067 231.93Z" fill="#E0E0E0"/>
<path d="M43.3052 211.898C43.3052 211.898 43.2314 211.949 43.0838 212.017L42.4197 212.318C42.1302 212.443 41.7782 212.602 41.3809 212.812C40.9836 213.022 40.5181 213.226 40.0356 213.516L39.2693 213.953C39.0025 214.106 38.7414 214.288 38.4576 214.464C37.8899 214.81 37.3223 215.23 36.7206 215.662C35.4332 216.637 34.219 217.705 33.0877 218.857C31.9743 220.026 30.9497 221.277 30.0224 222.598C29.608 223.217 29.205 223.796 28.8871 224.375C28.7225 224.659 28.5522 224.943 28.4046 225.204L27.9959 225.987C27.7235 226.475 27.5248 226.946 27.3375 227.355C27.1502 227.764 26.9912 228.116 26.8777 228.405L26.5996 229.081C26.574 229.161 26.5377 229.237 26.4917 229.308C26.4917 229.308 26.4917 229.223 26.5598 229.064C26.6279 228.905 26.696 228.655 26.7925 228.377C26.889 228.099 27.031 227.713 27.2126 227.304C27.3942 226.895 27.5816 226.413 27.8484 225.913L28.2457 225.119C28.3876 224.84 28.5579 224.551 28.7225 224.278C29.0404 223.711 29.4434 223.103 29.8578 222.473C30.7801 221.141 31.805 219.883 32.9231 218.71C34.0616 217.55 35.2875 216.48 36.59 215.508C37.2031 215.077 37.7821 214.657 38.3554 214.322C38.6392 214.146 38.923 213.97 39.1785 213.817L39.9561 213.391C40.45 213.107 40.9211 212.909 41.3241 212.71C41.6696 212.54 42.0239 212.388 42.3856 212.256L43.0668 211.995L43.3052 211.898Z" fill="#E0E0E0"/>
<path d="M33.224 218.642C33.3186 218.313 33.5179 218.024 33.7916 217.819C34.4115 217.28 35.2013 216.976 36.0225 216.961C36.8265 216.96 37.623 217.116 38.3668 217.421C38.6838 217.52 38.9843 217.665 39.258 217.853C38.9424 217.786 38.633 217.693 38.3328 217.574C37.6015 217.325 36.8347 217.197 36.0622 217.194C35.2912 217.212 34.5458 217.474 33.9335 217.943C33.68 218.158 33.4428 218.392 33.224 218.642Z" fill="#E0E0E0"/>
<path d="M31.7424 220.191C32.0421 219.539 32.2558 218.85 32.3782 218.142C32.421 217.424 32.3733 216.703 32.2363 215.997C32.3681 216.172 32.4575 216.376 32.4974 216.593C32.6321 217.107 32.6687 217.643 32.6052 218.171C32.5455 218.699 32.3856 219.212 32.1341 219.681C31.9411 220.027 31.7651 220.208 31.7424 220.191Z" fill="#E0E0E0"/>
<path d="M15.3604 241.069C15.7066 247.223 17.5628 253.478 20.4124 259.801H32.8153C35.5343 253.557 37.2599 247.313 37.5664 241.069H15.3604Z" fill="#E0E0E0"/>
<path d="M35.557 251.026C35.557 251.088 31.47 251.139 26.435 251.139C21.4001 251.139 17.3301 251.065 17.3301 251.026C17.3301 250.986 21.4114 250.906 26.4464 250.906C31.4813 250.906 35.557 250.963 35.557 251.026Z" fill="#FAFAFA"/>
<path d="M35.2788 253.251C35.2788 253.319 31.4529 253.37 26.7302 253.37C22.0074 253.37 18.1815 253.336 18.1815 253.251C18.1815 253.166 22.0074 253.137 26.7302 253.137C31.4529 253.137 35.2788 253.188 35.2788 253.251Z" fill="#FAFAFA"/>
<path d="M20.611 245.111C20.7699 247.011 20.7699 248.921 20.611 250.821C20.4596 248.921 20.4596 247.011 20.611 245.111Z" fill="#FAFAFA"/>
<path d="M27.2581 245.111C27.4094 247.08 27.4094 249.057 27.2581 251.026C27.0992 249.057 27.0992 247.079 27.2581 245.111Z" fill="#FAFAFA"/>
<path d="M33.4907 245.06C33.6497 247.068 33.6497 249.086 33.4907 251.094C33.3394 249.085 33.3394 247.068 33.4907 245.06Z" fill="#FAFAFA"/>
<path d="M37.1975 245.111C37.1975 245.173 32.4123 245.224 26.5032 245.224C20.594 245.224 15.8088 245.173 15.8088 245.111C15.8088 245.048 20.5997 244.992 26.5032 244.992C32.4066 244.992 37.1975 245.043 37.1975 245.111Z" fill="#FAFAFA"/>
<path d="M243.858 212.097C243.83 212.097 243.801 211.665 243.648 210.905C243.449 209.828 243.131 208.778 242.7 207.771C242.077 206.277 241.156 204.925 239.993 203.798C238.581 202.397 236.675 201.608 234.686 201.602C232.698 201.595 230.787 202.372 229.366 203.764C228.195 204.888 227.268 206.24 226.642 207.737C226.203 208.74 225.88 209.79 225.677 210.865C225.523 211.626 225.495 212.057 225.461 212.051C225.449 211.948 225.449 211.843 225.461 211.739C225.461 211.535 225.501 211.234 225.558 210.848C225.721 209.753 226.019 208.681 226.443 207.658C227.059 206.122 227.989 204.732 229.173 203.577C229.898 202.857 230.757 202.287 231.701 201.899C232.646 201.512 233.658 201.314 234.679 201.318C235.7 201.321 236.711 201.526 237.653 201.921C238.595 202.315 239.449 202.891 240.169 203.616C241.351 204.772 242.275 206.165 242.882 207.703C243.306 208.728 243.599 209.802 243.756 210.899C243.804 211.194 243.836 211.492 243.853 211.79C243.868 211.892 243.87 211.995 243.858 212.097Z" fill="#E0E0E0"/>
<path d="M247.037 212.097C247.009 212.097 246.975 211.665 246.827 210.905C246.628 209.828 246.31 208.778 245.879 207.771C245.253 206.277 244.33 204.925 243.166 203.798C241.754 202.397 239.848 201.608 237.86 201.602C235.871 201.595 233.96 202.372 232.54 203.764C231.37 204.889 230.443 206.241 229.815 207.737C229.381 208.741 229.059 209.79 228.856 210.865C228.702 211.626 228.668 212.057 228.64 212.051C228.624 211.948 228.624 211.843 228.64 211.739C228.656 211.441 228.688 211.143 228.736 210.848C228.897 209.752 229.195 208.68 229.622 207.658C230.238 206.122 231.168 204.732 232.352 203.577C233.077 202.857 233.936 202.287 234.88 201.899C235.825 201.512 236.837 201.314 237.858 201.318C238.879 201.321 239.89 201.526 240.832 201.921C241.773 202.315 242.628 202.891 243.347 203.616C244.528 204.774 245.452 206.166 246.061 207.703C246.479 208.73 246.773 209.803 246.935 210.899C246.982 211.194 247.012 211.492 247.026 211.79C247.044 211.891 247.048 211.995 247.037 212.097Z" fill="#E0E0E0"/>
<path d="M216.373 210.962L252.248 210.689L253.031 259.591H212.774L216.373 210.962Z" fill="#EBEBEB"/>
<path d="M252.248 210.689H256.755L260.632 259.591H253.031L252.248 210.689Z" fill="#E0E0E0"/>
<path d="M244.647 229.943H221.158V233.877H244.647V229.943Z" fill="white"/>
<path d="M44.5086 24.6904H3.57043V92.4553H44.5086V24.6904Z" fill="#E0E0E0"/>
<path d="M43.1463 24.6904H2.20813V92.4553H43.1463V24.6904Z" fill="#EBEBEB"/>
<path d="M41.4037 26.0642H3.95081V91.0817H41.4037V26.0642Z" fill="white"/>
<path d="M34.1095 34.5107H11.0803V82.6296H34.1095V34.5107Z" fill="#EBEBEB"/>
<path d="M11.0861 65.6059C11.035 61.1102 15.0595 56.7223 19.5269 56.0922C21.6498 55.7971 23.9034 56.2171 25.8901 55.4054C29.4265 53.9522 30.5561 49.2465 34.1152 47.8501L34.2798 82.6351H11.0861V65.6059Z" fill="#E0E0E0"/>
<path d="M256.891 65.6912H222.844V101.186H256.891V65.6912Z" fill="#E0E0E0"/>
<path d="M254.587 65.6912H220.54V101.186H254.587V65.6912Z" fill="#F5F5F5"/>
<path d="M254.604 101.208H220.545V65.6797H254.604V101.208ZM220.545 101.208H254.604V65.7024H220.545V101.208Z" fill="#E0E0E0"/>
<path d="M250.011 70.4648H225.115V96.4174H250.011V70.4648Z" fill="white"/>
<path d="M225.115 96.5876C224.94 96.85 224.734 97.0901 224.502 97.3029C224.104 97.7229 223.548 98.2906 222.918 98.9036C222.288 99.5167 221.72 100.073 221.295 100.459C221.079 100.688 220.837 100.89 220.574 101.061C220.749 100.801 220.955 100.563 221.187 100.351C221.584 99.931 222.14 99.3634 222.77 98.7447C223.4 98.126 223.974 97.5753 224.4 97.1837C224.614 96.9578 224.854 96.7578 225.115 96.5876Z" fill="#E0E0E0"/>
<path d="M250.011 96.5254C250.274 96.7 250.514 96.9059 250.727 97.1384C251.147 97.5358 251.714 98.0921 252.327 98.7222C252.94 99.3522 253.497 99.9199 253.888 100.346C254.115 100.562 254.315 100.804 254.484 101.067C254.225 100.891 253.986 100.685 253.775 100.453C253.355 100.056 252.787 99.4942 252.169 98.8697C251.55 98.2453 250.999 97.6607 250.607 97.2406C250.382 97.0262 250.182 96.7862 250.011 96.5254Z" fill="#E0E0E0"/>
<path d="M249.943 70.5557C250.12 70.2951 250.326 70.0552 250.556 69.8405C250.954 69.4204 251.516 68.8528 252.14 68.2341C252.765 67.6153 253.344 67.0704 253.764 66.6787C253.979 66.4603 254.221 66.2696 254.484 66.1111C254.31 66.3704 254.106 66.6086 253.877 66.8206C253.48 67.2407 252.918 67.8083 252.288 68.4271C251.658 69.0458 251.084 69.5964 250.659 69.9881C250.443 70.2039 250.203 70.3944 249.943 70.5557Z" fill="#E0E0E0"/>
<path d="M225.047 70.5956C224.784 70.4209 224.544 70.2151 224.331 69.9825C223.917 69.5852 223.349 69.0232 222.731 68.3988C222.112 67.7744 221.561 67.1954 221.175 66.7753C220.946 66.5602 220.744 66.3182 220.574 66.0544C220.834 66.2268 221.073 66.4308 221.283 66.6618C221.703 67.0592 222.277 67.6211 222.89 68.2512C223.503 68.8813 224.065 69.4546 224.451 69.8803C224.676 70.0947 224.876 70.3348 225.047 70.5956Z" fill="#E0E0E0"/>
<path d="M249.943 96.4118C249.941 96.3702 249.941 96.3285 249.943 96.2869C249.943 96.2018 249.943 96.0826 249.943 95.9236C249.943 95.6001 249.943 95.1346 249.943 94.5272C249.943 93.2955 249.943 91.5074 249.943 89.2368C249.943 84.6957 249.943 78.2133 249.892 70.465L249.989 70.5615H225.166L225.279 70.4536C225.279 79.9786 225.279 88.8849 225.279 96.4005L225.183 96.3096L243.16 96.355L248.212 96.3834H249.495H248.172H243.149L225.109 96.4288H225.018V96.3323C225.018 88.8168 225.018 79.9105 225.018 70.3855V70.272H225.132H249.955H250.063V70.3685C250.063 78.1451 250.023 84.639 250.012 89.2028C250.012 91.4733 250.012 93.2444 250.012 94.4705C250.012 95.0381 250.012 95.532 250.012 95.8498C250.012 96.0031 250.012 96.1166 250.012 96.2018C250 96.275 249.977 96.3459 249.943 96.4118Z" fill="#E0E0E0"/>
<path d="M241.713 79.2861H233.408V87.5907H241.713V79.2861Z" fill="#EBEBEB"/>
<path d="M247.616 259.58C247.616 259.659 195.336 259.728 130.858 259.728C66.3799 259.728 14.0889 259.671 14.0889 259.58C14.0889 259.489 66.3572 259.432 130.858 259.432C195.359 259.432 247.616 259.512 247.616 259.58Z" fill="#263238"/>
<path d="M238.511 113.935H212.411C208.025 113.935 204.47 117.49 204.47 121.876V147.976C204.47 152.362 208.025 155.917 212.411 155.917H238.511C242.897 155.917 246.452 152.362 246.452 147.976V121.876C246.452 117.49 242.897 113.935 238.511 113.935Z" fill="#3FCF4B"/>
<path d="M231.155 140.376H228.623C228.548 140.376 228.475 140.346 228.422 140.292C228.369 140.239 228.339 140.167 228.339 140.092C228.339 140.016 228.369 139.944 228.422 139.891C228.475 139.838 228.548 139.808 228.623 139.808H230.865L230.536 130.084C230.533 130.019 230.553 129.955 230.592 129.903C230.632 129.851 230.688 129.815 230.751 129.8C230.815 129.784 230.882 129.792 230.94 129.821C230.998 129.85 231.044 129.899 231.069 129.959L232.171 132.457L235.65 130.714C234.367 128.12 232.92 125.327 232.676 125.078C232.398 124.845 232.089 124.654 231.756 124.51C231.559 124.412 231.356 124.324 231.149 124.249C230.207 123.903 228.878 123.551 228.339 123.414C228.067 123.928 227.657 124.356 227.156 124.651C226.655 124.945 226.082 125.095 225.501 125.083C223.594 124.987 222.85 123.914 222.606 123.414C222.078 123.551 220.75 123.897 219.841 124.232C219.626 124.306 219.415 124.395 219.211 124.499C218.875 124.641 218.561 124.833 218.28 125.066C218.031 125.316 216.578 128.109 215.3 130.703L218.786 132.446L219.881 129.948C219.908 129.889 219.954 129.841 220.012 129.813C220.07 129.784 220.136 129.775 220.199 129.789C220.263 129.804 220.319 129.841 220.359 129.892C220.399 129.944 220.421 130.007 220.42 130.073L220.12 139.808H225.228C225.304 139.808 225.376 139.838 225.429 139.891C225.482 139.944 225.512 140.016 225.512 140.092C225.512 140.167 225.482 140.239 225.429 140.292C225.376 140.346 225.304 140.376 225.228 140.376H219.83C219.753 140.375 219.68 140.345 219.626 140.29C219.575 140.234 219.547 140.162 219.546 140.086L219.785 131.509L219.149 132.956C219.133 132.992 219.11 133.023 219.082 133.05C219.054 133.076 219.021 133.096 218.984 133.11C218.949 133.125 218.912 133.133 218.874 133.133C218.835 133.133 218.798 133.125 218.763 133.11L214.789 131.112C214.724 131.077 214.674 131.017 214.651 130.947C214.627 130.876 214.632 130.799 214.665 130.731C215.124 129.8 217.44 125.129 217.872 124.697C218.193 124.422 218.555 124.198 218.945 124.033C219.156 123.925 219.374 123.831 219.597 123.749C220.823 123.295 222.629 122.858 222.702 122.841C222.737 122.832 222.773 122.829 222.809 122.834C222.844 122.838 222.879 122.85 222.91 122.868C222.941 122.886 222.968 122.91 222.99 122.938C223.012 122.967 223.028 122.999 223.037 123.034C223.037 123.091 223.497 124.448 225.495 124.55C227.482 124.448 227.919 123.045 227.919 123.034C227.928 122.999 227.944 122.967 227.966 122.938C227.988 122.91 228.015 122.886 228.046 122.868C228.077 122.85 228.112 122.838 228.147 122.834C228.183 122.829 228.219 122.832 228.254 122.841C228.333 122.841 230.133 123.295 231.313 123.732H231.348C231.58 123.817 231.808 123.916 232.029 124.027C232.414 124.191 232.772 124.413 233.09 124.686C233.522 125.117 235.838 129.795 236.297 130.72C236.314 130.753 236.323 130.79 236.326 130.827C236.328 130.865 236.323 130.902 236.311 130.937C236.299 130.973 236.28 131.005 236.255 131.033C236.23 131.061 236.2 131.084 236.167 131.1L232.193 133.098C232.158 133.114 232.121 133.122 232.083 133.122C232.044 133.122 232.007 133.114 231.972 133.098C231.936 133.085 231.904 133.065 231.877 133.038C231.849 133.012 231.828 132.98 231.813 132.945L231.183 131.515L231.472 140.075C231.475 140.112 231.469 140.15 231.455 140.186C231.441 140.221 231.42 140.253 231.393 140.279C231.363 140.312 231.326 140.338 231.285 140.355C231.244 140.372 231.199 140.379 231.155 140.376Z" fill="white"/>
<path d="M227.17 140.376H226.369C226.294 140.376 226.222 140.346 226.169 140.292C226.115 140.239 226.085 140.167 226.085 140.092C226.085 140.016 226.115 139.944 226.169 139.891C226.222 139.838 226.294 139.808 226.369 139.808H227.17C227.245 139.808 227.317 139.838 227.37 139.891C227.424 139.944 227.453 140.016 227.453 140.092C227.453 140.167 227.424 140.239 227.37 140.292C227.317 140.346 227.245 140.376 227.17 140.376Z" fill="white"/>
<path d="M213.734 144.139H212.28V143.282H216.254V144.139H214.801V147.829H213.734V144.139Z" fill="white"/>
<path d="M216.367 145.592H218.201V146.404H216.367V145.592Z" fill="white"/>
<path d="M218.627 147.38L218.984 146.585C219.425 146.891 219.947 147.057 220.483 147.062C221.107 147.062 221.357 146.852 221.357 146.574C221.357 145.722 218.718 146.307 218.718 144.616C218.718 143.844 219.336 143.202 220.63 143.202C221.183 143.19 221.729 143.33 222.209 143.605L221.885 144.406C221.504 144.177 221.069 144.054 220.625 144.048C220 144.048 219.762 144.281 219.762 144.564C219.762 145.405 222.407 144.826 222.407 146.494C222.407 147.255 221.777 147.902 220.477 147.902C219.822 147.92 219.176 147.738 218.627 147.38Z" fill="white"/>
<path d="M227.295 143.282V147.823H226.222V145.955H224.155V147.823H223.105V143.282H224.155V145.07H226.222V143.282H227.295Z" fill="white"/>
<path d="M228.367 143.282H229.417V147.823H228.367V143.282Z" fill="white"/>
<path d="M233.391 147.828L232.517 146.557H231.552V147.828H230.496V143.287H232.466C233.68 143.287 234.441 143.917 234.441 144.934C234.453 145.24 234.369 145.544 234.202 145.801C234.034 146.058 233.79 146.257 233.504 146.37L234.526 147.834L233.391 147.828ZM232.409 144.139H231.552V145.723H232.409C233.05 145.723 233.374 145.422 233.374 144.928C233.374 144.434 233.033 144.139 232.409 144.139Z" fill="white"/>
<path d="M236.144 144.139H234.691V143.282H238.664V144.139H237.211V147.829H236.155L236.144 144.139Z" fill="white"/>
<path d="M225.983 228.927C225.796 227.688 225.464 226.474 224.996 225.311C224.472 224.063 223.7 222.935 222.725 221.996C221.549 220.825 219.959 220.164 218.299 220.158C216.639 220.152 215.043 220.8 213.859 221.962C212.883 222.898 212.11 224.025 211.588 225.272C211.113 226.432 210.776 227.643 210.583 228.882C210.568 228.795 210.568 228.707 210.583 228.621C210.595 228.37 210.621 228.119 210.663 227.871C210.793 226.951 211.04 226.051 211.395 225.192C211.907 223.911 212.68 222.752 213.666 221.786C214.274 221.181 214.995 220.701 215.789 220.374C216.583 220.048 217.434 219.881 218.292 219.884C219.15 219.886 220 220.058 220.792 220.39C221.583 220.721 222.302 221.205 222.907 221.815C223.892 222.791 224.665 223.96 225.177 225.249C225.527 226.109 225.769 227.009 225.898 227.928C225.938 228.176 225.963 228.426 225.972 228.677C225.989 228.76 225.993 228.844 225.983 228.927Z" fill="#263238"/>
<path d="M228.645 228.927C228.458 227.688 228.126 226.474 227.658 225.311C227.135 224.063 226.362 222.935 225.387 221.996C224.211 220.825 222.621 220.164 220.961 220.158C219.301 220.152 217.706 220.8 216.521 221.962C215.548 222.9 214.775 224.026 214.25 225.272C213.778 226.432 213.443 227.644 213.251 228.882C213.236 228.795 213.236 228.707 213.251 228.621C213.263 228.37 213.288 228.12 213.325 227.871C213.461 226.952 213.709 226.052 214.063 225.192C214.575 223.911 215.348 222.752 216.333 221.786C216.942 221.181 217.663 220.701 218.457 220.374C219.251 220.048 220.101 219.881 220.96 219.884C221.818 219.886 222.668 220.058 223.459 220.39C224.251 220.721 224.97 221.205 225.575 221.815C226.563 222.789 227.336 223.958 227.845 225.249C228.197 226.109 228.441 227.009 228.572 227.928C228.612 228.176 228.636 228.426 228.645 228.677C228.659 228.76 228.659 228.844 228.645 228.927Z" fill="#263238"/>
<path d="M201.626 227.332L231.682 227.151L232.335 259.773H198.612L201.626 227.332Z" fill="#3FCF4B"/>
<path d="M231.682 227.151H235.452L238.704 259.773H232.335L231.682 227.151Z" fill="#263238"/>
<path d="M226.557 238.231H206.882V241.529H226.557V238.231Z" fill="white"/>
<path d="M203.295 246.819H62.4291C61.507 246.804 60.5969 246.607 59.751 246.239C58.905 245.872 58.1396 245.342 57.4987 244.679C56.8577 244.016 56.3536 243.233 56.0152 242.375C55.6769 241.517 55.5109 240.601 55.5266 239.678V24.3498C55.5101 23.4269 55.6755 22.5098 56.0135 21.6508C56.3514 20.7919 56.8553 20.0079 57.4963 19.3438C58.1373 18.6796 58.9028 18.1482 59.7492 17.7799C60.5956 17.4117 61.5063 17.2138 62.4291 17.1975H203.3C204.223 17.2138 205.134 17.4117 205.98 17.7799C206.827 18.1482 207.592 18.6796 208.233 19.3438C208.874 20.0079 209.378 20.7919 209.716 21.6508C210.054 22.5098 210.219 23.4269 210.203 24.3498V239.678C210.233 241.541 209.523 243.34 208.227 244.679C206.932 246.018 205.158 246.788 203.295 246.819Z" fill="#E0E0E0"/>
<path d="M203.295 246.819L203.789 246.785C203.991 246.776 204.192 246.751 204.39 246.711C204.671 246.669 204.947 246.606 205.219 246.524C205.985 246.287 206.703 245.919 207.342 245.434C208.228 244.766 208.942 243.896 209.425 242.897C209.717 242.3 209.925 241.666 210.044 241.012C210.154 240.282 210.194 239.542 210.163 238.804C210.163 237.249 210.163 235.546 210.163 233.695C210.163 230.011 210.163 225.748 210.163 220.975C210.163 201.834 210.135 174.133 210.112 139.91C210.112 122.796 210.112 104.052 210.112 83.9292C210.112 73.8707 210.112 63.4772 210.112 52.7488C210.112 47.3864 210.112 41.9485 210.112 36.4348V28.1188C210.112 26.7281 210.112 25.3147 210.112 23.924C210.081 23.2333 209.944 22.5515 209.703 21.9032C209.35 20.9198 208.779 20.0285 208.035 19.2955C207.29 18.5624 206.39 18.0064 205.401 17.6686C204.733 17.4622 204.039 17.3532 203.34 17.345H62.4462C60.835 17.3508 59.2804 17.9396 58.0697 19.0025C56.871 20.0678 56.0703 21.5091 55.7991 23.0896C55.6897 23.8849 55.6517 24.6885 55.6856 25.4907V89.5489C55.6856 114.173 55.6856 137.929 55.6856 160.561C55.6856 183.192 55.6856 204.689 55.6856 224.812C55.6856 229.849 55.6856 234.793 55.6856 239.644C55.6924 240.831 55.9824 241.998 56.5314 243.05C57.3671 244.624 58.7785 245.813 60.4708 246.371C61.0236 246.541 61.5958 246.64 62.1737 246.666C63.343 246.7 64.5237 246.666 65.6874 246.666H92.5481L173.607 246.711L195.649 246.74L173.607 246.768L92.5481 246.814H65.6874C64.5181 246.814 63.3544 246.814 62.1623 246.814C61.5615 246.79 60.9662 246.689 60.3913 246.513C58.6416 245.935 57.182 244.705 56.3156 243.079C55.7432 241.988 55.4433 240.774 55.4415 239.542C55.4415 234.687 55.4415 229.743 55.4415 224.71C55.4415 204.587 55.4415 183.085 55.4415 160.458C55.4415 137.832 55.4415 114.071 55.4415 89.4467V25.502C55.4081 24.6827 55.448 23.862 55.5607 23.0498C55.8447 21.401 56.6839 19.8988 57.9391 18.7925C59.2015 17.7018 60.8119 17.0979 62.4802 17.0896H203.272C204 17.0975 204.723 17.2122 205.418 17.4302C206.798 17.8923 208.003 18.7683 208.869 19.9392C209.305 20.5116 209.648 21.1496 209.885 21.8294C210.135 22.5033 210.281 23.2116 210.316 23.9297C210.356 25.3488 210.316 26.7679 210.316 28.1359V36.4405C210.316 41.9503 210.316 47.3883 210.316 52.7544C210.316 63.4715 210.316 73.865 210.316 83.9349C210.316 104.058 210.316 122.801 210.316 139.916C210.316 174.139 210.282 201.839 210.271 220.98C210.271 225.766 210.271 230.017 210.271 233.701C210.271 235.54 210.271 237.243 210.271 238.81C210.301 239.552 210.257 240.296 210.14 241.029C210.02 241.689 209.808 242.33 209.51 242.931C209.018 243.935 208.294 244.809 207.399 245.48C206.74 245.954 206.002 246.308 205.219 246.524C204.947 246.606 204.671 246.669 204.39 246.711C204.189 246.747 203.987 246.77 203.783 246.78L203.295 246.819Z" fill="#263238"/>
<path d="M135.558 236.375C135.582 237.677 135.217 238.958 134.51 240.053C133.804 241.148 132.787 242.007 131.59 242.522C130.393 243.037 129.069 243.183 127.789 242.943C126.508 242.703 125.328 242.087 124.398 241.174C123.469 240.261 122.832 239.091 122.57 237.815C122.307 236.539 122.431 235.213 122.925 234.007C123.419 232.801 124.26 231.77 125.343 231.044C126.425 230.318 127.699 229.931 129.002 229.932C129.855 229.924 130.702 230.085 131.494 230.405C132.285 230.725 133.006 231.197 133.614 231.795C134.223 232.394 134.708 233.106 135.042 233.892C135.375 234.677 135.551 235.521 135.558 236.375Z" fill="white"/>
<path d="M148.71 29.3448H117.121C116.531 29.3271 115.971 29.0801 115.56 28.6562C115.148 28.2323 114.919 27.6648 114.919 27.0743C114.919 26.4837 115.148 25.9163 115.56 25.4924C115.971 25.0684 116.531 24.8214 117.121 24.8037H148.71C149.301 24.8214 149.861 25.0684 150.272 25.4924C150.683 25.9163 150.913 26.4837 150.913 27.0743C150.913 27.6648 150.683 28.2323 150.272 28.6562C149.861 29.0801 149.301 29.3271 148.71 29.3448Z" fill="#263238"/>
<path d="M205.191 33.5908H60.2664V225.34H205.191V33.5908Z" fill="white"/>
<path d="M205.219 225.345C205.219 224.182 205.162 147.238 205.088 33.5909L205.219 33.7214H60.3118L60.4594 33.5739C60.4594 104.949 60.4594 171.124 60.431 225.328L60.3118 225.204L205.236 225.328L60.3118 225.448H60.1926V225.328C60.1926 171.124 60.1926 104.949 60.1926 33.5739V33.4263H60.3516H205.259H205.389V33.5568C205.219 147.238 205.219 224.182 205.219 225.345Z" fill="#263238"/>
<path d="M49.1179 44.2002H77.1366V62.9323C77.1366 66.3678 75.7719 69.6626 73.3426 72.0919C70.9134 74.5211 67.6186 75.8859 64.1831 75.8859H62.0715C58.6379 75.8859 55.3449 74.5227 52.9159 72.0959C50.487 69.6691 49.1209 66.3772 49.1179 62.9437V44.2115V44.2002Z" fill="#3FCF4B"/>
<path d="M76.9324 44.2002H104.951V62.9323C104.951 66.3678 103.586 69.6626 101.157 72.0919C98.7278 74.5211 95.433 75.8859 91.9975 75.8859H89.8859C86.4524 75.8859 83.1593 74.5227 80.7304 72.0959C78.3015 69.6691 76.9354 66.3772 76.9324 62.9437V44.2115V44.2002Z" fill="#3FCF4B"/>
<path d="M104.747 44.2002H132.765V62.9323C132.765 66.3678 131.401 69.6626 128.971 72.0919C126.542 74.5211 123.247 75.8859 119.812 75.8859H117.7C114.267 75.8859 110.974 74.5227 108.545 72.0959C106.116 69.6691 104.75 66.3772 104.747 62.9437V44.2115V44.2002Z" fill="#3FCF4B"/>
<path d="M132.561 44.2002H160.574V62.9323C160.574 66.3678 159.209 69.6626 156.78 72.0919C154.351 74.5211 151.056 75.8859 147.621 75.8859H145.509C142.076 75.8844 138.785 74.5205 136.357 72.0939C133.929 69.6672 132.564 66.3762 132.561 62.9437V44.2115V44.2002Z" fill="#3FCF4B"/>
<path d="M160.33 44.2002H188.349V62.9323C188.349 66.3678 186.984 69.6626 184.555 72.0919C182.126 74.5211 178.831 75.8859 175.395 75.8859H173.284C169.848 75.8859 166.553 74.5211 164.124 72.0919C161.695 69.6626 160.33 66.3678 160.33 62.9323V44.2002Z" fill="#3FCF4B"/>
<path d="M188.127 44.2002H216.146V62.9323C216.146 66.3678 214.781 69.6626 212.352 72.0919C209.923 74.5211 206.628 75.8859 203.192 75.8859H201.081C197.645 75.8859 194.351 74.5211 191.921 72.0919C189.492 69.6626 188.127 66.3678 188.127 62.9323V44.2002Z" fill="#3FCF4B"/>
<g opacity="0.3">
<path d="M76.9324 44.2002H104.951V62.9323C104.951 66.3678 103.586 69.6626 101.157 72.0919C98.7278 74.5211 95.433 75.8859 91.9975 75.8859H89.8859C86.4524 75.8859 83.1593 74.5227 80.7304 72.0959C78.3015 69.6691 76.9354 66.3772 76.9324 62.9437V44.2115V44.2002Z" fill="white"/>
</g>
<g opacity="0.3">
<path d="M132.561 44.2002H160.574V62.9323C160.574 66.3678 159.209 69.6626 156.78 72.0919C154.351 74.5211 151.056 75.8859 147.621 75.8859H145.509C142.076 75.8844 138.785 74.5205 136.357 72.0939C133.929 69.6672 132.564 66.3762 132.561 62.9437V44.2115V44.2002Z" fill="white"/>
</g>
<g opacity="0.3">
<path d="M188.127 44.2002H216.146V62.9323C216.146 66.3678 214.781 69.6626 212.352 72.0919C209.923 74.5211 206.628 75.8859 203.192 75.8859H201.081C197.645 75.8859 194.351 74.5211 191.921 72.0919C189.492 69.6626 188.127 66.3678 188.127 62.9323V44.2002Z" fill="white"/>
</g>
<path d="M77.165 43.8765C77.2445 43.8765 77.3126 48.7922 77.3126 54.8546C77.3126 60.917 77.2445 65.8328 77.165 65.8328C77.0856 65.8328 77.0175 60.917 77.0175 54.8546C77.0175 48.7922 77.0856 43.8765 77.165 43.8765Z" fill="#263238"/>
<path d="M104.962 43.8765C105.042 43.8765 105.104 48.7922 105.104 54.8546C105.104 60.917 105.042 65.8328 104.962 65.8328C104.883 65.8328 104.815 60.917 104.815 54.8546C104.815 48.7922 104.877 43.8765 104.962 43.8765Z" fill="#263238"/>
<path d="M132.76 43.8765C132.839 43.8765 132.902 48.7922 132.902 54.8546C132.902 60.917 132.839 65.8328 132.76 65.8328C132.68 65.8328 132.612 60.917 132.612 54.8546C132.612 48.7922 132.675 43.8765 132.76 43.8765Z" fill="#263238"/>
<path d="M160.551 43.8765C160.636 43.8765 160.699 48.7922 160.699 54.8546C160.699 60.917 160.636 65.8328 160.551 65.8328C160.466 65.8328 160.409 60.917 160.409 54.8546C160.409 48.7922 160.472 43.8765 160.551 43.8765Z" fill="#263238"/>
<path d="M188.349 43.8765C188.434 43.8765 188.496 48.7922 188.496 54.8546C188.496 60.917 188.434 65.8328 188.349 65.8328C188.264 65.8328 188.19 60.9057 188.19 54.8319C188.19 48.7582 188.269 43.8765 188.349 43.8765Z" fill="#263238"/>
<path d="M216.146 44.2568L205.293 33.5908H60.3175L49.1464 44.2568H216.146Z" fill="#3FCF4B"/>
<path d="M212.173 44.1093C212.173 44.1888 175.673 44.2853 130.665 44.3307C85.657 44.3761 49.1464 44.3307 49.1464 44.2569C49.1464 44.1831 85.6343 44.0752 130.665 44.0355C175.696 43.9958 212.173 44.0241 212.173 44.1093Z" fill="#263238"/>
<path d="M94.5008 139.711H76.359C75.2962 139.711 74.4347 140.573 74.4347 141.636V142.283C74.4347 143.346 75.2962 144.207 76.359 144.207H94.5008C95.5635 144.207 96.4251 143.346 96.4251 142.283V141.636C96.4251 140.573 95.5635 139.711 94.5008 139.711Z" fill="#E0E0E0"/>
<path d="M121.208 139.41H114.408C113.345 139.41 112.484 140.272 112.484 141.335V141.641C112.484 142.704 113.345 143.566 114.408 143.566H121.208C122.271 143.566 123.133 142.704 123.133 141.641V141.335C123.133 140.272 122.271 139.41 121.208 139.41Z" fill="#3FCF4B"/>
<path d="M94.5008 213.641H76.359C75.2962 213.641 74.4347 214.502 74.4347 215.565V216.212C74.4347 217.275 75.2962 218.136 76.359 218.136H94.5008C95.5635 218.136 96.4251 217.275 96.4251 216.212V215.565C96.4251 214.502 95.5635 213.641 94.5008 213.641Z" fill="#E0E0E0"/>
<path d="M119.392 213.641H111.723C110.66 213.641 109.799 214.502 109.799 215.565V216.212C109.799 217.275 110.66 218.136 111.723 218.136H119.392C120.455 218.136 121.316 217.275 121.316 216.212V215.565C121.316 214.502 120.455 213.641 119.392 213.641Z" fill="#3FCF4B"/>
<path d="M166.875 140.358H148.733C147.67 140.358 146.809 141.22 146.809 142.283V142.93C146.809 143.993 147.67 144.854 148.733 144.854H166.875C167.938 144.854 168.799 143.993 168.799 142.93V142.283C168.799 141.22 167.938 140.358 166.875 140.358Z" fill="#E0E0E0"/>
<path d="M191.84 140.358H184.171C183.108 140.358 182.247 141.22 182.247 142.283V142.93C182.247 143.993 183.108 144.854 184.171 144.854H191.84C192.902 144.854 193.764 143.993 193.764 142.93V142.283C193.764 141.22 192.902 140.358 191.84 140.358Z" fill="#3FCF4B"/>
<path d="M167.125 214.294H148.983C147.92 214.294 147.059 215.155 147.059 216.218V216.865C147.059 217.928 147.92 218.789 148.983 218.789H167.125C168.187 218.789 169.049 217.928 169.049 216.865V216.218C169.049 215.155 168.187 214.294 167.125 214.294Z" fill="#E0E0E0"/>
<path d="M192.089 214.294H184.421C183.358 214.294 182.496 215.155 182.496 216.218V216.865C182.496 217.928 183.358 218.789 184.421 218.789H192.089C193.152 218.789 194.014 217.928 194.014 216.865V216.218C194.014 215.155 193.152 214.294 192.089 214.294Z" fill="#3FCF4B"/>
<path d="M115.668 81.4827H77.1821C73.5298 81.4827 70.5691 84.4434 70.5691 88.0957V126.582C70.5691 130.234 73.5298 133.195 77.1821 133.195H115.668C119.32 133.195 122.281 130.234 122.281 126.582V88.0957C122.281 84.4434 119.32 81.4827 115.668 81.4827Z" fill="#FAFAFA"/>
<path d="M115.674 133.2C115.674 133.2 115.844 133.2 116.173 133.161C116.664 133.111 117.148 133.016 117.621 132.877C118.381 132.623 119.092 132.239 119.721 131.742C120.577 131.063 121.252 130.184 121.685 129.181C121.937 128.583 122.103 127.953 122.179 127.308C122.236 126.633 122.213 125.912 122.213 125.157C122.213 123.653 122.213 122.018 122.213 120.264C122.213 116.75 122.213 112.748 122.213 108.343C122.213 103.938 122.213 99.0795 122.213 93.8799C122.213 92.5781 122.213 91.2536 122.213 89.9064C122.213 88.5668 122.332 87.1817 121.821 85.9046C121.352 84.5982 120.477 83.4764 119.324 82.7031C118.127 81.9241 116.714 81.5446 115.288 81.6189H77.2559C75.6074 81.6203 74.0216 82.2508 72.8222 83.3816C71.6228 84.5125 70.9002 86.0584 70.8018 87.704C70.7621 90.9736 70.8018 94.2205 70.8018 97.3993C70.8018 103.763 70.8018 109.887 70.8018 115.751C70.8018 118.676 70.8018 121.524 70.8018 124.294C70.8018 124.987 70.8018 125.673 70.8018 126.36C70.7896 127.025 70.8738 127.689 71.0516 128.33C71.402 129.59 72.1264 130.714 73.1291 131.554C74.0939 132.37 75.2792 132.882 76.535 133.024C77.1488 133.071 77.7645 133.086 78.3798 133.07H87.1499L108.101 133.121H113.778L108.101 133.149L87.1499 133.195H80.2133H78.3798C77.7668 133.195 77.148 133.195 76.5066 133.149C75.8666 133.069 75.2403 132.903 74.6447 132.655C74.0441 132.39 73.4811 132.046 72.9702 131.634C71.9324 130.759 71.1793 129.595 70.8075 128.29C70.6233 127.627 70.5372 126.941 70.5521 126.252C70.5521 125.566 70.5521 124.879 70.5521 124.186C70.5521 121.416 70.5521 118.568 70.5521 115.643C70.5521 109.797 70.5521 103.655 70.5521 97.2914C70.5521 94.107 70.5521 90.8828 70.5521 87.5791C70.6795 85.8985 71.4311 84.3264 72.6591 83.1719C73.887 82.0175 75.5025 81.3643 77.1878 81.3407H115.22C116.699 81.2669 118.164 81.6644 119.403 82.476C120.599 83.2839 121.507 84.4506 121.997 85.8081C122.237 86.4676 122.369 87.1614 122.389 87.8629C122.389 88.5498 122.389 89.2196 122.389 89.8951V93.8686C122.389 99.0681 122.389 103.91 122.389 108.332C122.389 112.754 122.389 116.756 122.389 120.252C122.389 122.006 122.389 123.658 122.389 125.146C122.389 125.9 122.389 126.621 122.338 127.314C122.256 127.968 122.084 128.608 121.827 129.216C121.377 130.229 120.685 131.116 119.812 131.798C119.171 132.299 118.446 132.684 117.672 132.934C117.196 133.069 116.707 133.155 116.213 133.189L115.674 133.2Z" fill="#3FCF4B"/>
<path d="M117.064 105.874C117.064 105.874 111.723 95.055 110.906 94.2319C110.314 93.7444 109.657 93.343 108.953 93.0398C108.555 92.8346 108.143 92.6564 107.721 92.5063L107.636 92.4722C105.331 91.6207 101.721 90.7693 101.721 90.7693C101.721 90.7693 100.802 93.9027 96.4251 94.1297C92.0543 93.9027 91.1347 90.7693 91.1347 90.7693C91.1347 90.7693 87.5188 91.6435 85.2199 92.4722L85.1291 92.5063C84.7088 92.6563 84.2991 92.8345 83.903 93.0398C83.1976 93.3403 82.5398 93.7419 81.9503 94.2319C81.1272 95.055 75.7914 105.874 75.7914 105.874L83.5964 109.78L85.9692 104.381L85.4469 123.914H107.585L106.921 104.359L109.293 109.757L117.064 105.874Z" fill="#3FCF4B"/>
<path d="M85.9691 109.223C85.9062 108.63 85.8872 108.032 85.9124 107.435C85.9124 106.3 85.9124 104.779 85.9578 103.036V103.093L85.6456 102.321C84.9303 100.516 84.2946 98.8809 83.8461 97.6946C83.6248 97.0985 83.4488 96.616 83.3353 96.2755C83.2634 96.1062 83.212 95.929 83.182 95.7476C83.2897 95.8975 83.3757 96.0618 83.4375 96.2357C83.5907 96.5593 83.7951 97.0304 84.0391 97.6151C84.533 98.7844 85.1744 100.408 85.918 102.207C86.0202 102.474 86.1281 102.735 86.2246 102.985V103.013C86.1848 104.756 86.1337 106.3 86.0826 107.413C86.0927 108.018 86.0547 108.624 85.9691 109.223Z" fill="#263238"/>
<path d="M106.836 109.223C106.748 108.633 106.704 108.037 106.705 107.441C106.654 106.306 106.603 104.784 106.563 103.042V103.013C106.66 102.764 106.762 102.502 106.87 102.236C107.585 100.436 108.249 98.8298 108.749 97.6434C108.993 97.0758 109.197 96.5876 109.345 96.2641C109.492 95.9405 109.583 95.7646 109.606 95.7759C109.576 95.9573 109.524 96.1346 109.452 96.3038C109.339 96.6444 109.163 97.1269 108.936 97.7229C108.493 98.9093 107.857 100.561 107.142 102.349L106.83 103.121V103.064C106.864 104.807 106.875 106.351 106.875 107.464C106.907 108.05 106.894 108.639 106.836 109.223Z" fill="#263238"/>
<path d="M102.516 107.339C102.516 107.339 102.737 107.339 103.112 107.22C103.569 107.096 103.984 106.848 104.31 106.503C104.635 106.159 104.859 105.731 104.957 105.267C105.008 104.809 105.021 104.348 104.996 103.888C104.996 102.883 104.996 101.77 104.996 100.578L105.138 100.714H98.9681L99.11 100.573C99.11 101.884 99.11 103.116 99.11 104.228C99.11 104.506 99.11 104.796 99.11 105.023C99.1453 105.357 99.2486 105.681 99.4135 105.973C99.5785 106.266 99.8017 106.522 100.069 106.726C100.57 107.113 101.191 107.313 101.823 107.293C102.057 107.286 102.291 107.301 102.522 107.339C102.291 107.381 102.057 107.398 101.823 107.39C101.163 107.456 100.5 107.278 99.9615 106.89C99.5811 106.615 99.2797 106.246 99.0873 105.818C98.9809 105.575 98.9101 105.319 98.8773 105.057C98.8489 104.779 98.8773 104.489 98.8489 104.234C98.8489 103.099 98.8489 101.889 98.8489 100.578V100.436H105.258V100.578C105.258 101.77 105.258 102.883 105.258 103.888C105.277 104.362 105.252 104.837 105.184 105.307C105.088 105.725 104.893 106.114 104.616 106.442C104.241 106.9 103.72 107.214 103.14 107.333C102.989 107.367 102.835 107.382 102.68 107.379C102.573 107.356 102.516 107.35 102.516 107.339Z" fill="#263238"/>
<path d="M115.668 154.742H77.1821C73.5298 154.742 70.5691 157.703 70.5691 161.355V199.841C70.5691 203.494 73.5298 206.454 77.1821 206.454H115.668C119.32 206.454 122.281 203.494 122.281 199.841V161.355C122.281 157.703 119.32 154.742 115.668 154.742Z" fill="#FAFAFA"/>
<path d="M115.674 206.46C115.674 206.46 115.844 206.46 116.173 206.415C116.664 206.371 117.149 206.277 117.621 206.137C118.381 205.883 119.092 205.499 119.721 205.001C120.577 204.323 121.252 203.444 121.685 202.441C121.937 201.843 122.103 201.213 122.179 200.568C122.236 199.893 122.213 199.172 122.213 198.417C122.213 196.913 122.213 195.278 122.213 193.524C122.213 190.01 122.213 186.008 122.213 181.603C122.213 177.198 122.213 172.339 122.213 167.14C122.213 165.842 122.213 164.517 122.213 163.166C122.213 161.827 122.332 160.442 121.821 159.193C121.352 157.887 120.476 156.765 119.324 155.991C118.127 155.212 116.714 154.833 115.288 154.907H77.2558C75.6074 154.909 74.0216 155.539 72.8221 156.67C71.6227 157.801 70.9001 159.347 70.8018 160.992C70.762 164.256 70.8018 167.509 70.8018 170.688C70.8018 177.051 70.8018 183.176 70.8018 189.039C70.8018 191.965 70.8018 194.812 70.8018 197.582C70.8018 198.275 70.8018 198.962 70.8018 199.649C70.7896 200.314 70.8737 200.977 71.0515 201.618C71.4036 202.878 72.1277 204.001 73.1291 204.842C74.0939 205.659 75.2792 206.17 76.5349 206.313C77.1487 206.359 77.7644 206.374 78.3798 206.358H87.1498L108.101 206.409L87.1498 206.455H78.2719C77.6589 206.455 77.0401 206.455 76.3987 206.409C75.7587 206.329 75.1324 206.163 74.5368 205.915C73.9362 205.65 73.3732 205.306 72.8623 204.894C71.8415 204.056 71.0862 202.94 70.6882 201.681C70.504 201.018 70.4179 200.331 70.4328 199.643C70.4328 198.956 70.4328 198.269 70.4328 197.577C70.4328 194.807 70.4328 191.959 70.4328 189.034C70.4328 183.187 70.4328 177.045 70.4328 170.682C70.4328 167.497 70.4328 164.268 70.4328 160.97C70.5328 159.249 71.287 157.632 72.5408 156.45C73.7947 155.268 75.4532 154.611 77.1764 154.612H115.208C116.688 154.538 118.153 154.936 119.392 155.747C120.588 156.555 121.496 157.722 121.986 159.079C122.226 159.739 122.358 160.433 122.378 161.134C122.378 161.821 122.378 162.491 122.378 163.166V167.14C122.378 172.339 122.378 177.181 122.378 181.603C122.378 186.025 122.378 190.027 122.378 193.524C122.378 195.278 122.378 196.93 122.378 198.417C122.378 199.172 122.378 199.893 122.326 200.585C122.245 201.238 122.073 201.876 121.816 202.481C121.367 203.497 120.675 204.386 119.8 205.07C119.159 205.571 118.435 205.955 117.66 206.205C117.184 206.34 116.695 206.426 116.202 206.46H115.674Z" fill="#E0E0E0"/>
<path d="M101.721 164.006C101.721 164.006 105.331 164.881 107.636 165.709L107.721 165.743C108.143 165.893 108.555 166.072 108.953 166.277C109.657 166.58 110.314 166.981 110.906 167.469C111.723 168.292 117.064 179.111 117.064 179.111L109.254 183.017L106.881 177.618L107.545 197.174H85.4469L85.9861 177.618L83.6134 183.017L75.797 179.134C75.797 179.134 81.1328 168.315 81.9559 167.492C82.5455 167.002 83.2033 166.6 83.9086 166.3C84.3048 166.094 84.7144 165.916 85.1347 165.766L85.2255 165.732C87.5244 164.881 91.1403 164.029 91.1403 164.029L91.759 161.923L96.2377 164.909L101.25 161.923L101.721 164.006Z" fill="#E0E0E0"/>
<path d="M85.9691 182.483C85.9062 181.889 85.8872 181.291 85.9124 180.695C85.9124 179.56 85.9124 178.038 85.9578 176.296V176.352L85.6456 175.575C84.9303 173.775 84.2946 172.141 83.8461 170.954C83.6248 170.358 83.4488 169.876 83.3353 169.535C83.2621 169.364 83.2106 169.185 83.182 169.001C83.2871 169.155 83.3729 169.321 83.4375 169.495C83.5907 169.819 83.7951 170.29 84.0391 170.875C84.533 172.044 85.1744 173.667 85.918 175.467C86.0202 175.734 86.1281 175.995 86.2246 176.245V176.273V176.301C86.1848 178.044 86.1337 179.588 86.0826 180.701C86.0912 181.297 86.0532 181.893 85.9691 182.483Z" fill="#263238"/>
<path d="M107.051 182.642C106.94 182.038 106.873 181.427 106.853 180.814C106.767 179.679 106.665 178.089 106.563 176.307V176.273V176.245L106.836 175.546C107.562 173.724 108.238 172.084 108.737 170.897C108.987 170.33 109.191 169.83 109.345 169.501C109.406 169.322 109.494 169.154 109.606 169.001C109.579 169.197 109.525 169.388 109.447 169.569C109.333 169.904 109.152 170.398 108.93 171C108.476 172.203 107.835 173.838 107.108 175.677L106.83 176.375V176.313C106.921 178.095 106.989 179.684 107.029 180.854C107.081 181.448 107.088 182.046 107.051 182.642Z" fill="#263238"/>
<path d="M102.516 180.598C102.516 180.598 102.737 180.598 103.112 180.479C103.569 180.355 103.984 180.107 104.31 179.763C104.635 179.418 104.859 178.99 104.957 178.526C105.008 178.069 105.021 177.607 104.996 177.147C104.996 176.142 104.996 175.03 104.996 173.838L105.138 173.974H98.9681L99.11 173.832C99.11 175.143 99.11 176.375 99.11 177.488C99.11 177.766 99.11 178.055 99.11 178.282C99.1453 178.617 99.2486 178.94 99.4135 179.233C99.5785 179.526 99.8017 179.782 100.069 179.985C100.57 180.372 101.191 180.573 101.823 180.553C102.057 180.545 102.291 180.56 102.522 180.598C102.291 180.641 102.057 180.658 101.823 180.649C101.163 180.715 100.5 180.538 99.9615 180.15C99.5811 179.875 99.2797 179.505 99.0873 179.077C98.9809 178.835 98.9101 178.579 98.8773 178.316C98.8489 178.038 98.8773 177.749 98.8489 177.493C98.8489 176.358 98.8489 175.149 98.8489 173.838V173.696H105.258V173.866C105.258 175.058 105.258 176.171 105.258 177.175C105.277 177.65 105.252 178.125 105.184 178.595C105.086 179.012 104.892 179.401 104.616 179.73C104.241 180.187 103.72 180.502 103.14 180.621C102.989 180.655 102.835 180.67 102.68 180.666C102.573 180.615 102.516 180.61 102.516 180.598Z" fill="#263238"/>
<path d="M84.4648 181.064C83.1215 180.539 81.8166 179.92 80.5595 179.213C79.2552 178.595 77.994 177.89 76.7847 177.102C78.1296 177.627 79.4364 178.246 80.6957 178.952C81.9965 179.574 83.2555 180.279 84.4648 181.064Z" fill="#263238"/>
<path d="M188.65 82.2888H150.164C146.511 82.2888 143.551 85.2496 143.551 88.9018V127.388C143.551 131.04 146.511 134.001 150.164 134.001H188.65C192.302 134.001 195.263 131.04 195.263 127.388V88.9018C195.263 85.2496 192.302 82.2888 188.65 82.2888Z" fill="#FAFAFA"/>
<path d="M188.65 134.001L189.155 133.961C189.644 133.917 190.127 133.822 190.597 133.677C191.359 133.427 192.07 133.043 192.697 132.542C193.556 131.865 194.233 130.985 194.667 129.982C194.914 129.384 195.078 128.756 195.155 128.114C195.217 127.439 195.189 126.718 195.194 125.963C195.194 124.459 195.194 122.824 195.194 121.07C195.194 117.55 195.194 113.554 195.194 109.149C195.194 104.745 195.194 99.8798 195.194 94.6803C195.194 93.3785 195.194 92.054 195.194 90.7068C195.194 89.3615 195.308 87.9821 194.803 86.7333C194.333 85.4256 193.455 84.3034 192.3 83.5318C191.104 82.7496 189.69 82.3698 188.264 82.4476H150.232C148.584 82.4477 146.999 83.0771 145.801 84.2071C144.602 85.3372 143.88 86.8825 143.783 88.527C143.744 91.7967 143.783 95.0492 143.783 98.228C143.783 104.591 143.783 110.716 143.783 116.58C143.783 119.505 143.783 122.353 143.783 125.123V127.183C143.77 127.85 143.852 128.515 144.027 129.159C144.384 130.414 145.107 131.535 146.105 132.377C146.593 132.782 147.136 133.116 147.717 133.371C148.29 133.613 148.894 133.773 149.511 133.847C150.126 133.896 150.744 133.913 151.361 133.899H153.189H160.131L181.077 133.944L186.754 133.972L181.077 134.001L160.131 134.052H151.253C150.64 134.052 150.016 134.052 149.375 134.001C148.734 133.925 148.108 133.76 147.513 133.513C146.912 133.248 146.35 132.903 145.844 132.485C144.804 131.615 144.05 130.452 143.681 129.147C143.497 128.482 143.41 127.794 143.42 127.104V125.043C143.42 122.273 143.42 119.426 143.42 116.5C143.42 110.648 143.42 104.512 143.42 98.1485C143.42 94.9641 143.42 91.7342 143.42 88.4305C143.539 86.7243 144.301 85.1267 145.551 83.9596C146.801 82.7925 148.448 82.1427 150.158 82.1411H188.19C189.669 82.0692 191.133 82.4666 192.373 83.2764C193.584 84.0818 194.505 85.2534 195.001 86.6198C195.246 87.278 195.378 87.9726 195.393 88.6746C195.393 89.3672 195.393 90.037 195.393 90.7125C195.393 92.0521 195.393 93.3747 195.393 94.6859C195.393 99.8855 195.393 104.733 195.393 109.155C195.393 113.577 195.393 117.573 195.393 121.076C195.393 122.83 195.393 124.481 195.393 125.969C195.393 126.724 195.393 127.439 195.342 128.131C195.262 128.786 195.09 129.426 194.831 130.033C194.386 131.049 193.693 131.937 192.816 132.616C192.179 133.12 191.456 133.505 190.682 133.751C190.205 133.892 189.714 133.977 189.217 134.006C188.82 134.006 188.65 134.001 188.65 134.001Z" fill="#E0E0E0"/>
<path d="M174.6 91.5584C174.6 91.5584 178.211 92.4326 180.515 93.2614L180.6 93.2954C181.022 93.4455 181.434 93.6238 181.832 93.829C182.538 94.1278 183.196 94.5295 183.785 95.021C184.602 95.8385 189.944 106.663 189.944 106.663L182.133 110.569L179.76 105.182L180.424 124.743H158.286L158.826 105.182L156.453 110.586L148.648 106.68C148.648 106.68 153.984 95.8555 154.807 95.0381C155.394 94.5441 156.052 94.1422 156.76 93.846C157.156 93.6407 157.565 93.4624 157.986 93.3124L158.105 93.2614C160.404 92.4099 164.02 91.5584 164.02 91.5584L163.934 87.812H174.498L174.6 91.5584Z" fill="#455A64"/>
<path d="M163.702 124.255L149.323 115.314C148.322 114.588 147.608 113.533 147.306 112.333C147.004 111.134 147.134 109.866 147.672 108.752L148.671 106.68L156.476 110.586L167.261 118.658L163.702 124.255Z" fill="#455A64"/>
<path d="M153.672 108.951C153.741 108.973 153.808 109.004 153.87 109.042L154.438 109.337L156.532 110.512C158.928 112.266 162.839 115.167 167.318 118.538L167.425 118.618L167.357 118.731L166.222 120.542C165.388 121.853 164.582 123.125 163.815 124.323L163.741 124.442L163.622 124.368L154.909 118.89L152.377 117.267L151.702 116.818C151.623 116.771 151.549 116.716 151.48 116.654C151.48 116.654 151.571 116.688 151.73 116.779L152.428 117.182L155.006 118.737L163.781 124.13L163.588 124.175C164.349 122.977 165.155 121.7 165.989 120.395L167.125 118.578L167.164 118.777C162.663 115.371 158.78 112.459 156.425 110.648L154.37 109.411L153.836 109.07C153.776 109.039 153.72 108.998 153.672 108.951Z" fill="#263238"/>
<path d="M174.805 124.084L189.183 115.144C190.183 114.418 190.896 113.363 191.198 112.165C191.5 110.967 191.371 109.701 190.835 108.588L189.836 106.516L182.031 110.421L171.246 118.499L174.805 124.084Z" fill="#455A64"/>
<path d="M184.835 108.781C184.783 108.832 184.723 108.876 184.659 108.911L184.126 109.246L182.071 110.489C179.715 112.294 175.827 115.235 171.331 118.612L171.365 118.419L172.5 120.23L174.901 124.016L174.708 123.971L183.473 118.578L186.05 117.028L186.748 116.62C186.826 116.568 186.91 116.526 186.998 116.495C186.93 116.561 186.853 116.618 186.771 116.665L186.101 117.108L183.569 118.731L174.856 124.209L174.737 124.283L174.663 124.164L172.296 120.383C171.904 119.759 171.513 119.146 171.161 118.567L171.093 118.453L171.2 118.374C175.707 115.002 179.618 112.101 182.014 110.353L184.109 109.178L184.676 108.877C184.725 108.839 184.779 108.806 184.835 108.781Z" fill="#263238"/>
<path d="M165.819 91.9499C165.674 91.281 165.624 90.5949 165.672 89.9121C165.624 89.2293 165.674 88.5431 165.819 87.8743C165.965 88.5431 166.014 89.2293 165.967 89.9121C166.014 90.5949 165.964 91.281 165.819 91.9499Z" fill="#263238"/>
<path d="M168.112 91.9499C167.967 91.281 167.918 90.5949 167.965 89.9121C167.917 89.2293 167.967 88.5431 168.112 87.8743C168.258 88.5431 168.307 89.2293 168.26 89.9121C168.307 90.5949 168.257 91.281 168.112 91.9499Z" fill="#263238"/>
<path d="M170.207 91.9045C170.062 91.2356 170.012 90.5495 170.059 89.8667C170.012 89.1839 170.062 88.4978 170.207 87.8289C170.352 88.4978 170.402 89.1839 170.355 89.8667C170.402 90.5495 170.352 91.2356 170.207 91.9045Z" fill="#263238"/>
<path d="M172.523 91.9045C172.378 91.2356 172.328 90.5495 172.375 89.8667C172.328 89.1839 172.378 88.4978 172.523 87.8289C172.668 88.4978 172.718 89.1839 172.671 89.8667C172.718 90.5495 172.668 91.2356 172.523 91.9045Z" fill="#263238"/>
<path d="M179.942 108.951H159.11L158.865 103.643H179.584L179.942 108.951Z" fill="#E0E0E0"/>
<path d="M158.735 109.831C158.667 109.23 158.646 108.624 158.673 108.02C158.673 106.913 158.673 105.363 158.718 103.627V103.683C158.633 103.468 158.548 103.241 158.457 103.013C157.759 101.237 157.14 99.6076 156.709 98.4723C156.493 97.9047 156.323 97.4108 156.209 97.0816C156.137 96.9129 156.087 96.7354 156.061 96.5537C156.167 96.703 156.253 96.8651 156.317 97.0362C156.459 97.3598 156.657 97.8195 156.884 98.3985C157.367 99.5338 158.02 101.152 158.712 102.94C158.797 103.167 158.888 103.394 158.973 103.609V103.638V103.666C158.934 105.403 158.883 106.947 158.831 108.06C158.845 108.652 158.813 109.244 158.735 109.831Z" fill="#263238"/>
<path d="M179.925 110.024C179.813 109.438 179.748 108.843 179.732 108.247C179.641 107.112 179.539 105.59 179.442 103.848V103.819V103.785C179.539 103.541 179.641 103.28 179.749 103.019C180.464 101.214 181.128 99.6131 181.622 98.4211C181.872 97.8534 182.076 97.3653 182.224 97.0417C182.288 96.8672 182.374 96.7014 182.479 96.5479C182.458 96.7323 182.408 96.9124 182.332 97.0814C182.218 97.4163 182.042 97.9045 181.815 98.4949C181.372 99.6869 180.737 101.333 180.016 103.127C179.914 103.388 179.811 103.649 179.709 103.893V103.836C179.8 105.579 179.868 107.123 179.902 108.236C179.957 108.83 179.964 109.428 179.925 110.024Z" fill="#263238"/>
<path d="M164.695 122.824C163.359 122.143 162.117 121.292 161 120.292C161.69 120.584 162.339 120.966 162.93 121.428C163.577 121.814 164.17 122.283 164.695 122.824Z" fill="#263238"/>
<path d="M166.018 120.911C165.422 120.504 164.853 120.058 164.315 119.577C163.719 119.175 163.151 118.735 162.612 118.26C163.972 118.809 165.152 119.727 166.018 120.911Z" fill="#263238"/>
<path d="M175.338 118.277C174.376 119.045 173.295 119.651 172.137 120.071C172.59 119.654 173.105 119.309 173.664 119.049C174.18 118.708 174.744 118.448 175.338 118.277Z" fill="#263238"/>
<path d="M176.956 120.241C176.527 120.675 176.033 121.039 175.492 121.32C175.001 121.684 174.455 121.966 173.874 122.154C174.303 121.72 174.797 121.357 175.338 121.076C175.829 120.711 176.375 120.429 176.956 120.241Z" fill="#263238"/>
<path d="M101.528 164.217C101.195 164.584 100.832 164.924 100.444 165.233C99.7457 165.846 98.741 166.703 97.5717 167.702L97.4411 167.81L97.3617 167.656L96.0788 165.176H96.3456V165.204L95.3806 167.656L95.3068 167.844L95.1649 167.713C93.9728 166.657 92.9568 165.744 92.2415 165.085C91.849 164.757 91.4827 164.398 91.146 164.012C91.5709 164.299 91.975 164.616 92.3551 164.96C93.0987 165.579 94.1375 166.464 95.3465 167.503L95.1252 167.56L96.0731 165.102V165.068L96.1923 164.761L96.3399 165.051L97.6057 167.543L97.3957 167.503C98.5878 166.521 99.6095 165.692 100.336 165.113C100.71 164.784 101.108 164.484 101.528 164.217Z" fill="#263238"/>
<path d="M96.4307 197.037C96.4051 196.92 96.3936 196.8 96.3967 196.68C96.3967 196.413 96.3967 196.067 96.3967 195.647C96.3967 194.71 96.3967 193.422 96.3513 191.844C96.3513 188.602 96.3513 184.186 96.3115 179.31C96.3115 175.393 96.3115 171.777 96.3115 168.843H96.5443C96.5443 169.518 96.5443 170.143 96.5443 170.733H96.3342C96.3342 169.098 96.3683 167.764 96.3796 166.799C96.3796 166.356 96.3796 166.005 96.3796 165.726C96.3762 165.602 96.3877 165.479 96.4137 165.357C96.4318 165.48 96.4412 165.603 96.4421 165.726C96.4421 166.005 96.4421 166.356 96.4421 166.799C96.4421 167.764 96.4705 169.098 96.4875 170.733H96.2775C96.2775 170.165 96.2775 169.518 96.2775 168.843H96.5102C96.5102 171.777 96.5102 175.393 96.5102 179.31C96.5102 184.186 96.5102 188.602 96.4705 191.844C96.4705 193.422 96.4364 194.71 96.425 195.647C96.425 196.067 96.425 196.413 96.425 196.68C96.4352 196.799 96.4371 196.918 96.4307 197.037Z" fill="#263238"/>
<path d="M115.958 176.608C115.652 176.902 115.311 177.155 114.942 177.363C114.294 177.789 113.369 178.345 112.319 178.895C111.269 179.446 110.287 179.889 109.566 180.178C109.189 180.367 108.788 180.503 108.374 180.581C108.34 180.502 110.077 179.736 112.183 178.634C114.289 177.533 115.906 176.54 115.958 176.608Z" fill="#263238"/>
<path d="M188.581 154.402H150.095C146.443 154.402 143.482 157.363 143.482 161.015V199.501C143.482 203.153 146.443 206.114 150.095 206.114H188.581C192.234 206.114 195.194 203.153 195.194 199.501V161.015C195.194 157.363 192.234 154.402 188.581 154.402Z" fill="#FAFAFA"/>
<path d="M188.587 206.114L189.092 206.074C189.581 206.027 190.064 205.932 190.534 205.79C191.295 205.537 192.006 205.153 192.634 204.655C193.492 203.978 194.167 203.098 194.598 202.095C194.851 201.497 195.017 200.866 195.092 200.222C195.149 199.552 195.126 198.825 195.126 198.076C195.126 196.562 195.126 194.93 195.126 193.177C195.126 189.664 195.126 185.662 195.126 181.257C195.126 176.852 195.126 171.993 195.126 166.794V162.82C195.098 161.48 195.24 160.095 194.735 158.818C194.261 157.514 193.384 156.395 192.231 155.622C191.036 154.839 189.622 154.458 188.195 154.533H150.164C148.516 154.535 146.93 155.166 145.731 156.297C144.532 157.427 143.809 158.973 143.71 160.618C143.67 163.887 143.71 167.14 143.71 170.313C143.71 176.676 143.71 182.801 143.71 188.665C143.71 191.59 143.71 194.438 143.71 197.208V199.274C143.693 199.941 143.775 200.606 143.954 201.249C144.308 202.506 145.032 203.627 146.031 204.468C146.521 204.87 147.064 205.204 147.643 205.461C148.217 205.7 148.82 205.861 149.437 205.938C150.044 206 150.669 205.983 151.288 205.989H152.996H159.938L180.884 206.035L186.561 206.063H188.042H188.547C188.547 206.063 188.377 206.063 188.042 206.063H186.561L180.884 206.091L159.938 206.137L152.996 206.222H151.168C150.555 206.222 149.931 206.222 149.289 206.176C148.65 206.096 148.024 205.932 147.428 205.688C146.818 205.421 146.246 205.075 145.725 204.661C144.686 203.788 143.935 202.623 143.568 201.317C143.379 200.655 143.291 199.968 143.306 199.28V197.213C143.306 194.443 143.306 191.596 143.306 188.67C143.306 182.824 143.306 176.682 143.306 170.319C143.306 167.134 143.306 163.91 143.306 160.606C143.409 158.887 144.164 157.272 145.417 156.09C146.671 154.909 148.328 154.25 150.05 154.249H188.082C189.561 154.175 191.026 154.572 192.265 155.384C193.464 156.189 194.374 157.356 194.86 158.716C195.105 159.374 195.237 160.069 195.251 160.771C195.251 161.458 195.251 162.133 195.251 162.803C195.251 164.15 195.251 165.475 195.251 166.777C195.251 171.976 195.251 176.818 195.251 181.24C195.251 185.662 195.251 189.664 195.251 193.16C195.251 194.92 195.251 196.566 195.251 198.059C195.251 198.808 195.251 199.529 195.2 200.222C195.119 200.876 194.947 201.516 194.689 202.123C194.302 203.001 193.731 203.786 193.014 204.424C192.297 205.061 191.451 205.537 190.534 205.819C190.058 205.954 189.569 206.04 189.075 206.074L188.587 206.114Z" fill="#E0E0E0"/>
<path d="M192.731 189.84C192.731 189.84 184.653 167.968 183.83 167.134C183.241 166.643 182.583 166.239 181.878 165.936C181.479 165.731 181.068 165.553 180.646 165.403L180.561 165.369C178.256 164.523 174.646 163.666 174.646 163.666C174.646 163.666 173.726 166.799 169.35 167.026C164.979 166.799 164.059 163.666 164.059 163.666C164.059 163.666 160.449 164.546 158.145 165.369L158.059 165.403C157.637 165.553 157.226 165.731 156.828 165.936C156.122 166.239 155.465 166.643 154.875 167.134C154.052 167.951 146.576 190.078 146.576 190.078L152.996 192.298L158.888 177.272L158.321 196.827H180.458L179.794 177.272L186.657 192.894L192.731 189.84Z" fill="#3FCF4B"/>
<path d="M181.577 171.596C181.577 171.681 176.139 171.743 169.429 171.743C162.72 171.743 157.287 171.681 157.287 171.596C157.287 171.511 162.72 171.454 169.429 171.454C176.139 171.454 181.577 171.528 181.577 171.596Z" fill="white"/>
<path d="M179.857 179.111C179.587 179.157 179.313 179.177 179.039 179.168L176.803 179.213C174.918 179.242 172.313 179.259 169.424 179.259C166.534 179.259 163.94 179.259 162.044 179.213L159.813 179.168C159.54 179.177 159.266 179.157 158.996 179.111C159.266 179.069 159.54 179.05 159.813 179.054L162.044 179.009C163.929 178.981 166.534 178.964 169.424 178.964C172.313 178.964 174.907 178.964 176.803 179.009L179.039 179.054C179.313 179.05 179.587 179.069 179.857 179.111Z" fill="white"/>
<path d="M179.857 186.23C179.587 186.272 179.313 186.291 179.039 186.286L176.803 186.332C174.918 186.332 172.313 186.372 169.424 186.372C166.534 186.372 163.94 186.372 162.044 186.332L159.813 186.286C159.54 186.291 159.266 186.272 158.996 186.23C159.266 186.183 159.54 186.164 159.813 186.173L162.044 186.122C163.929 186.122 166.534 186.082 169.424 186.082C172.313 186.082 174.907 186.082 176.803 186.122L179.039 186.173C179.313 186.164 179.587 186.183 179.857 186.23Z" fill="white"/>
<path d="M179.857 193.342C179.587 193.388 179.313 193.407 179.039 193.399L176.803 193.444C174.918 193.472 172.313 193.49 169.424 193.49C166.534 193.49 163.94 193.49 162.044 193.444L159.813 193.399C159.54 193.407 159.266 193.388 158.996 193.342C159.266 193.296 159.54 193.277 159.813 193.285L162.044 193.24C163.929 193.211 166.534 193.194 169.424 193.194C172.313 193.194 174.907 193.194 176.803 193.24L179.039 193.285C179.313 193.277 179.587 193.296 179.857 193.342Z" fill="white"/>
<path d="M158.888 182.137C158.821 181.543 158.8 180.945 158.826 180.349C158.826 179.242 158.826 177.692 158.871 175.949V176.006L158.559 175.234C157.844 173.435 157.208 171.794 156.765 170.608C156.538 170.012 156.362 169.529 156.249 169.194C156.177 169.023 156.126 168.844 156.095 168.661C156.095 168.661 156.209 168.826 156.357 169.149C156.504 169.473 156.709 169.944 156.953 170.528C157.452 171.698 158.116 173.321 158.831 175.126C158.939 175.387 159.042 175.649 159.138 175.898V175.927V175.955C159.098 177.698 159.047 179.242 158.996 180.354C159.004 180.95 158.968 181.546 158.888 182.137Z" fill="#263238"/>
<path d="M179.755 182.137C179.659 181.547 179.614 180.951 179.618 180.354C179.567 179.219 179.516 177.698 179.477 175.955V175.927V175.898C179.573 175.649 179.675 175.387 179.783 175.126C180.498 173.321 181.168 171.721 181.662 170.528C181.906 169.961 182.11 169.473 182.258 169.149C182.406 168.826 182.496 168.65 182.519 168.661C182.489 168.844 182.437 169.023 182.366 169.195C182.252 169.529 182.076 170.012 181.855 170.608C181.407 171.794 180.771 173.446 180.056 175.234L179.743 176.006V175.949C179.777 177.692 179.794 179.242 179.789 180.349C179.822 180.945 179.81 181.542 179.755 182.137Z" fill="#263238"/>
<path d="M187.389 175.876C186.328 176.529 185.218 177.098 184.069 177.579C182.957 178.148 181.803 178.632 180.617 179.026C181.68 178.373 182.792 177.803 183.944 177.323C185.052 176.75 186.204 176.266 187.389 175.876Z" fill="white"/>
<path d="M189.813 182.273C188.794 182.891 187.727 183.426 186.623 183.874C185.557 184.413 184.448 184.863 183.308 185.219C184.327 184.602 185.394 184.066 186.498 183.618C187.564 183.08 188.673 182.63 189.813 182.273Z" fill="white"/>
<path d="M158.105 178.754C155.907 177.721 153.796 176.512 151.793 175.138C152.912 175.621 153.992 176.19 155.023 176.841C156.099 177.396 157.129 178.036 158.105 178.754Z" fill="white"/>
<path d="M155.636 185.526C153.409 184.724 151.254 183.736 149.193 182.574C150.322 182.931 151.419 183.381 152.474 183.919C153.571 184.365 154.629 184.903 155.636 185.526Z" fill="white"/>
<path d="M167.374 174.434C167.98 174.334 168.594 174.294 169.208 174.315L169.089 174.434C169.089 173.685 169.06 172.731 169.06 171.732C169.06 170.477 169.06 169.348 169.1 168.525C169.083 168.081 169.119 167.637 169.208 167.202C169.289 167.638 169.323 168.081 169.31 168.525C169.31 169.348 169.35 170.477 169.35 171.732C169.35 172.748 169.35 173.685 169.321 174.434V174.553H169.208C168.594 174.571 167.98 174.531 167.374 174.434Z" fill="#263238"/>
<path d="M168.368 169.989C168.369 170.089 168.34 170.186 168.286 170.269C168.232 170.352 168.154 170.417 168.062 170.455C167.971 170.494 167.87 170.504 167.772 170.485C167.675 170.466 167.585 170.418 167.515 170.348C167.445 170.278 167.397 170.188 167.378 170.091C167.359 169.994 167.369 169.893 167.408 169.801C167.446 169.71 167.511 169.632 167.594 169.577C167.677 169.523 167.775 169.494 167.874 169.495C168.005 169.495 168.131 169.547 168.223 169.64C168.316 169.733 168.368 169.858 168.368 169.989Z" fill="#E0E0E0"/>
<path d="M168.368 173.06C168.368 173.159 168.338 173.256 168.283 173.338C168.228 173.42 168.15 173.484 168.058 173.522C167.967 173.56 167.866 173.569 167.769 173.55C167.672 173.53 167.583 173.482 167.513 173.411C167.443 173.341 167.396 173.251 167.378 173.154C167.359 173.057 167.37 172.956 167.408 172.865C167.447 172.774 167.512 172.696 167.595 172.642C167.678 172.588 167.775 172.559 167.874 172.561C167.939 172.561 168.004 172.574 168.064 172.599C168.125 172.624 168.179 172.661 168.225 172.707C168.271 172.754 168.307 172.809 168.332 172.869C168.356 172.93 168.369 172.995 168.368 173.06Z" fill="#E0E0E0"/>
<path d="M27.417 90.4516V111.193C27.417 114.718 31.6459 121.042 37.2258 120.792H37.6799C42.4992 120.224 39.7575 114.48 39.7575 111.187C39.7575 109.626 39.7575 108.321 39.7575 108.162C39.7575 108.162 45.0422 107.668 45.4339 102.446C45.6212 99.9198 45.5814 94.6862 45.4906 89.9577C45.4424 87.5063 44.473 85.1628 42.7754 83.3937C41.0777 81.6245 38.7763 80.5593 36.3289 80.41L35.8237 80.3816C30.346 80.3646 27.2807 84.9909 27.417 90.4516Z" fill="#FFBF9D"/>
<path d="M39.7519 108.167C37.3392 108.018 35.0203 107.179 33.0708 105.749C33.0708 105.749 34.4956 109.672 39.7406 109.518L39.7519 108.167Z" fill="#FF9A6C"/>
<path d="M36.573 92.1999C36.4709 92.3077 35.8635 91.8309 34.9893 91.8196C34.1152 91.8082 33.4681 92.2396 33.3716 92.1318C33.2751 92.0239 33.434 91.8877 33.7178 91.6833C34.0975 91.4209 34.5506 91.2857 35.012 91.2973C35.4691 91.3038 35.9115 91.4593 36.2722 91.7401C36.539 91.9558 36.6298 92.1545 36.573 92.1999Z" fill="#263238"/>
<path d="M36.6979 94.6406C36.6863 94.8243 36.6042 94.9964 36.4689 95.1211C36.3336 95.2459 36.1554 95.3137 35.9713 95.3104C35.8809 95.3119 35.7911 95.2954 35.7072 95.2618C35.6232 95.2283 35.5468 95.1783 35.4823 95.1149C35.4179 95.0515 35.3667 94.9759 35.3317 94.8925C35.2968 94.8091 35.2788 94.7196 35.2788 94.6292C35.2891 94.4445 35.3705 94.271 35.5059 94.145C35.6414 94.0191 35.8204 93.9505 36.0054 93.9537C36.0961 93.953 36.186 93.9702 36.27 94.0044C36.354 94.0385 36.4303 94.089 36.4947 94.1529C36.5591 94.2167 36.6102 94.2927 36.6451 94.3764C36.68 94.4601 36.6979 94.5499 36.6979 94.6406Z" fill="#263238"/>
<path d="M38.8379 98.2622C39.2687 98.1556 39.711 98.1022 40.1548 98.1033C40.3648 98.1033 40.5578 98.0692 40.6033 97.933C40.6326 97.7211 40.597 97.5054 40.5011 97.3142C40.3421 96.8034 40.1718 96.2698 39.9902 95.7135C39.2863 93.4429 38.7868 91.5697 38.8549 91.5413C38.923 91.513 39.5985 93.3408 40.3024 95.617C40.4727 96.1846 40.6316 96.7125 40.7849 97.2234C40.9035 97.4777 40.9237 97.7669 40.8417 98.0351C40.8077 98.105 40.7584 98.1663 40.6975 98.2144C40.6365 98.2626 40.5655 98.2964 40.4897 98.3133C40.3729 98.3289 40.2546 98.3289 40.1378 98.3133C39.7041 98.3505 39.2674 98.3333 38.8379 98.2622Z" fill="#263238"/>
<path d="M36.1643 89.3617C36.0848 89.5547 35.381 89.4184 34.5409 89.4695C33.7008 89.5206 33.0196 89.7136 32.9174 89.5319C32.872 89.4411 33.0026 89.2595 33.2864 89.0835C33.6604 88.8711 34.0788 88.7487 34.5084 88.726C34.938 88.7034 35.3669 88.7811 35.7613 88.953C36.0621 89.1005 36.1984 89.2879 36.1643 89.3617Z" fill="#263238"/>
<path d="M44.4916 90.0767C44.4008 90.2356 43.714 90.0767 42.8909 90.0767C42.0678 90.0767 41.3753 90.1732 41.2845 90.0086C41.2447 89.9348 41.381 89.7872 41.6705 89.6623C42.056 89.5001 42.4731 89.4264 42.8909 89.4466C43.3135 89.4514 43.73 89.5482 44.1113 89.7304C44.3951 89.8553 44.5314 90.0029 44.4916 90.0767Z" fill="#263238"/>
<path d="M27.61 94.3512C27.5192 94.3058 24.0793 93.0683 23.9771 96.6501C23.8749 100.232 27.4851 99.5962 27.4965 99.4883C27.5078 99.3805 27.61 94.3512 27.61 94.3512Z" fill="#FFBF9D"/>
<path d="M26.4406 98.1034C26.4406 98.1034 26.3782 98.1488 26.2703 98.1942C26.1205 98.2514 25.9548 98.2514 25.8049 98.1942C25.5782 98.0399 25.3963 97.8284 25.2777 97.5812C25.159 97.334 25.1079 97.0598 25.1294 96.7864C25.1292 96.4796 25.1991 96.1767 25.3337 95.9009C25.3691 95.7893 25.4318 95.6883 25.516 95.6071C25.6003 95.5258 25.7034 95.4668 25.8162 95.4355C25.8885 95.4174 25.9648 95.4258 26.0314 95.4591C26.0981 95.4924 26.1506 95.5485 26.1795 95.6171C26.2249 95.7193 26.1795 95.7874 26.2193 95.7931C26.259 95.7988 26.2987 95.7363 26.2703 95.5887C26.2551 95.5 26.2088 95.4195 26.1398 95.3617C26.0916 95.3227 26.0362 95.2936 25.9768 95.2761C25.9174 95.2586 25.8551 95.2529 25.7935 95.2595C25.6463 95.2839 25.5079 95.3458 25.3915 95.4393C25.2752 95.5327 25.1849 95.6546 25.1294 95.7931C24.9659 96.0987 24.8801 96.4398 24.8796 96.7864C24.8513 97.1068 24.9187 97.4283 25.0733 97.7102C25.2279 97.9922 25.4628 98.2219 25.7481 98.3702C25.8424 98.4002 25.942 98.4091 26.0401 98.3964C26.1382 98.3836 26.2323 98.3495 26.3157 98.2964C26.4122 98.1942 26.452 98.1147 26.4406 98.1034Z" fill="#FF9A6C"/>
<path d="M22.7794 88.6067C23.5117 87.3352 23.6706 85.8253 24.0566 84.4119C24.4426 82.9984 25.1919 81.5339 26.5939 81.006H26.628C27.8598 80.4951 29.3924 80.4384 30.4198 81.3182C30.6469 79.4564 32.2647 77.9635 34.0754 77.4639C36.2339 77.0171 38.4734 77.1682 40.5522 77.901C41.9032 78.4233 43.2201 79.5188 44.8209 81.1366C45.4996 81.8123 46.1187 82.5454 46.6714 83.3277L48.3119 88.1867L46.9893 90.7581C46.9098 90.934 46.8246 91.11 46.7281 91.2803L45.5929 96.6842C45.4964 95.2197 45.5418 90.1053 45.451 88.6351C44.3448 88.6144 43.2542 88.3704 42.2446 87.9178C41.235 87.4652 40.3273 86.8133 39.5759 86.0013C38.7642 85.1214 38.117 84.0145 37.0385 83.498C35.6478 82.8281 34.0016 83.3447 32.5485 83.8726L32.6109 83.8158C31.8433 84.1769 31.1546 84.6862 30.5845 85.3144C30.9506 88.214 30.6892 91.1584 29.8181 93.9482C29.6876 94.3683 29.3243 95.2311 28.9156 95.39C28.1152 95.7136 27.8882 94.8962 27.4 94.4648C26.9681 94.1802 26.4487 94.0594 25.9355 94.1242C25.5115 92.9132 25.1626 91.6772 24.891 90.4232C24.4056 90.5786 23.8907 90.6194 23.3868 90.5424C23.54 90.1734 23.6876 89.8044 23.8352 89.4071C23.6465 89.5505 23.43 89.653 23.1995 89.7079C23.0828 89.7346 22.9607 89.7237 22.8506 89.6768C22.7405 89.6299 22.648 89.5494 22.5864 89.4468C22.4388 89.1914 22.6261 88.8735 22.7794 88.6067Z" fill="#263238"/>
<path d="M32.0887 81.9084C31.9056 82.0593 31.733 82.2224 31.5721 82.3966C31.1517 82.9091 30.8754 83.5243 30.7718 84.179C30.686 84.6164 30.6461 85.0616 30.6525 85.5073C30.6525 85.9898 30.698 86.5007 30.7434 87.0456C30.797 87.6115 30.816 88.1802 30.8001 88.7485C30.7891 89.0537 30.753 89.3575 30.6923 89.6567C30.6492 89.9755 30.5262 90.2781 30.3347 90.5366C30.2453 90.639 30.1308 90.7165 30.0024 90.7613C29.874 90.8061 29.7361 90.8167 29.6024 90.792C29.3448 90.7491 29.109 90.6212 28.9326 90.4287C28.6448 90.0422 28.4664 89.5854 28.416 89.1061H28.5239C28.37 89.5002 28.1617 89.8709 27.9052 90.2073C27.6537 90.5192 27.2919 90.7224 26.8948 90.775C26.7106 90.7991 26.5233 90.7695 26.3555 90.6898C26.1978 90.6163 26.0652 90.498 25.9744 90.3496C25.8835 90.2012 25.8384 90.0293 25.8446 89.8554C25.8485 89.7038 25.907 89.5587 26.0093 89.4467L26.066 89.4921C25.7521 89.8546 25.3653 90.1466 24.9307 90.3493C24.8187 90.4029 24.703 90.4484 24.5845 90.4855L24.4596 90.5195L24.5731 90.4685C24.6526 90.4344 24.7661 90.389 24.9137 90.3152C25.3229 90.096 25.6869 89.8013 25.9865 89.4467L26.0376 89.4978C25.958 89.6107 25.9152 89.7456 25.9152 89.8838C25.9152 90.022 25.958 90.1568 26.0376 90.2698C26.1151 90.4068 26.2317 90.5175 26.3725 90.5877C26.5257 90.6555 26.6943 90.681 26.8607 90.6615C27.2344 90.5999 27.5699 90.3966 27.7973 90.0938C28.0477 89.7665 28.2503 89.4053 28.399 89.021L28.4671 88.8507L28.5069 89.0323C28.5573 89.4886 28.7277 89.9234 29.0007 90.2925C29.1578 90.4647 29.3673 90.5804 29.5967 90.6217C29.7106 90.6434 29.8281 90.6349 29.9377 90.597C30.0472 90.5592 30.1449 90.4933 30.2211 90.406C30.3987 90.1639 30.5119 89.8807 30.5504 89.5829C30.6111 89.2894 30.6472 88.9913 30.6582 88.6917C30.6761 88.1236 30.659 87.5549 30.6071 86.9888C30.5674 86.4212 30.5277 85.933 30.5277 85.4448C30.5265 84.9929 30.5721 84.5421 30.6639 84.0995C30.7775 83.4493 31.0637 82.8416 31.4927 82.3399C31.6652 82.1631 31.8668 82.0172 32.0887 81.9084Z" fill="#455A64"/>
<path d="M48.2835 86.8242L48.2438 86.8583L48.1132 86.9548C48.0432 87.0077 47.9692 87.0552 47.8919 87.0967C47.7911 87.1627 47.6847 87.2197 47.574 87.267C46.8782 87.5952 46.1111 87.7435 45.3432 87.6984C44.2015 87.6342 43.1031 87.2398 42.1814 86.5631C41.0783 85.7292 40.1554 84.6807 39.4681 83.4808C39.0764 82.8508 38.7585 82.2093 38.4123 81.6133C38.086 81.0312 37.6768 80.4996 37.1975 80.0353C36.7745 79.6165 36.2535 79.3102 35.6819 79.1441C35.4231 79.0741 35.1549 79.0453 34.8872 79.0589C34.6416 79.0773 34.3994 79.1269 34.1663 79.2065C33.7617 79.3507 33.3922 79.579 33.0821 79.8763C32.8524 80.1012 32.6606 80.3619 32.5145 80.6483C32.3967 80.8982 32.3091 81.1611 32.2534 81.4317C32.2521 81.4147 32.2521 81.3976 32.2534 81.3806V81.216C32.2943 81.0203 32.3572 80.8299 32.4407 80.6483C32.5851 80.3524 32.7768 80.0821 33.0083 79.8479C33.321 79.5388 33.6966 79.3006 34.1096 79.1497C34.6132 78.9638 35.1612 78.9341 35.6819 79.0646C36.2719 79.2346 36.8103 79.5486 37.2486 79.9785C37.7274 80.4482 38.1348 80.9856 38.4577 81.5736C38.8096 82.1753 39.1275 82.8167 39.5135 83.4411C40.2001 84.6317 41.1189 85.6721 42.2155 86.5007C43.1217 87.1663 44.1986 87.56 45.3204 87.636C46.0769 87.6882 46.8347 87.5557 47.5286 87.25C48.0451 87.0172 48.2722 86.8072 48.2835 86.8242Z" fill="#455A64"/>
<path d="M44.5768 92.4382C44.4747 92.546 43.8673 92.0692 42.9874 92.0522C42.1076 92.0352 41.4662 92.4779 41.3753 92.3644C41.2845 92.2509 41.4321 92.1203 41.7159 91.9216C42.0919 91.6718 42.5362 91.5449 42.9874 91.5583C43.4445 91.5649 43.8869 91.7203 44.2476 92.0011C44.5144 92.1941 44.6052 92.3928 44.5768 92.4382Z" fill="#263238"/>
<path d="M43.765 94.6406C43.7534 94.8243 43.6714 94.9964 43.536 95.1211C43.4007 95.2459 43.2225 95.3137 43.0385 95.3104C42.9481 95.3119 42.8583 95.2954 42.7743 95.2618C42.6904 95.2283 42.6139 95.1783 42.5495 95.1149C42.485 95.0515 42.4338 94.9759 42.3989 94.8925C42.3639 94.8091 42.3459 94.7196 42.3459 94.6292C42.3562 94.4445 42.4376 94.271 42.5731 94.145C42.7086 94.0191 42.8876 93.9505 43.0725 93.9537C43.1632 93.953 43.2531 93.9702 43.3371 94.0044C43.4211 94.0385 43.4975 94.089 43.5619 94.1529C43.6263 94.2167 43.6774 94.2927 43.7122 94.3764C43.7471 94.4601 43.7651 94.5499 43.765 94.6406Z" fill="#263238"/>
<path d="M46.2287 82.7598C46.4296 83.0732 46.7045 83.3323 47.0292 83.5145C47.3539 83.6966 47.7183 83.7961 48.0905 83.8042C48.355 83.748 48.615 83.6721 48.8682 83.5772C49.1236 83.7304 49.0612 84.6046 48.8682 84.8487C48.695 85.0532 48.5051 85.2431 48.3005 85.4163C49.1634 85.8761 49.941 85.6491 50.8606 85.3141C50.7694 86.0957 50.4743 86.8395 50.0051 87.4711C49.5359 88.1028 48.9089 88.6 48.187 88.913C47.964 89.0275 47.7168 89.0873 47.4661 89.0873C47.2154 89.0873 46.9682 89.0275 46.7452 88.913C46.4025 88.6251 46.1781 88.2208 46.1151 87.7777C45.7225 86.2301 45.5204 84.6402 45.5134 83.0436L46.2287 82.7598Z" fill="#263238"/>
<path d="M38.8436 100.504C38.8436 100.55 38.6847 100.663 38.3611 100.714C37.9298 100.771 37.492 100.681 37.118 100.459C36.7422 100.24 36.4519 99.8995 36.2949 99.4938C36.1757 99.1873 36.1927 98.9829 36.2381 98.9716C36.2835 98.9602 36.5447 99.7038 37.2996 100.152C37.7871 100.367 38.3112 100.487 38.8436 100.504Z" fill="#263238"/>
<path d="M42.7661 248.761V260L65.8975 259.892C65.7272 257.622 53.0347 253.08 53.0347 253.08L53.2845 248.778L42.7661 248.761Z" fill="#455A64"/>
<g opacity="0.6">
<path d="M46.5068 252.047C46.2809 252.126 46.0919 252.286 45.9757 252.495C45.8595 252.704 45.8243 252.949 45.8767 253.182C45.9333 253.41 46.0767 253.606 46.2761 253.729C46.4755 253.852 46.7152 253.892 46.9439 253.841C47.1798 253.756 47.3771 253.588 47.4991 253.369C47.6212 253.15 47.6599 252.894 47.608 252.649C47.5258 252.416 47.3546 252.226 47.1322 252.12C46.9098 252.013 46.6543 251.999 46.4217 252.081" fill="white"/>
</g>
<path d="M42.7661 260V258.206L64.8473 258.461C64.8473 258.461 65.9826 259.137 65.8975 259.892L42.7661 260Z" fill="#263238"/>
<path d="M53.0347 253.279C53.0347 253.398 52.467 253.461 51.8994 253.847C51.3318 254.233 51.065 254.727 50.9628 254.681C50.8606 254.636 51.0139 253.96 51.6837 253.506C52.3535 253.052 53.0574 253.171 53.0347 253.279Z" fill="#263238"/>
<path d="M56.0659 254.324C56.0659 254.431 55.6061 254.641 55.2314 255.135C54.8568 255.629 54.7546 256.163 54.6638 256.157C54.573 256.151 54.4708 255.493 54.9476 254.886C55.4244 254.278 56.0602 254.21 56.0659 254.324Z" fill="#263238"/>
<path d="M57.4281 257.184C57.326 257.213 57.1613 256.617 57.4281 255.987C57.6949 255.357 58.2285 255.084 58.2796 255.181C58.3307 255.277 58.0071 255.623 57.7857 256.157C57.5644 256.69 57.536 257.173 57.4281 257.184Z" fill="#263238"/>
<path d="M52.8076 250.083C52.7622 250.191 52.2399 250.038 51.6099 250.083C50.9798 250.129 50.4746 250.35 50.4235 250.254C50.3724 250.157 50.8379 249.731 51.5588 249.686C52.2797 249.64 52.8644 249.992 52.8076 250.083Z" fill="#263238"/>
<path d="M52.9382 253.784C53.0018 253.561 53.0192 253.327 52.9893 253.097C52.9385 252.465 52.7275 251.855 52.3762 251.326C52.1342 250.96 51.8262 250.643 51.468 250.39C51.3607 250.303 51.2326 250.245 51.0963 250.222C50.9601 250.199 50.8202 250.212 50.6903 250.259C50.5547 250.329 50.4408 250.435 50.3608 250.565C50.2808 250.695 50.2377 250.844 50.2362 250.997C50.2743 251.588 50.4881 252.154 50.8502 252.622C51.2123 253.09 51.7062 253.44 52.2684 253.625C52.8202 253.8 53.4115 253.807 53.9673 253.645C54.5231 253.484 55.0184 253.16 55.3904 252.717C55.5747 252.517 55.7158 252.281 55.8048 252.024C55.8502 251.878 55.8502 251.722 55.8048 251.576C55.7769 251.503 55.7342 251.437 55.6795 251.381C55.6248 251.325 55.5593 251.282 55.4869 251.252C55.2466 251.184 54.9891 251.208 54.766 251.321C54.0174 251.676 53.3754 252.223 52.9041 252.904C52.7611 253.083 52.6532 253.287 52.5862 253.506C53.062 252.834 53.6587 252.257 54.3459 251.803C54.6581 251.633 55.0611 251.383 55.3904 251.491C55.4632 251.53 55.5177 251.595 55.5422 251.674C55.5667 251.753 55.559 251.838 55.5209 251.911C55.4389 252.122 55.3153 252.315 55.1576 252.479C54.8203 252.869 54.3763 253.152 53.88 253.293C53.3838 253.435 52.8571 253.428 52.3649 253.273C51.8736 253.111 51.4395 252.81 51.1144 252.408C50.7893 252.005 50.5869 251.517 50.5314 251.003C50.5308 250.905 50.5556 250.808 50.6033 250.723C50.6511 250.637 50.7202 250.565 50.8038 250.515C50.8914 250.485 50.9851 250.48 51.0756 250.497C51.1661 250.515 51.2505 250.556 51.3204 250.617C51.654 250.841 51.9444 251.124 52.1775 251.451C52.5293 251.939 52.7608 252.503 52.853 253.097C52.9211 253.54 52.9098 253.784 52.9382 253.784Z" fill="#263238"/>
<path d="M32.0206 249.328V252.961L31.7595 259.483L23.0916 259.693L22.7794 252.961L23.0349 248.857L32.0206 249.328Z" fill="#455A64"/>
<path d="M27.4738 259.012C27.4228 259.012 27.5476 257.014 27.752 254.551C27.9563 252.087 28.172 250.089 28.2231 250.089C28.2742 250.089 28.1493 252.081 27.945 254.545C27.7406 257.008 27.5476 259.012 27.4738 259.012Z" fill="#263238"/>
<path d="M31.7936 258.399L23.0349 258.496V259.693L31.7993 259.682L31.7936 258.399Z" fill="#263238"/>
<path d="M23.0575 254.647C23.111 254.52 23.1859 254.403 23.2789 254.301C23.5102 254.009 23.7687 253.739 24.0509 253.495C24.473 253.123 24.9449 252.812 25.4529 252.57C26.3423 252.144 27.3436 252.009 28.314 252.185C29.2844 252.362 30.1743 252.84 30.8569 253.552C31.1096 253.827 31.3218 254.136 31.487 254.471C31.5574 254.59 31.6055 254.721 31.6289 254.857C31.3602 254.437 31.0564 254.04 30.7206 253.671C29.8476 252.829 28.6808 252.361 27.4681 252.365C26.2576 252.399 25.0946 252.843 24.1701 253.626C23.4435 254.21 23.0916 254.676 23.0575 254.647Z" fill="#263238"/>
<path d="M51.5417 164.546L50.5313 162.962L18.1304 164.483C17.4775 167.983 17.1582 171.538 17.1768 175.098C17.1768 177.936 18.5732 183.749 18.5732 183.749L20.1115 215.043C20.4123 217.881 20.6394 251.94 20.6394 251.94H33.4794L36.1019 204.439C36.3744 199.149 36.1757 191.14 36.4425 185.287L40.8531 203.208L43.6913 215.452C43.6913 215.452 43.1236 220.458 42.556 227.412C41.7102 237.26 41.6364 251.531 41.6364 251.531L54.8227 251.741C54.8227 251.741 56.6505 234.916 58.0809 225.09L59.3127 213.363C59.3127 211.404 58.4613 206.608 58.308 205.819L51.5417 164.546Z" fill="#263238"/>
<path d="M39.3204 186.354C39.1262 186.303 38.9364 186.237 38.7528 186.156C38.5655 186.082 38.3327 185.991 38.0773 185.866C37.8218 185.741 37.5096 185.611 37.2145 185.423C36.9193 185.236 36.556 185.049 36.2041 184.805C35.8521 184.561 35.4888 184.294 35.1142 183.999C33.5002 182.685 32.1729 181.055 31.2145 179.208C31.0102 178.771 30.8001 178.368 30.6469 177.97C30.4936 177.573 30.3574 177.204 30.2495 176.835C30.1417 176.466 30.0679 176.171 29.9998 175.893C29.9424 175.655 29.8969 175.414 29.8635 175.172C29.8247 174.966 29.8019 174.757 29.7954 174.547C29.8465 174.547 29.96 175.427 30.4141 176.784C30.5277 177.119 30.6582 177.488 30.8285 177.868C30.9988 178.248 31.1975 178.657 31.3962 179.077C31.8878 179.975 32.4577 180.828 33.0991 181.626C33.7493 182.416 34.4693 183.145 35.2504 183.806C35.6194 184.101 35.9657 184.373 36.3119 184.617C36.6582 184.861 36.9874 185.066 37.2939 185.253C38.4973 186.019 39.3374 186.32 39.3204 186.354Z" fill="#455A64"/>
<path d="M78.7942 119.94C79.2046 118.983 79.6669 118.049 80.1792 117.142C80.5312 116.671 82.1206 114.871 82.1206 114.871C82.1206 114.871 85.3107 113.396 85.8273 113.543C86.1364 113.629 86.4338 113.753 86.7128 113.912L91.1631 110.796C91.1631 110.796 92.2075 110.228 92.6162 110.87C93.0249 111.511 92.463 111.959 92.2246 112.249C91.9861 112.538 88.7563 115.308 88.7563 115.308L88.6371 115.524C88.6371 115.524 89.8405 115.899 89.8461 116.552C89.8114 117.04 89.6638 117.515 89.4147 117.937C89.5947 118.081 89.7264 118.277 89.7923 118.498C89.8582 118.719 89.8552 118.955 89.7837 119.174L89.5453 119.974C89.7513 120.114 89.9165 120.306 90.0242 120.53C90.1319 120.755 90.1782 121.004 90.1583 121.252C90.0391 122.052 88.1319 123.431 88.1319 123.431C88.1319 123.431 84.6636 124.975 83.9427 125.043C83.2218 125.112 81.587 125.526 81.587 125.526L78.7942 119.94Z" fill="#FFBF9D"/>
<path d="M87.672 113.237C87.4285 113.476 87.1602 113.689 86.8716 113.872C86.205 114.37 85.4831 114.789 84.7202 115.121C83.9316 115.331 83.1625 115.608 82.4213 115.95C82.1389 116.125 81.8795 116.335 81.6493 116.574C81.6209 116.574 81.7855 116.166 82.3361 115.802C83.0543 115.412 83.8166 115.109 84.6067 114.9C85.3516 114.571 86.0675 114.18 86.7467 113.73C87.0339 113.529 87.3447 113.363 87.672 113.237Z" fill="#FF9A6C"/>
<path d="M88.7278 115.399C88.7562 115.399 88.7278 115.53 88.6029 115.643C88.4466 115.78 88.2706 115.893 88.0807 115.978C87.6436 116.177 87.2803 116.273 87.252 116.217C87.2236 116.16 87.5528 115.95 87.9785 115.757C88.1886 115.66 88.3702 115.575 88.5008 115.507C88.6313 115.439 88.6994 115.365 88.7278 115.399Z" fill="#FF9A6C"/>
<path d="M89.4204 117.812C89.4658 117.857 89.3239 118.09 89.0628 118.306C88.8017 118.521 88.5519 118.618 88.4952 118.561C88.4384 118.504 88.6427 118.323 88.8868 118.118C89.1309 117.914 89.3864 117.766 89.4204 117.812Z" fill="#FF9A6C"/>
<path d="M89.6758 119.816C89.7382 119.816 89.6758 120.179 89.3238 120.44C88.9719 120.701 88.654 120.724 88.6427 120.661C88.6313 120.599 88.9038 120.48 89.1706 120.253C89.4374 120.026 89.6133 119.787 89.6758 119.816Z" fill="#FF9A6C"/>
<path d="M78.9473 119.475L72.9814 123.335L75.3485 131.009L82.9379 124.697L82.4781 121.269L78.9473 119.475Z" fill="#FFBF9D"/>
<path d="M14.7416 121.149C14.7416 121.149 10.876 143.094 11.086 145.144C11.296 147.193 11.9148 150.122 14.6338 151.019C16.0922 151.459 17.6483 151.459 19.1068 151.019L20.1285 138.014L16.3083 124.067L14.7416 121.149Z" fill="#FFBF9D"/>
<path d="M44.8493 111.238L47.8862 112.816L49.7196 129.976L50.3213 135.794L51.2693 151.944C51.5531 153.346 52.8984 168.252 52.8984 168.252L16.6149 169.121C17.1825 168.956 17.6763 162.61 18.0113 161.247L19.0841 151.791L18.0113 138.252C18.0113 138.252 14.2421 121.734 14.7416 120.428C15.2412 119.123 17.648 116.092 22.3594 112.782C24.2383 111.46 26.9629 109.808 26.9629 109.808L39.3829 109.87L44.8493 111.238Z" fill="#455A64"/>
<path d="M64.6031 128.046C64.6031 128.046 56.4688 120.854 53.4149 117.829C50.009 114.423 47.5966 112.72 46.5408 112.652C46.2399 112.652 43.0214 114.355 43.0214 114.355C43.0214 114.355 42.187 115.314 40.7508 120.19C39.3147 125.066 47.642 128.245 47.642 128.245L51.6155 132.218C52.3704 132.905 57.956 137.895 62.0373 139.496C63.1273 139.92 64.3126 140.039 65.465 139.838C66.6175 139.638 67.6934 139.127 68.5766 138.36L81.0646 126.304C79.146 121.138 78.953 119.52 78.953 119.52" fill="#FFBF9D"/>
<path d="M14.7416 120.429L11.0576 139.076L20.1058 140.835L17.8693 120.69L14.7416 120.429Z" fill="#455A64"/>
<path d="M16.1948 121.024C16.2742 121.024 16.9497 127.706 17.6933 135.965C18.4369 144.224 18.9875 150.922 18.9081 150.928C18.8286 150.933 18.1531 144.247 17.4038 135.987C16.6545 127.728 16.0926 121.03 16.1948 121.024Z" fill="#263238"/>
<path d="M39.854 123.522L52.9097 134.466L61.1008 123.238C61.1008 123.238 51.2068 114.576 48.8511 113.316C45.9391 111.761 43.7424 110.608 41.4718 113.384C40.2755 114.75 39.489 116.427 39.2028 118.22C38.9167 120.013 39.1424 121.851 39.854 123.522Z" fill="#455A64"/>
<path d="M52.8984 134.466C52.8053 134.42 52.7177 134.362 52.6373 134.296L51.9278 133.757L49.3563 131.742L40.9155 124.975L40.7509 124.788C39.4228 123.203 38.7363 121.178 38.8266 119.112C38.8921 117.428 39.5016 115.811 40.5636 114.502C41.2673 113.624 42.1649 112.921 43.1861 112.448C43.4617 112.318 43.7486 112.213 44.0432 112.135C44.142 112.101 44.2452 112.08 44.3498 112.073C44.3498 112.101 43.9354 112.204 43.2145 112.55C42.2333 113.048 41.376 113.76 40.7055 114.633C39.6948 115.916 39.1236 117.49 39.0764 119.123C39.0008 121.121 39.6681 123.077 40.9496 124.612L41.1029 124.788L49.4869 131.6L52.0016 133.694L52.6714 134.262C52.7546 134.321 52.8308 134.39 52.8984 134.466Z" fill="#263238"/>
<g opacity="0.3">
<path d="M41.0063 124.862C41.0063 124.862 43.8729 130.328 50.3213 135.795L49.9353 132.077L41.0063 124.862Z" fill="black"/>
</g>
<path d="M38.5428 149.185C38.3578 149.34 38.156 149.473 37.9411 149.583C37.5438 149.821 36.9591 150.15 36.2382 150.565C34.7907 151.371 32.7699 152.449 30.5107 153.585C28.2515 154.72 26.1739 155.685 24.6583 156.355C23.9034 156.69 23.2846 156.956 22.8589 157.132C22.6412 157.238 22.4128 157.319 22.1777 157.376C22.3758 157.239 22.5868 157.121 22.8078 157.024L24.5732 156.167C26.0604 155.446 28.1209 154.464 30.3801 153.329C32.6393 152.194 34.6715 151.149 36.1417 150.389L37.8843 149.492C38.0925 149.367 38.3132 149.264 38.5428 149.185Z" fill="#263238"/>
</svg>
